Amiamie-BlackRound.ufo
<glyph name="numbersign" format="2">
	<advance width="662"/>
	<unicode hex="0023"/>
	<note>
		numbersign
	</note>
	<outline>
		<contour>
			<point x="466" y="297" type="line"/>
			<point x="487" y="393" type="line"/>
			<point x="552" y="393" type="line" smooth="yes"/>
			<point x="578" y="393"/>
			<point x="600" y="414"/>
			<point x="600" y="441" type="curve" smooth="yes"/>
			<point x="600" y="468"/>
			<point x="578" y="489"/>
			<point x="552" y="489" type="curve" smooth="yes"/>
			<point x="507" y="489" type="line"/>
			<point x="539" y="639" type="line" smooth="yes"/>
			<point x="545" y="670"/>
			<point x="522" y="699"/>
			<point x="490" y="699" type="curve" smooth="yes"/>
			<point x="466" y="699"/>
			<point x="446" y="682"/>
			<point x="441" y="660" type="curve" smooth="yes"/>
			<point x="405" y="489" type="line"/>
			<point x="318" y="489" type="line"/>
			<point x="350" y="639" type="line" smooth="yes"/>
			<point x="356" y="670"/>
			<point x="333" y="699"/>
			<point x="301" y="699" type="curve" smooth="yes"/>
			<point x="277" y="699"/>
			<point x="257" y="682"/>
			<point x="252" y="660" type="curve" smooth="yes"/>
			<point x="216" y="489" type="line"/>
			<point x="140" y="489" type="line" smooth="yes"/>
			<point x="114" y="489"/>
			<point x="92" y="468"/>
			<point x="92" y="441" type="curve" smooth="yes"/>
			<point x="92" y="414"/>
			<point x="114" y="393"/>
			<point x="140" y="393" type="curve" smooth="yes"/>
			<point x="196" y="393" type="line"/>
			<point x="175" y="297" type="line"/>
			<point x="110" y="297" type="line" smooth="yes"/>
			<point x="84" y="297"/>
			<point x="62" y="276"/>
			<point x="62" y="249" type="curve" smooth="yes"/>
			<point x="62" y="222"/>
			<point x="84" y="201"/>
			<point x="110" y="201" type="curve" smooth="yes"/>
			<point x="155" y="201" type="line"/>
			<point x="123" y="51" type="line" smooth="yes"/>
			<point x="117" y="20"/>
			<point x="140" y="-9"/>
			<point x="172" y="-9" type="curve" smooth="yes"/>
			<point x="196" y="-9"/>
			<point x="216" y="8"/>
			<point x="221" y="30" type="curve" smooth="yes"/>
			<point x="257" y="201" type="line"/>
			<point x="344" y="201" type="line"/>
			<point x="312" y="51" type="line" smooth="yes"/>
			<point x="306" y="20"/>
			<point x="329" y="-9"/>
			<point x="361" y="-9" type="curve" smooth="yes"/>
			<point x="385" y="-9"/>
			<point x="405" y="8"/>
			<point x="410" y="30" type="curve" smooth="yes"/>
			<point x="446" y="201" type="line"/>
			<point x="522" y="201" type="line" smooth="yes"/>
			<point x="548" y="201"/>
			<point x="570" y="222"/>
			<point x="570" y="249" type="curve" smooth="yes"/>
			<point x="570" y="276"/>
			<point x="548" y="297"/>
			<point x="522" y="297" type="curve" smooth="yes"/>
		</contour>
		<contour>
			<point x="297" y="393" type="line"/>
			<point x="384" y="393" type="line"/>
			<point x="364" y="297" type="line"/>
			<point x="277" y="297" type="line"/>
		</contour>
	</outline>
</glyph>
<glyph name="ampersand" format="2">
	<advance width="688"/>
	<unicode hex="0026"/>
	<note>
		ampersand
	</note>
	<outline>
		<contour>
			<point x="669" y="420"/>
			<point x="631" y="420" type="curve" smooth="yes"/>
			<point x="600" y="420" type="line"/>
			<point x="598" y="467"/>
			<point x="558" y="506"/>
			<point x="510" y="506" type="curve" smooth="yes"/>
			<point x="462" y="506"/>
			<point x="422" y="467"/>
			<point x="420" y="420" type="curve"/>
			<point x="403" y="420" type="line" smooth="yes"/>
			<point x="387" y="420"/>
			<point x="365" y="420"/>
			<point x="347" y="421" type="curve" smooth="yes"/>
			<point x="306" y="423"/>
			<point x="274" y="447"/>
			<point x="274" y="498" type="curve" smooth="yes"/>
			<point x="274" y="549"/>
			<point x="302" y="572"/>
			<point x="361" y="572" type="curve" smooth="yes"/>
			<point x="373" y="572"/>
			<point x="384" y="572"/>
			<point x="396" y="571" type="curve" smooth="yes"/>
			<point x="433" y="569"/>
			<point x="465" y="599"/>
			<point x="465" y="637" type="curve" smooth="yes"/>
			<point x="465" y="671"/>
			<point x="438" y="699"/>
			<point x="405" y="702" type="curve" smooth="yes"/>
			<point x="389" y="703"/>
			<point x="373" y="704"/>
			<point x="356" y="704" type="curve" smooth="yes"/>
			<point x="183" y="704"/>
			<point x="86" y="636"/>
			<point x="86" y="508" type="curve" smooth="yes"/>
			<point x="86" y="435"/>
			<point x="137" y="375"/>
			<point x="212" y="353" type="curve"/>
			<point x="111" y="337"/>
			<point x="44" y="278"/>
			<point x="44" y="178" type="curve" smooth="yes"/>
			<point x="44" y="32"/>
			<point x="166" y="-14"/>
			<point x="327" y="-14" type="curve" smooth="yes"/>
			<point x="396" y="-14"/>
			<point x="459" y="-9"/>
			<point x="515" y="-2" type="curve" smooth="yes"/>
			<point x="572" y="6"/>
			<point x="600" y="42"/>
			<point x="600" y="100" type="curve" smooth="yes"/>
			<point x="600" y="280" type="line"/>
			<point x="631" y="280" type="line" smooth="yes"/>
			<point x="669" y="280"/>
			<point x="701" y="311"/>
			<point x="701" y="350" type="curve" smooth="yes"/>
			<point x="701" y="389"/>
		</contour>
		<contour>
			<point x="232" y="200" type="curve" smooth="yes"/>
			<point x="232" y="250"/>
			<point x="270" y="276"/>
			<point x="336" y="279" type="curve" smooth="yes"/>
			<point x="356" y="280"/>
			<point x="365" y="280"/>
			<point x="387" y="280" type="curve" smooth="yes"/>
			<point x="420" y="280" type="line"/>
			<point x="420" y="125" type="line"/>
			<point x="382" y="119"/>
			<point x="361" y="118"/>
			<point x="332" y="118" type="curve" smooth="yes"/>
			<point x="274" y="118"/>
			<point x="232" y="135"/>
		</contour>
	</outline>
</glyph>
<glyph name="parenleft" format="2">
	<advance width="403"/>
	<unicode hex="0028"/>
	<note>
		parenleft
	</note>
	<outline>
		<contour>
			<point x="270" y="784"/>
			<point x="263" y="775" type="curve" smooth="yes"/>
			<point x="170" y="663"/>
			<point x="119" y="530"/>
			<point x="119" y="350" type="curve" smooth="yes"/>
			<point x="119" y="170"/>
			<point x="170" y="37"/>
			<point x="263" y="-75" type="curve" smooth="yes"/>
			<point x="270" y="-84"/>
			<point x="281" y="-89"/>
			<point x="293" y="-89" type="curve" smooth="yes"/>
			<point x="315" y="-89"/>
			<point x="333" y="-71"/>
			<point x="333" y="-49" type="curve" smooth="yes"/>
			<point x="333" y="-42"/>
			<point x="331" y="-35"/>
			<point x="328" y="-30" type="curve" smooth="yes"/>
			<point x="261" y="87"/>
			<point x="227" y="205"/>
			<point x="227" y="350" type="curve" smooth="yes"/>
			<point x="227" y="495"/>
			<point x="261" y="613"/>
			<point x="328" y="730" type="curve" smooth="yes"/>
			<point x="331" y="735"/>
			<point x="333" y="742"/>
			<point x="333" y="749" type="curve" smooth="yes"/>
			<point x="333" y="771"/>
			<point x="315" y="789"/>
			<point x="293" y="789" type="curve" smooth="yes"/>
			<point x="281" y="789"/>
		</contour>
	</outline>
</glyph>
<glyph name="plus" format="2">
	<advance width="662"/>
	<unicode hex="002B"/>
	<note>
		plus
	</note>
	<outline>
		<contour>
			<point x="381" y="273" type="line"/>
			<point x="521" y="273" type="line" smooth="yes"/>
			<point x="545" y="273"/>
			<point x="565" y="293"/>
			<point x="565" y="317" type="curve" smooth="yes"/>
			<point x="565" y="341"/>
			<point x="545" y="361"/>
			<point x="521" y="361" type="curve" smooth="yes"/>
			<point x="381" y="361" type="line"/>
			<point x="381" y="517" type="line" smooth="yes"/>
			<point x="381" y="544"/>
			<point x="359" y="567"/>
			<point x="331" y="567" type="curve" smooth="yes"/>
			<point x="303" y="567"/>
			<point x="281" y="544"/>
			<point x="281" y="517" type="curve" smooth="yes"/>
			<point x="281" y="361" type="line"/>
			<point x="141" y="361" type="line" smooth="yes"/>
			<point x="117" y="361"/>
			<point x="97" y="341"/>
			<point x="97" y="317" type="curve" smooth="yes"/>
			<point x="97" y="293"/>
			<point x="117" y="273"/>
			<point x="141" y="273" type="curve" smooth="yes"/>
			<point x="281" y="273" type="line"/>
			<point x="281" y="117" type="line" smooth="yes"/>
			<point x="281" y="90"/>
			<point x="303" y="67"/>
			<point x="331" y="67" type="curve" smooth="yes"/>
			<point x="359" y="67"/>
			<point x="381" y="90"/>
			<point x="381" y="117" type="curve" smooth="yes"/>
		</contour>
	</outline>
</glyph>
<glyph name="comma" format="2">
	<advance width="266"/>
	<unicode hex="002C"/>
	<note>
		comma
	</note>
	<outline>
		<contour>
			<point x="125" y="-89" type="curve" smooth="yes"/>
			<point x="192" y="86" type="line" smooth="yes"/>
			<point x="212" y="138"/>
			<point x="207" y="193"/>
			<point x="153" y="204" type="curve" smooth="yes"/>
			<point x="145" y="206"/>
			<point x="137" y="207"/>
			<point x="128" y="207" type="curve" smooth="yes"/>
			<point x="73" y="207"/>
			<point x="52" y="162"/>
			<point x="38" y="112" type="curve" smooth="yes"/>
			<point x="-5" y="-46" type="line" smooth="yes"/>
			<point x="-6" y="-51"/>
			<point x="-7" y="-58"/>
			<point x="-7" y="-64" type="curve" smooth="yes"/>
			<point x="-7" y="-102"/>
			<point x="23" y="-133"/>
			<point x="61" y="-133" type="curve" smooth="yes"/>
			<point x="91" y="-133"/>
			<point x="115" y="-114"/>
		</contour>
	</outline>
</glyph>
<glyph name="slash" format="2">
	<advance width="346"/>
	<unicode hex="002F"/>
	<note>
		slash
	</note>
	<outline>
		<contour>
			<point x="102" y="-24"/>
			<point x="108" y="-5" type="curve" smooth="yes"/>
			<point x="332" y="663" type="line" smooth="yes"/>
			<point x="334" y="668"/>
			<point x="335" y="674"/>
			<point x="335" y="679" type="curve" smooth="yes"/>
			<point x="335" y="707"/>
			<point x="312" y="729"/>
			<point x="285" y="729" type="curve" smooth="yes"/>
			<point x="263" y="729"/>
			<point x="244" y="714"/>
			<point x="238" y="695" type="curve" smooth="yes"/>
			<point x="14" y="27" type="line" smooth="yes"/>
			<point x="12" y="22"/>
			<point x="11" y="16"/>
			<point x="11" y="11" type="curve" smooth="yes"/>
			<point x="11" y="-17"/>
			<point x="34" y="-39"/>
			<point x="61" y="-39" type="curve" smooth="yes"/>
			<point x="83" y="-39"/>
		</contour>
	</outline>
</glyph>
<glyph name="two" format="2">
	<advance width="662"/>
	<unicode hex="0032"/>
	<note>
		two
	</note>
	<outline>
		<contour>
			<point x="532" y="140" type="curve" smooth="yes"/>
			<point x="339" y="140" type="line"/>
			<point x="431" y="229" type="line" smooth="yes"/>
			<point x="564" y="357"/>
			<point x="601" y="419"/>
			<point x="601" y="500" type="curve" smooth="yes"/>
			<point x="601" y="629"/>
			<point x="511" y="706"/>
			<point x="350" y="706" type="curve" smooth="yes"/>
			<point x="208" y="706"/>
			<point x="118" y="646"/>
			<point x="84" y="538" type="curve" smooth="yes"/>
			<point x="69" y="490"/>
			<point x="79" y="445"/>
			<point x="125" y="428" type="curve" smooth="yes"/>
			<point x="138" y="423"/>
			<point x="152" y="420"/>
			<point x="167" y="420" type="curve" smooth="yes"/>
			<point x="185" y="420"/>
			<point x="201" y="426"/>
			<point x="214" y="435" type="curve" smooth="yes"/>
			<point x="244" y="455"/>
			<point x="245" y="489"/>
			<point x="266" y="533" type="curve" smooth="yes"/>
			<point x="280" y="561"/>
			<point x="302" y="574"/>
			<point x="335" y="574" type="curve" smooth="yes"/>
			<point x="384" y="574"/>
			<point x="413" y="545"/>
			<point x="413" y="493" type="curve" smooth="yes"/>
			<point x="413" y="427"/>
			<point x="378" y="379"/>
			<point x="275" y="282" type="curve" smooth="yes"/>
			<point x="64" y="84" type="line" smooth="yes"/>
			<point x="55" y="75"/>
			<point x="49" y="62"/>
			<point x="49" y="49" type="curve" smooth="yes"/>
			<point x="49" y="22"/>
			<point x="72" y="0"/>
			<point x="98" y="0" type="curve" smooth="yes"/>
			<point x="532" y="0" type="line" smooth="yes"/>
			<point x="570" y="0"/>
			<point x="602" y="31"/>
			<point x="602" y="70" type="curve" smooth="yes"/>
			<point x="602" y="109"/>
			<point x="570" y="140"/>
		</contour>
	</outline>
</glyph>
<glyph name="three" format="2">
	<advance width="662"/>
	<unicode hex="0033"/>
	<note>
		three
	</note>
	<outline>
		<contour>
			<point x="460" y="363" type="curve"/>
			<point x="550" y="385"/>
			<point x="591" y="439"/>
			<point x="591" y="520" type="curve" smooth="yes"/>
			<point x="591" y="618"/>
			<point x="513" y="704"/>
			<point x="344" y="704" type="curve" smooth="yes"/>
			<point x="201" y="704"/>
			<point x="117" y="638"/>
			<point x="83" y="552" type="curve" smooth="yes"/>
			<point x="65" y="505"/>
			<point x="76" y="460"/>
			<point x="122" y="442" type="curve" smooth="yes"/>
			<point x="135" y="438"/>
			<point x="149" y="435"/>
			<point x="164" y="435" type="curve" smooth="yes"/>
			<point x="182" y="435"/>
			<point x="198" y="441"/>
			<point x="211" y="450" type="curve" smooth="yes"/>
			<point x="241" y="470"/>
			<point x="240" y="506"/>
			<point x="268" y="545" type="curve" smooth="yes"/>
			<point x="281" y="561"/>
			<point x="299" y="572"/>
			<point x="326" y="572" type="curve" smooth="yes"/>
			<point x="376" y="572"/>
			<point x="403" y="544"/>
			<point x="403" y="499" type="curve" smooth="yes"/>
			<point x="403" y="469"/>
			<point x="389" y="443"/>
			<point x="361" y="427" type="curve" smooth="yes"/>
			<point x="323" y="405"/>
			<point x="277" y="409"/>
			<point x="267" y="368" type="curve" smooth="yes"/>
			<point x="266" y="363"/>
			<point x="265" y="357"/>
			<point x="265" y="352" type="curve" smooth="yes"/>
			<point x="265" y="339"/>
			<point x="269" y="326"/>
			<point x="276" y="316" type="curve" smooth="yes"/>
			<point x="291" y="293"/>
			<point x="323" y="297"/>
			<point x="366" y="280" type="curve" smooth="yes"/>
			<point x="400" y="266"/>
			<point x="419" y="239"/>
			<point x="419" y="200" type="curve" smooth="yes"/>
			<point x="419" y="153"/>
			<point x="380" y="118"/>
			<point x="318" y="118" type="curve" smooth="yes"/>
			<point x="284" y="118"/>
			<point x="259" y="132"/>
			<point x="241" y="153" type="curve" smooth="yes"/>
			<point x="212" y="190"/>
			<point x="206" y="229"/>
			<point x="162" y="241" type="curve" smooth="yes"/>
			<point x="154" y="243"/>
			<point x="144" y="244"/>
			<point x="135" y="244" type="curve" smooth="yes"/>
			<point x="118" y="244"/>
			<point x="98" y="242"/>
			<point x="80" y="237" type="curve" smooth="yes"/>
			<point x="43" y="226"/>
			<point x="32" y="186"/>
			<point x="51" y="136" type="curve" smooth="yes"/>
			<point x="89" y="42"/>
			<point x="183" y="-14"/>
			<point x="325" y="-14" type="curve" smooth="yes"/>
			<point x="499" y="-14"/>
			<point x="607" y="73"/>
			<point x="607" y="205" type="curve" smooth="yes"/>
			<point x="607" y="294"/>
			<point x="558" y="344"/>
		</contour>
	</outline>
</glyph>
<glyph name="four" format="2">
	<advance width="662"/>
	<unicode hex="0034"/>
	<note>
		four
	</note>
	<outline>
		<contour>
			<point x="542" y="154" type="line"/>
			<point x="565" y="154" type="line" smooth="yes"/>
			<point x="603" y="154"/>
			<point x="635" y="185"/>
			<point x="635" y="224" type="curve" smooth="yes"/>
			<point x="635" y="263"/>
			<point x="603" y="294"/>
			<point x="565" y="294" type="curve" smooth="yes"/>
			<point x="542" y="294" type="line"/>
			<point x="542" y="574" type="line" smooth="yes"/>
			<point x="542" y="643"/>
			<point x="486" y="699"/>
			<point x="417" y="699" type="curve" smooth="yes"/>
			<point x="375" y="699"/>
			<point x="337" y="678"/>
			<point x="315" y="646" type="curve" smooth="yes"/>
			<point x="41" y="257" type="line" smooth="yes"/>
			<point x="34" y="247"/>
			<point x="29" y="234"/>
			<point x="29" y="219" type="curve" smooth="yes"/>
			<point x="29" y="183"/>
			<point x="58" y="154"/>
			<point x="94" y="154" type="curve" smooth="yes"/>
			<point x="362" y="154" type="line"/>
			<point x="362" y="81" type="line" smooth="yes"/>
			<point x="362" y="32"/>
			<point x="402" y="-9"/>
			<point x="452" y="-9" type="curve" smooth="yes"/>
			<point x="502" y="-9"/>
			<point x="542" y="32"/>
			<point x="542" y="81" type="curve" smooth="yes"/>
		</contour>
		<contour>
			<point x="362" y="500" type="curve"/>
			<point x="362" y="294" type="line"/>
			<point x="223" y="294" type="line"/>
			<point x="325" y="439" type="line" smooth="yes"/>
			<point x="336" y="454"/>
			<point x="348" y="475"/>
		</contour>
	</outline>
</glyph>
<glyph name="five" format="2">
	<advance width="662"/>
	<unicode hex="0035"/>
	<note>
		five
	</note>
	<outline>
		<contour>
			<point x="379" y="470" type="curve" smooth="yes"/>
			<point x="363" y="470"/>
			<point x="347" y="469"/>
			<point x="332" y="466" type="curve" smooth="yes"/>
			<point x="287" y="458"/>
			<point x="265" y="432"/>
			<point x="246" y="399" type="curve"/>
			<point x="268" y="550" type="line"/>
			<point x="519" y="550" type="line" smooth="yes"/>
			<point x="557" y="550"/>
			<point x="589" y="581"/>
			<point x="589" y="620" type="curve" smooth="yes"/>
			<point x="589" y="659"/>
			<point x="557" y="690"/>
			<point x="519" y="690" type="curve" smooth="yes"/>
			<point x="209" y="690" type="line" smooth="yes"/>
			<point x="150" y="690"/>
			<point x="116" y="659"/>
			<point x="109" y="601" type="curve" smooth="yes"/>
			<point x="81" y="373" type="line" smooth="yes"/>
			<point x="74" y="316"/>
			<point x="118" y="267"/>
			<point x="175" y="267" type="curve" smooth="yes"/>
			<point x="207" y="267"/>
			<point x="236" y="282"/>
			<point x="253" y="306" type="curve" smooth="yes"/>
			<point x="269" y="329"/>
			<point x="291" y="338"/>
			<point x="323" y="338" type="curve" smooth="yes"/>
			<point x="385" y="338"/>
			<point x="419" y="291"/>
			<point x="419" y="228" type="curve" smooth="yes"/>
			<point x="419" y="166"/>
			<point x="387" y="118"/>
			<point x="320" y="118" type="curve" smooth="yes"/>
			<point x="296" y="118"/>
			<point x="276" y="125"/>
			<point x="263" y="138" type="curve" smooth="yes"/>
			<point x="230" y="172"/>
			<point x="230" y="214"/>
			<point x="186" y="228" type="curve" smooth="yes"/>
			<point x="176" y="230"/>
			<point x="166" y="232"/>
			<point x="155" y="232" type="curve" smooth="yes"/>
			<point x="137" y="232"/>
			<point x="119" y="230"/>
			<point x="102" y="224" type="curve" smooth="yes"/>
			<point x="66" y="211"/>
			<point x="56" y="171"/>
			<point x="74" y="122" type="curve" smooth="yes"/>
			<point x="109" y="27"/>
			<point x="196" y="-14"/>
			<point x="332" y="-14" type="curve" smooth="yes"/>
			<point x="474" y="-14"/>
			<point x="607" y="71"/>
			<point x="607" y="233" type="curve" smooth="yes"/>
			<point x="607" y="384"/>
			<point x="517" y="470"/>
		</contour>
	</outline>
</glyph>
<glyph name="six" format="2">
	<advance width="662"/>
	<unicode hex="0036"/>
	<note>
		six
	</note>
	<outline>
		<contour>
			<point x="388" y="462" type="curve" smooth="yes"/>
			<point x="363" y="462"/>
			<point x="341" y="460"/>
			<point x="321" y="454" type="curve" smooth="yes"/>
			<point x="278" y="441"/>
			<point x="259" y="412"/>
			<point x="238" y="371" type="curve" smooth="yes"/>
			<point x="235" y="364" type="line"/>
			<point x="240" y="508"/>
			<point x="276" y="572"/>
			<point x="343" y="572" type="curve" smooth="yes"/>
			<point x="365" y="572"/>
			<point x="383" y="566"/>
			<point x="396" y="554" type="curve" smooth="yes"/>
			<point x="428" y="524"/>
			<point x="433" y="485"/>
			<point x="476" y="473" type="curve" smooth="yes"/>
			<point x="485" y="470"/>
			<point x="494" y="469"/>
			<point x="504" y="469" type="curve" smooth="yes"/>
			<point x="521" y="469"/>
			<point x="541" y="471"/>
			<point x="559" y="476" type="curve" smooth="yes"/>
			<point x="595" y="487"/>
			<point x="607" y="528"/>
			<point x="585" y="577" type="curve" smooth="yes"/>
			<point x="550" y="657"/>
			<point x="474" y="704"/>
			<point x="353" y="704" type="curve" smooth="yes"/>
			<point x="173" y="704"/>
			<point x="54" y="570"/>
			<point x="54" y="332" type="curve" smooth="yes"/>
			<point x="54" y="93"/>
			<point x="148" y="-14"/>
			<point x="336" y="-14" type="curve" smooth="yes"/>
			<point x="480" y="-14"/>
			<point x="613" y="73"/>
			<point x="613" y="243" type="curve" smooth="yes"/>
			<point x="613" y="361"/>
			<point x="545" y="462"/>
		</contour>
		<contour>
			<point x="334" y="118" type="curve" smooth="yes"/>
			<point x="277" y="118"/>
			<point x="242" y="160"/>
			<point x="242" y="225" type="curve" smooth="yes"/>
			<point x="242" y="292"/>
			<point x="283" y="330"/>
			<point x="332" y="330" type="curve" smooth="yes"/>
			<point x="391" y="330"/>
			<point x="425" y="288"/>
			<point x="425" y="221" type="curve" smooth="yes"/>
			<point x="425" y="167"/>
			<point x="395" y="118"/>
		</contour>
	</outline>
</glyph>
<glyph name="seven" format="2">
	<advance width="662"/>
	<unicode hex="0037"/>
	<note>
		seven
	</note>
	<outline>
		<contour>
			<point x="596" y="690"/>
			<point x="560" y="690" type="curve" smooth="yes"/>
			<point x="118" y="690" type="line" smooth="yes"/>
			<point x="80" y="690"/>
			<point x="48" y="659"/>
			<point x="48" y="620" type="curve" smooth="yes"/>
			<point x="48" y="581"/>
			<point x="80" y="550"/>
			<point x="118" y="550" type="curve" smooth="yes"/>
			<point x="405" y="550" type="line"/>
			<point x="167" y="119" type="line" smooth="yes"/>
			<point x="160" y="106"/>
			<point x="156" y="92"/>
			<point x="156" y="77" type="curve" smooth="yes"/>
			<point x="156" y="30"/>
			<point x="194" y="-9"/>
			<point x="242" y="-9" type="curve" smooth="yes"/>
			<point x="275" y="-9"/>
			<point x="304" y="10"/>
			<point x="318" y="36" type="curve" smooth="yes"/>
			<point x="619" y="592" type="line" smooth="yes"/>
			<point x="624" y="602"/>
			<point x="627" y="612"/>
			<point x="627" y="623" type="curve" smooth="yes"/>
			<point x="627" y="660"/>
		</contour>
	</outline>
</glyph>
<glyph name="greater" format="2">
	<advance width="662"/>
	<unicode hex="003E"/>
	<note>
		greater
	</note>
	<outline>
		<contour>
			<point x="525" y="339"/>
			<point x="490" y="352" type="curve" smooth="yes"/>
			<point x="136" y="485" type="line" smooth="yes"/>
			<point x="130" y="487"/>
			<point x="123" y="489"/>
			<point x="116" y="489" type="curve" smooth="yes"/>
			<point x="86" y="489"/>
			<point x="61" y="464"/>
			<point x="61" y="433" type="curve" smooth="yes"/>
			<point x="61" y="409"/>
			<point x="77" y="389"/>
			<point x="98" y="381" type="curve" smooth="yes"/>
			<point x="425" y="265" type="line"/>
			<point x="97" y="148" type="line" smooth="yes"/>
			<point x="76" y="140"/>
			<point x="61" y="120"/>
			<point x="61" y="96" type="curve" smooth="yes"/>
			<point x="61" y="66"/>
			<point x="86" y="41"/>
			<point x="116" y="41" type="curve" smooth="yes"/>
			<point x="123" y="41"/>
			<point x="129" y="43"/>
			<point x="135" y="45" type="curve" smooth="yes"/>
			<point x="490" y="178" type="line" smooth="yes"/>
			<point x="525" y="191"/>
			<point x="550" y="225"/>
			<point x="550" y="265" type="curve" smooth="yes"/>
			<point x="550" y="305"/>
		</contour>
	</outline>
</glyph>
<glyph name="C" format="2">
	<advance width="734"/>
	<unicode hex="0043"/>
	<note>
		C
	</note>
	<outline>
		<contour>
			<point x="395" y="704" type="curve" smooth="yes"/>
			<point x="208" y="704"/>
			<point x="54" y="580"/>
			<point x="54" y="340" type="curve" smooth="yes"/>
			<point x="54" y="106"/>
			<point x="203" y="-14"/>
			<point x="388" y="-14" type="curve" smooth="yes"/>
			<point x="535" y="-14"/>
			<point x="649" y="48"/>
			<point x="690" y="168" type="curve" smooth="yes"/>
			<point x="706" y="216"/>
			<point x="696" y="260"/>
			<point x="650" y="279" type="curve" smooth="yes"/>
			<point x="636" y="285"/>
			<point x="621" y="288"/>
			<point x="604" y="288" type="curve" smooth="yes"/>
			<point x="586" y="288"/>
			<point x="572" y="281"/>
			<point x="559" y="271" type="curve" smooth="yes"/>
			<point x="531" y="249"/>
			<point x="526" y="218"/>
			<point x="502" y="177" type="curve" smooth="yes"/>
			<point x="479" y="139"/>
			<point x="443" y="118"/>
			<point x="394" y="118" type="curve" smooth="yes"/>
			<point x="314" y="118"/>
			<point x="242" y="177"/>
			<point x="242" y="351" type="curve" smooth="yes"/>
			<point x="242" y="500"/>
			<point x="307" y="572"/>
			<point x="393" y="572" type="curve" smooth="yes"/>
			<point x="443" y="572"/>
			<point x="480" y="556"/>
			<point x="503" y="522" type="curve" smooth="yes"/>
			<point x="529" y="482"/>
			<point x="535" y="443"/>
			<point x="579" y="431" type="curve" smooth="yes"/>
			<point x="588" y="429"/>
			<point x="597" y="428"/>
			<point x="606" y="428" type="curve" smooth="yes"/>
			<point x="623" y="428"/>
			<point x="643" y="430"/>
			<point x="661" y="435" type="curve" smooth="yes"/>
			<point x="698" y="446"/>
			<point x="709" y="486"/>
			<point x="690" y="536" type="curve" smooth="yes"/>
			<point x="652" y="635"/>
			<point x="555" y="704"/>
		</contour>
	</outline>
</glyph>
<glyph name="H" format="2">
	<advance width="770"/>
	<unicode hex="0048"/>
	<note>
		H
	</note>
	<outline>
		<contour>
			<point x="716" y="81" type="curve" smooth="yes"/>
			<point x="716" y="609" type="line" smooth="yes"/>
			<point x="716" y="658"/>
			<point x="676" y="699"/>
			<point x="626" y="699" type="curve" smooth="yes"/>
			<point x="576" y="699"/>
			<point x="536" y="658"/>
			<point x="536" y="609" type="curve" smooth="yes"/>
			<point x="536" y="408" type="line"/>
			<point x="260" y="408" type="line"/>
			<point x="260" y="609" type="line" smooth="yes"/>
			<point x="260" y="658"/>
			<point x="220" y="699"/>
			<point x="170" y="699" type="curve" smooth="yes"/>
			<point x="120" y="699"/>
			<point x="80" y="658"/>
			<point x="80" y="609" type="curve" smooth="yes"/>
			<point x="80" y="81" type="line" smooth="yes"/>
			<point x="80" y="32"/>
			<point x="120" y="-9"/>
			<point x="170" y="-9" type="curve" smooth="yes"/>
			<point x="220" y="-9"/>
			<point x="260" y="32"/>
			<point x="260" y="81" type="curve" smooth="yes"/>
			<point x="260" y="268" type="line"/>
			<point x="536" y="268" type="line"/>
			<point x="536" y="81" type="line" smooth="yes"/>
			<point x="536" y="32"/>
			<point x="576" y="-9"/>
			<point x="626" y="-9" type="curve" smooth="yes"/>
			<point x="676" y="-9"/>
			<point x="716" y="32"/>
		</contour>
	</outline>
</glyph>
<glyph name="K" format="2">
	<advance width="743"/>
	<unicode hex="004B"/>
	<note>
		K
	</note>
	<outline>
		<contour>
			<point x="624" y="133" type="curve" smooth="yes"/>
			<point x="440" y="365" type="line"/>
			<point x="631" y="574" type="line" smooth="yes"/>
			<point x="687" y="635"/>
			<point x="669" y="690"/>
			<point x="593" y="690" type="curve" smooth="yes"/>
			<point x="544" y="690"/>
			<point x="509" y="675"/>
			<point x="477" y="637" type="curve" smooth="yes"/>
			<point x="260" y="385" type="line"/>
			<point x="260" y="609" type="line" smooth="yes"/>
			<point x="260" y="658"/>
			<point x="220" y="699"/>
			<point x="170" y="699" type="curve" smooth="yes"/>
			<point x="120" y="699"/>
			<point x="80" y="658"/>
			<point x="80" y="609" type="curve" smooth="yes"/>
			<point x="80" y="81" type="line" smooth="yes"/>
			<point x="80" y="32"/>
			<point x="120" y="-9"/>
			<point x="170" y="-9" type="curve" smooth="yes"/>
			<point x="220" y="-9"/>
			<point x="260" y="32"/>
			<point x="260" y="81" type="curve" smooth="yes"/>
			<point x="260" y="212" type="line"/>
			<point x="309" y="266" type="line"/>
			<point x="484" y="27" type="line" smooth="yes"/>
			<point x="500" y="6"/>
			<point x="526" y="-9"/>
			<point x="555" y="-9" type="curve" smooth="yes"/>
			<point x="603" y="-9"/>
			<point x="643" y="30"/>
			<point x="643" y="79" type="curve" smooth="yes"/>
			<point x="643" y="99"/>
			<point x="636" y="118"/>
		</contour>
	</outline>
</glyph>
<glyph name="M" format="2">
	<advance width="923"/>
	<unicode hex="004D"/>
	<note>
		M
	</note>
	<outline>
		<contour>
			<point x="869" y="81" type="curve" smooth="yes"/>
			<point x="869" y="595" type="line" smooth="yes"/>
			<point x="869" y="656"/>
			<point x="835" y="690"/>
			<point x="774" y="690" type="curve" smooth="yes"/>
			<point x="680" y="690" type="line" smooth="yes"/>
			<point x="623" y="690"/>
			<point x="589" y="662"/>
			<point x="576" y="607" type="curve" smooth="yes"/>
			<point x="478" y="175" type="line"/>
			<point x="380" y="607" type="line" smooth="yes"/>
			<point x="367" y="662"/>
			<point x="333" y="690"/>
			<point x="276" y="690" type="curve" smooth="yes"/>
			<point x="175" y="690" type="line" smooth="yes"/>
			<point x="114" y="690"/>
			<point x="80" y="656"/>
			<point x="80" y="595" type="curve" smooth="yes"/>
			<point x="80" y="81" type="line" smooth="yes"/>
			<point x="80" y="32"/>
			<point x="120" y="-9"/>
			<point x="170" y="-9" type="curve" smooth="yes"/>
			<point x="220" y="-9"/>
			<point x="260" y="32"/>
			<point x="260" y="81" type="curve" smooth="yes"/>
			<point x="260" y="290" type="line" smooth="yes"/>
			<point x="260" y="350"/>
			<point x="260" y="439"/>
			<point x="258" y="509" type="curve"/>
			<point x="269" y="439"/>
			<point x="289" y="350"/>
			<point x="305" y="290" type="curve" smooth="yes"/>
			<point x="361" y="78" type="line" smooth="yes"/>
			<point x="374" y="28"/>
			<point x="420" y="-9"/>
			<point x="474" y="-9" type="curve" smooth="yes"/>
			<point x="529" y="-9"/>
			<point x="575" y="27"/>
			<point x="588" y="78" type="curve" smooth="yes"/>
			<point x="643" y="290" type="line" smooth="yes"/>
			<point x="659" y="351"/>
			<point x="679" y="439"/>
			<point x="691" y="509" type="curve"/>
			<point x="689" y="439"/>
			<point x="689" y="350"/>
			<point x="689" y="290" type="curve" smooth="yes"/>
			<point x="689" y="81" type="line" smooth="yes"/>
			<point x="689" y="32"/>
			<point x="729" y="-9"/>
			<point x="779" y="-9" type="curve" smooth="yes"/>
			<point x="829" y="-9"/>
			<point x="869" y="32"/>
		</contour>
	</outline>
</glyph>
<glyph name="T" format="2">
	<advance width="632"/>
	<unicode hex="0054"/>
	<note>
		T
	</note>
	<outline>
		<contour>
			<point x="418" y="550" type="line"/>
			<point x="581" y="550" type="line" smooth="yes"/>
			<point x="619" y="550"/>
			<point x="651" y="581"/>
			<point x="651" y="620" type="curve" smooth="yes"/>
			<point x="651" y="659"/>
			<point x="619" y="690"/>
			<point x="581" y="690" type="curve" smooth="yes"/>
			<point x="75" y="690" type="line" smooth="yes"/>
			<point x="37" y="690"/>
			<point x="5" y="659"/>
			<point x="5" y="620" type="curve" smooth="yes"/>
			<point x="5" y="581"/>
			<point x="37" y="550"/>
			<point x="75" y="550" type="curve" smooth="yes"/>
			<point x="238" y="550" type="line"/>
			<point x="238" y="81" type="line" smooth="yes"/>
			<point x="238" y="32"/>
			<point x="278" y="-9"/>
			<point x="328" y="-9" type="curve" smooth="yes"/>
			<point x="378" y="-9"/>
			<point x="418" y="32"/>
			<point x="418" y="81" type="curve" smooth="yes"/>
		</contour>
	</outline>
</glyph>
<glyph name="Y" format="2">
	<advance width="663"/>
	<unicode hex="0059"/>
	<note>
		Y
	</note>
	<outline>
		<contour>
			<point x="437" y="81" type="curve" smooth="yes"/>
			<point x="437" y="264" type="line"/>
			<point x="613" y="573" type="line" smooth="yes"/>
			<point x="620" y="586"/>
			<point x="624" y="600"/>
			<point x="624" y="615" type="curve" smooth="yes"/>
			<point x="624" y="661"/>
			<point x="587" y="699"/>
			<point x="540" y="699" type="curve" smooth="yes"/>
			<point x="507" y="699"/>
			<point x="477" y="679"/>
			<point x="464" y="651" type="curve" smooth="yes"/>
			<point x="352" y="417" type="line"/>
			<point x="235" y="651" type="line" smooth="yes"/>
			<point x="221" y="680"/>
			<point x="192" y="699"/>
			<point x="158" y="699" type="curve" smooth="yes"/>
			<point x="110" y="699"/>
			<point x="71" y="660"/>
			<point x="71" y="612" type="curve" smooth="yes"/>
			<point x="71" y="597"/>
			<point x="76" y="582"/>
			<point x="83" y="570" type="curve" smooth="yes"/>
			<point x="257" y="264" type="line"/>
			<point x="257" y="81" type="line" smooth="yes"/>
			<point x="257" y="32"/>
			<point x="297" y="-9"/>
			<point x="347" y="-9" type="curve" smooth="yes"/>
			<point x="397" y="-9"/>
			<point x="437" y="32"/>
		</contour>
	</outline>
</glyph>
<glyph name="bracketright" format="2">
	<advance width="410"/>
	<unicode hex="005D"/>
	<note>
		bracketright
	</note>
	<outline>
		<contour>
			<point x="67" y="-80" type="curve" smooth="yes"/>
			<point x="206" y="-80" type="line" smooth="yes"/>
			<point x="267" y="-80"/>
			<point x="301" y="-46"/>
			<point x="301" y="15" type="curve" smooth="yes"/>
			<point x="301" y="685" type="line" smooth="yes"/>
			<point x="301" y="746"/>
			<point x="267" y="780"/>
			<point x="206" y="780" type="curve" smooth="yes"/>
			<point x="67" y="780" type="line" smooth="yes"/>
			<point x="41" y="780"/>
			<point x="19" y="759"/>
			<point x="19" y="732" type="curve" smooth="yes"/>
			<point x="19" y="705"/>
			<point x="41" y="684"/>
			<point x="67" y="684" type="curve" smooth="yes"/>
			<point x="201" y="684" type="line"/>
			<point x="201" y="16" type="line"/>
			<point x="67" y="16" type="line" smooth="yes"/>
			<point x="41" y="16"/>
			<point x="19" y="-5"/>
			<point x="19" y="-32" type="curve" smooth="yes"/>
			<point x="19" y="-59"/>
			<point x="41" y="-80"/>
		</contour>
	</outline>
</glyph>
<glyph name="asciicircum" format="2">
	<advance width="662"/>
	<unicode hex="005E"/>
	<note>
		asciicircum
	</note>
	<outline>
		<contour>
			<point x="329" y="518" type="line"/>
			<point x="436" y="239" type="line" smooth="yes"/>
			<point x="443" y="220"/>
			<point x="462" y="206"/>
			<point x="484" y="206" type="curve" smooth="yes"/>
			<point x="512" y="206"/>
			<point x="535" y="229"/>
			<point x="535" y="257" type="curve" smooth="yes"/>
			<point x="535" y="264"/>
			<point x="533" y="271"/>
			<point x="531" y="277" type="curve" smooth="yes"/>
			<point x="405" y="575" type="line" smooth="yes"/>
			<point x="393" y="604"/>
			<point x="364" y="625"/>
			<point x="330" y="625" type="curve" smooth="yes"/>
			<point x="297" y="625"/>
			<point x="268" y="605"/>
			<point x="256" y="576" type="curve" smooth="yes"/>
			<point x="129" y="275" type="line" smooth="yes"/>
			<point x="127" y="269"/>
			<point x="125" y="263"/>
			<point x="125" y="256" type="curve" smooth="yes"/>
			<point x="125" y="228"/>
			<point x="148" y="206"/>
			<point x="175" y="206" type="curve" smooth="yes"/>
			<point x="197" y="206"/>
			<point x="215" y="220"/>
			<point x="222" y="238" type="curve" smooth="yes"/>
		</contour>
	</outline>
</glyph>
<glyph name="c" format="2">
	<advance width="587"/>
	<unicode hex="0063"/>
	<note>
		c
	</note>
	<outline>
		<contour>
			<point x="305" y="548" type="curve" smooth="yes"/>
			<point x="148" y="548"/>
			<point x="24" y="445"/>
			<point x="24" y="261" type="curve" smooth="yes"/>
			<point x="24" y="85"/>
			<point x="140" y="-14"/>
			<point x="293" y="-14" type="curve" smooth="yes"/>
			<point x="385" y="-14"/>
			<point x="462" y="15"/>
			<point x="511" y="74" type="curve" smooth="yes"/>
			<point x="523" y="89"/>
			<point x="530" y="107"/>
			<point x="530" y="127" type="curve" smooth="yes"/>
			<point x="530" y="172"/>
			<point x="493" y="209"/>
			<point x="448" y="209" type="curve" smooth="yes"/>
			<point x="414" y="209"/>
			<point x="388" y="187"/>
			<point x="375" y="159" type="curve" smooth="yes"/>
			<point x="359" y="124"/>
			<point x="333" y="108"/>
			<point x="303" y="108" type="curve" smooth="yes"/>
			<point x="242" y="108"/>
			<point x="208" y="158"/>
			<point x="208" y="272" type="curve" smooth="yes"/>
			<point x="208" y="375"/>
			<point x="241" y="426"/>
			<point x="301" y="426" type="curve" smooth="yes"/>
			<point x="334" y="426"/>
			<point x="362" y="412"/>
			<point x="378" y="372" type="curve" smooth="yes"/>
			<point x="389" y="342"/>
			<point x="419" y="320"/>
			<point x="453" y="320" type="curve" smooth="yes"/>
			<point x="497" y="320"/>
			<point x="533" y="356"/>
			<point x="533" y="401" type="curve" smooth="yes"/>
			<point x="533" y="418"/>
			<point x="530" y="436"/>
			<point x="521" y="449" type="curve" smooth="yes"/>
			<point x="478" y="510"/>
			<point x="403" y="548"/>
		</contour>
	</outline>
</glyph>
<glyph name="f" format="2">
	<advance width="378"/>
	<unicode hex="0066"/>
	<note>
		f
	</note>
	<outline>
		<contour>
			<point x="257" y="574" type="curve" smooth="yes"/>
			<point x="261" y="608"/>
			<point x="286" y="627"/>
			<point x="328" y="631" type="curve" smooth="yes"/>
			<point x="359" y="634"/>
			<point x="384" y="661"/>
			<point x="384" y="693" type="curve" smooth="yes"/>
			<point x="384" y="726"/>
			<point x="357" y="752"/>
			<point x="325" y="754" type="curve" smooth="yes"/>
			<point x="314" y="754" type="line" smooth="yes"/>
			<point x="149" y="754"/>
			<point x="85" y="692"/>
			<point x="77" y="592" type="curve" smooth="yes"/>
			<point x="76" y="574"/>
			<point x="76" y="550"/>
			<point x="76" y="534" type="curve" smooth="yes"/>
			<point x="76" y="530" type="line"/>
			<point x="66" y="530" type="line" smooth="yes"/>
			<point x="35" y="530"/>
			<point x="10" y="505"/>
			<point x="10" y="474" type="curve" smooth="yes"/>
			<point x="10" y="443"/>
			<point x="35" y="418"/>
			<point x="66" y="418" type="curve" smooth="yes"/>
			<point x="76" y="418" type="line"/>
			<point x="76" y="81" type="line" smooth="yes"/>
			<point x="76" y="32"/>
			<point x="116" y="-9"/>
			<point x="166" y="-9" type="curve" smooth="yes"/>
			<point x="216" y="-9"/>
			<point x="256" y="32"/>
			<point x="256" y="81" type="curve" smooth="yes"/>
			<point x="256" y="418" type="line"/>
			<point x="311" y="418" type="line" smooth="yes"/>
			<point x="346" y="418"/>
			<point x="365" y="442"/>
			<point x="365" y="485" type="curve" smooth="yes"/>
			<point x="365" y="515"/>
			<point x="341" y="539"/>
			<point x="311" y="539" type="curve" smooth="yes"/>
			<point x="295" y="539"/>
			<point x="266" y="545"/>
			<point x="256" y="534" type="curve"/>
			<point x="256" y="547"/>
			<point x="256" y="560"/>
		</contour>
	</outline>
</glyph>
<glyph name="h" format="2">
	<advance width="644"/>
	<unicode hex="0068"/>
	<note>
		h
	</note>
	<outline>
		<contour>
			<point x="591" y="403" type="curve" smooth="yes"/>
			<point x="577" y="496"/>
			<point x="512" y="548"/>
			<point x="402" y="548" type="curve" smooth="yes"/>
			<point x="378" y="548"/>
			<point x="357" y="545"/>
			<point x="338" y="541" type="curve" smooth="yes"/>
			<point x="295" y="529"/>
			<point x="272" y="503"/>
			<point x="246" y="467" type="curve" smooth="yes"/>
			<point x="234" y="451" type="line"/>
			<point x="234" y="659" type="line" smooth="yes"/>
			<point x="234" y="708"/>
			<point x="194" y="749"/>
			<point x="144" y="749" type="curve" smooth="yes"/>
			<point x="94" y="749"/>
			<point x="54" y="708"/>
			<point x="54" y="659" type="curve" smooth="yes"/>
			<point x="54" y="81" type="line" smooth="yes"/>
			<point x="54" y="32"/>
			<point x="94" y="-9"/>
			<point x="144" y="-9" type="curve" smooth="yes"/>
			<point x="194" y="-9"/>
			<point x="234" y="32"/>
			<point x="234" y="81" type="curve" smooth="yes"/>
			<point x="234" y="252" type="line" smooth="yes"/>
			<point x="234" y="373"/>
			<point x="273" y="426"/>
			<point x="328" y="426" type="curve" smooth="yes"/>
			<point x="382" y="426"/>
			<point x="410" y="396"/>
			<point x="414" y="345" type="curve" smooth="yes"/>
			<point x="416" y="318"/>
			<point x="416" y="289"/>
			<point x="416" y="272" type="curve" smooth="yes"/>
			<point x="416" y="81" type="line" smooth="yes"/>
			<point x="416" y="32"/>
			<point x="456" y="-9"/>
			<point x="506" y="-9" type="curve" smooth="yes"/>
			<point x="556" y="-9"/>
			<point x="596" y="32"/>
			<point x="596" y="81" type="curve" smooth="yes"/>
			<point x="596" y="302" type="line" smooth="yes"/>
			<point x="596" y="345"/>
			<point x="595" y="376"/>
		</contour>
	</outline>
</glyph>
<glyph name="i" format="2">
	<advance width="288"/>
	<unicode hex="0069"/>
	<note>
		i
	</note>
	<outline>
		<contour>
			<point x="234" y="32"/>
			<point x="234" y="81" type="curve" smooth="yes"/>
			<point x="234" y="453" type="line" smooth="yes"/>
			<point x="234" y="502"/>
			<point x="194" y="543"/>
			<point x="144" y="543" type="curve" smooth="yes"/>
			<point x="94" y="543"/>
			<point x="54" y="502"/>
			<point x="54" y="453" type="curve" smooth="yes"/>
			<point x="54" y="81" type="line" smooth="yes"/>
			<point x="54" y="32"/>
			<point x="94" y="-9"/>
			<point x="144" y="-9" type="curve" smooth="yes"/>
			<point x="194" y="-9"/>
		</contour>
		<contour>
			<point x="84" y="572"/>
			<point x="132" y="572" type="curve" smooth="yes"/>
			<point x="157" y="572" type="line" smooth="yes"/>
			<point x="205" y="572"/>
			<point x="245" y="611"/>
			<point x="245" y="660" type="curve" smooth="yes"/>
			<point x="245" y="709"/>
			<point x="205" y="748"/>
			<point x="157" y="748" type="curve" smooth="yes"/>
			<point x="132" y="748" type="line" smooth="yes"/>
			<point x="84" y="748"/>
			<point x="44" y="709"/>
			<point x="44" y="660" type="curve" smooth="yes"/>
			<point x="44" y="611"/>
		</contour>
	</outline>
</glyph>
<glyph name="j" format="2">
	<advance width="282"/>
	<unicode hex="006A"/>
	<note>
		j
	</note>
	<outline>
		<contour>
			<point x="232" y="16" type="curve" smooth="yes"/>
			<point x="232" y="453" type="line" smooth="yes"/>
			<point x="232" y="502"/>
			<point x="192" y="543"/>
			<point x="142" y="543" type="curve" smooth="yes"/>
			<point x="92" y="543"/>
			<point x="52" y="502"/>
			<point x="52" y="453" type="curve" smooth="yes"/>
			<point x="52" y="15" type="line" smooth="yes"/>
			<point x="52" y="0"/>
			<point x="51" y="-19"/>
			<point x="50" y="-33" type="curve" smooth="yes"/>
			<point x="46" y="-66"/>
			<point x="31" y="-81"/>
			<point x="-4" y="-85" type="curve" smooth="yes"/>
			<point x="-35" y="-89"/>
			<point x="-59" y="-115"/>
			<point x="-59" y="-148" type="curve" smooth="yes"/>
			<point x="-59" y="-182"/>
			<point x="-31" y="-210"/>
			<point x="3" y="-210" type="curve" smooth="yes"/>
			<point x="10" y="-210" type="line" smooth="yes"/>
			<point x="165" y="-210"/>
			<point x="223" y="-148"/>
			<point x="230" y="-48" type="curve" smooth="yes"/>
			<point x="231" y="-30"/>
			<point x="232" y="-4"/>
		</contour>
		<contour>
			<point x="83" y="575"/>
			<point x="131" y="575" type="curve" smooth="yes"/>
			<point x="158" y="575" type="line" smooth="yes"/>
			<point x="203" y="575"/>
			<point x="241" y="612"/>
			<point x="241" y="658" type="curve" smooth="yes"/>
			<point x="241" y="668"/>
			<point x="239" y="678"/>
			<point x="236" y="686" type="curve" smooth="yes"/>
			<point x="221" y="727"/>
			<point x="185" y="759"/>
			<point x="140" y="759" type="curve" smooth="yes"/>
			<point x="124" y="759"/>
			<point x="110" y="754"/>
			<point x="97" y="747" type="curve" smooth="yes"/>
			<point x="65" y="730"/>
			<point x="43" y="699"/>
			<point x="43" y="663" type="curve" smooth="yes"/>
			<point x="43" y="614"/>
		</contour>
	</outline>
</glyph>
<glyph name="k" format="2">
	<advance width="632"/>
	<unicode hex="006B"/>
	<note>
		k
	</note>
	<outline>
		<contour>
			<point x="234" y="156" type="line"/>
			<point x="272" y="198" type="line"/>
			<point x="396" y="27" type="line" smooth="yes"/>
			<point x="411" y="6"/>
			<point x="437" y="-9"/>
			<point x="465" y="-9" type="curve" smooth="yes"/>
			<point x="513" y="-9"/>
			<point x="551" y="29"/>
			<point x="551" y="77" type="curve" smooth="yes"/>
			<point x="551" y="97"/>
			<point x="544" y="116"/>
			<point x="533" y="130" type="curve" smooth="yes"/>
			<point x="407" y="289" type="line"/>
			<point x="526" y="418" type="line" smooth="yes"/>
			<point x="582" y="479"/>
			<point x="566" y="534"/>
			<point x="493" y="534" type="curve" smooth="yes"/>
			<point x="444" y="534"/>
			<point x="409" y="518"/>
			<point x="377" y="480" type="curve" smooth="yes"/>
			<point x="234" y="310" type="line"/>
			<point x="234" y="654" type="line" smooth="yes"/>
			<point x="234" y="703"/>
			<point x="194" y="744"/>
			<point x="144" y="744" type="curve" smooth="yes"/>
			<point x="94" y="744"/>
			<point x="54" y="703"/>
			<point x="54" y="654" type="curve" smooth="yes"/>
			<point x="54" y="81" type="line" smooth="yes"/>
			<point x="54" y="32"/>
			<point x="94" y="-9"/>
			<point x="144" y="-9" type="curve" smooth="yes"/>
			<point x="194" y="-9"/>
			<point x="234" y="32"/>
			<point x="234" y="81" type="curve" smooth="yes"/>
		</contour>
	</outline>
</glyph>
<glyph name="m" format="2">
	<advance width="966"/>
	<unicode hex="006D"/>
	<note>
		m
	</note>
	<outline>
		<contour>
			<point x="913" y="413" type="curve" smooth="yes"/>
			<point x="901" y="486"/>
			<point x="841" y="548"/>
			<point x="734" y="548" type="curve" smooth="yes"/>
			<point x="711" y="548"/>
			<point x="692" y="546"/>
			<point x="674" y="541" type="curve" smooth="yes"/>
			<point x="631" y="530"/>
			<point x="609" y="505"/>
			<point x="582" y="469" type="curve" smooth="yes"/>
			<point x="563" y="444" type="line"/>
			<point x="540" y="503"/>
			<point x="483" y="548"/>
			<point x="392" y="548" type="curve" smooth="yes"/>
			<point x="359" y="548"/>
			<point x="334" y="543"/>
			<point x="308" y="535" type="curve" smooth="yes"/>
			<point x="270" y="523"/>
			<point x="241" y="493"/>
			<point x="234" y="453" type="curve"/>
			<point x="234" y="502"/>
			<point x="194" y="543"/>
			<point x="144" y="543" type="curve" smooth="yes"/>
			<point x="94" y="543"/>
			<point x="54" y="502"/>
			<point x="54" y="453" type="curve" smooth="yes"/>
			<point x="54" y="81" type="line" smooth="yes"/>
			<point x="54" y="32"/>
			<point x="94" y="-9"/>
			<point x="144" y="-9" type="curve" smooth="yes"/>
			<point x="194" y="-9"/>
			<point x="234" y="32"/>
			<point x="234" y="81" type="curve" smooth="yes"/>
			<point x="234" y="282" type="line" smooth="yes"/>
			<point x="234" y="373"/>
			<point x="257" y="426"/>
			<point x="315" y="426" type="curve" smooth="yes"/>
			<point x="362" y="426"/>
			<point x="386" y="396"/>
			<point x="392" y="345" type="curve" smooth="yes"/>
			<point x="395" y="318"/>
			<point x="396" y="289"/>
			<point x="396" y="272" type="curve" smooth="yes"/>
			<point x="396" y="81" type="line" smooth="yes"/>
			<point x="396" y="32"/>
			<point x="436" y="-9"/>
			<point x="486" y="-9" type="curve" smooth="yes"/>
			<point x="536" y="-9"/>
			<point x="576" y="32"/>
			<point x="576" y="81" type="curve" smooth="yes"/>
			<point x="576" y="282" type="line" smooth="yes"/>
			<point x="576" y="373"/>
			<point x="599" y="426"/>
			<point x="657" y="426" type="curve" smooth="yes"/>
			<point x="704" y="426"/>
			<point x="728" y="396"/>
			<point x="734" y="345" type="curve" smooth="yes"/>
			<point x="737" y="318"/>
			<point x="738" y="289"/>
			<point x="738" y="272" type="curve" smooth="yes"/>
			<point x="738" y="81" type="line" smooth="yes"/>
			<point x="738" y="32"/>
			<point x="778" y="-9"/>
			<point x="828" y="-9" type="curve" smooth="yes"/>
			<point x="878" y="-9"/>
			<point x="918" y="32"/>
			<point x="918" y="81" type="curve" smooth="yes"/>
			<point x="918" y="312" type="line" smooth="yes"/>
			<point x="918" y="355"/>
			<point x="917" y="386"/>
		</contour>
	</outline>
</glyph>
<glyph name="n" format="2">
	<advance width="644"/>
	<unicode hex="006E"/>
	<note>
		n
	</note>
	<outline>
		<contour>
			<point x="591" y="403" type="curve" smooth="yes"/>
			<point x="577" y="496"/>
			<point x="512" y="548"/>
			<point x="402" y="548" type="curve" smooth="yes"/>
			<point x="368" y="548"/>
			<point x="339" y="543"/>
			<point x="311" y="534" type="curve" smooth="yes"/>
			<point x="273" y="523"/>
			<point x="242" y="493"/>
			<point x="234" y="453" type="curve"/>
			<point x="234" y="502"/>
			<point x="194" y="543"/>
			<point x="144" y="543" type="curve" smooth="yes"/>
			<point x="94" y="543"/>
			<point x="54" y="502"/>
			<point x="54" y="453" type="curve" smooth="yes"/>
			<point x="54" y="81" type="line" smooth="yes"/>
			<point x="54" y="32"/>
			<point x="94" y="-9"/>
			<point x="144" y="-9" type="curve" smooth="yes"/>
			<point x="194" y="-9"/>
			<point x="234" y="32"/>
			<point x="234" y="81" type="curve" smooth="yes"/>
			<point x="234" y="252" type="line" smooth="yes"/>
			<point x="234" y="373"/>
			<point x="273" y="426"/>
			<point x="328" y="426" type="curve" smooth="yes"/>
			<point x="382" y="426"/>
			<point x="410" y="396"/>
			<point x="414" y="345" type="curve" smooth="yes"/>
			<point x="416" y="318"/>
			<point x="416" y="289"/>
			<point x="416" y="272" type="curve" smooth="yes"/>
			<point x="416" y="81" type="line" smooth="yes"/>
			<point x="416" y="32"/>
			<point x="456" y="-9"/>
			<point x="506" y="-9" type="curve" smooth="yes"/>
			<point x="556" y="-9"/>
			<point x="596" y="32"/>
			<point x="596" y="81" type="curve" smooth="yes"/>
			<point x="596" y="302" type="line" smooth="yes"/>
			<point x="596" y="345"/>
			<point x="595" y="376"/>
		</contour>
	</outline>
</glyph>
<glyph name="q" format="2">
	<advance width="669"/>
	<unicode hex="0071"/>
	<note>
		q
	</note>
	<outline>
		<contour>
			<point x="615" y="-115" type="curve" smooth="yes"/>
			<point x="615" y="453" type="line" smooth="yes"/>
			<point x="615" y="502"/>
			<point x="575" y="543"/>
			<point x="525" y="543" type="curve" smooth="yes"/>
			<point x="479" y="543"/>
			<point x="441" y="509"/>
			<point x="435" y="465" type="curve"/>
			<point x="418" y="494" type="line" smooth="yes"/>
			<point x="406" y="514"/>
			<point x="385" y="533"/>
			<point x="339" y="542" type="curve" smooth="yes"/>
			<point x="319" y="546"/>
			<point x="297" y="548"/>
			<point x="277" y="548" type="curve" smooth="yes"/>
			<point x="140" y="548"/>
			<point x="24" y="445"/>
			<point x="24" y="255" type="curve" smooth="yes"/>
			<point x="24" y="97"/>
			<point x="114" y="-14"/>
			<point x="259" y="-14" type="curve" smooth="yes"/>
			<point x="287" y="-14"/>
			<point x="315" y="-11"/>
			<point x="340" y="-5" type="curve" smooth="yes"/>
			<point x="383" y="6"/>
			<point x="404" y="33"/>
			<point x="429" y="70" type="curve" smooth="yes"/>
			<point x="435" y="78" type="line"/>
			<point x="435" y="-115" type="line" smooth="yes"/>
			<point x="435" y="-164"/>
			<point x="475" y="-205"/>
			<point x="525" y="-205" type="curve" smooth="yes"/>
			<point x="575" y="-205"/>
			<point x="615" y="-164"/>
		</contour>
		<contour>
			<point x="321" y="108" type="curve" smooth="yes"/>
			<point x="258" y="108"/>
			<point x="208" y="164"/>
			<point x="208" y="264" type="curve" smooth="yes"/>
			<point x="208" y="373"/>
			<point x="256" y="426"/>
			<point x="326" y="426" type="curve" smooth="yes"/>
			<point x="380" y="426"/>
			<point x="435" y="390"/>
			<point x="435" y="283" type="curve" smooth="yes"/>
			<point x="435" y="260" type="line" smooth="yes"/>
			<point x="435" y="148"/>
			<point x="387" y="108"/>
		</contour>
	</outline>
</glyph>
<glyph name="w" format="2">
	<advance width="868"/>
	<unicode hex="0077"/>
	<note>
		w
	</note>
	<outline>
		<contour>
			<point x="732" y="79" type="curve" smooth="yes"/>
			<point x="842" y="428" type="line" smooth="yes"/>
			<point x="845" y="437"/>
			<point x="846" y="445"/>
			<point x="846" y="454" type="curve" smooth="yes"/>
			<point x="846" y="503"/>
			<point x="807" y="543"/>
			<point x="758" y="543" type="curve" smooth="yes"/>
			<point x="714" y="543"/>
			<point x="678" y="511"/>
			<point x="671" y="470" type="curve" smooth="yes"/>
			<point x="614" y="151" type="line"/>
			<point x="563" y="436" type="line" smooth="yes"/>
			<point x="553" y="495"/>
			<point x="501" y="539"/>
			<point x="439" y="539" type="curve" smooth="yes"/>
			<point x="377" y="539"/>
			<point x="326" y="495"/>
			<point x="316" y="435" type="curve" smooth="yes"/>
			<point x="268" y="152" type="line"/>
			<point x="210" y="469" type="line" smooth="yes"/>
			<point x="202" y="512"/>
			<point x="165" y="543"/>
			<point x="121" y="543" type="curve" smooth="yes"/>
			<point x="71" y="543"/>
			<point x="30" y="502"/>
			<point x="30" y="452" type="curve" smooth="yes"/>
			<point x="30" y="443"/>
			<point x="31" y="433"/>
			<point x="34" y="425" type="curve" smooth="yes"/>
			<point x="144" y="79" type="line" smooth="yes"/>
			<point x="160" y="28"/>
			<point x="208" y="-9"/>
			<point x="264" y="-9" type="curve" smooth="yes"/>
			<point x="326" y="-9"/>
			<point x="377" y="34"/>
			<point x="388" y="93" type="curve" smooth="yes"/>
			<point x="438" y="360" type="line"/>
			<point x="488" y="93" type="line" smooth="yes"/>
			<point x="499" y="34"/>
			<point x="550" y="-9"/>
			<point x="612" y="-9" type="curve" smooth="yes"/>
			<point x="668" y="-9"/>
			<point x="716" y="28"/>
		</contour>
	</outline>
</glyph>
<glyph name="y" format="2">
	<advance width="608"/>
	<unicode hex="0079"/>
	<note>
		y
	</note>
	<outline>
		<contour>
			<point x="405" y="0" type="curve" smooth="yes"/>
			<point x="572" y="422" type="line" smooth="yes"/>
			<point x="576" y="432"/>
			<point x="578" y="443"/>
			<point x="578" y="454" type="curve" smooth="yes"/>
			<point x="578" y="503"/>
			<point x="538" y="543"/>
			<point x="489" y="543" type="curve" smooth="yes"/>
			<point x="448" y="543"/>
			<point x="413" y="515"/>
			<point x="403" y="478" type="curve" smooth="yes"/>
			<point x="310" y="143" type="line"/>
			<point x="216" y="477" type="line" smooth="yes"/>
			<point x="205" y="515"/>
			<point x="170" y="543"/>
			<point x="129" y="543" type="curve" smooth="yes"/>
			<point x="79" y="543"/>
			<point x="39" y="503"/>
			<point x="39" y="453" type="curve" smooth="yes"/>
			<point x="39" y="441"/>
			<point x="41" y="431"/>
			<point x="45" y="420" type="curve" smooth="yes"/>
			<point x="221" y="-24" type="line"/>
			<point x="214" y="-39" type="line" smooth="yes"/>
			<point x="197" y="-77"/>
			<point x="168" y="-91"/>
			<point x="126" y="-91" type="curve" smooth="yes"/>
			<point x="94" y="-92"/>
			<point x="68" y="-118"/>
			<point x="68" y="-150" type="curve" smooth="yes"/>
			<point x="68" y="-182"/>
			<point x="94" y="-209"/>
			<point x="125" y="-210" type="curve" smooth="yes"/>
			<point x="153" y="-210" type="line" smooth="yes"/>
			<point x="280" y="-210"/>
			<point x="338" y="-169"/>
		</contour>
	</outline>
</glyph>
<glyph name="z" format="2">
	<advance width="526"/>
	<unicode hex="007A"/>
	<note>
		z
	</note>
	<outline>
		<contour>
			<point x="481" y="112"/>
			<point x="450" y="112" type="curve" smooth="yes"/>
			<point x="227" y="112" type="line"/>
			<point x="485" y="410" type="line" smooth="yes"/>
			<point x="496" y="422"/>
			<point x="503" y="439"/>
			<point x="503" y="457" type="curve" smooth="yes"/>
			<point x="503" y="498"/>
			<point x="470" y="530"/>
			<point x="430" y="530" type="curve" smooth="yes"/>
			<point x="96" y="530" type="line" smooth="yes"/>
			<point x="65" y="530"/>
			<point x="40" y="505"/>
			<point x="40" y="474" type="curve" smooth="yes"/>
			<point x="40" y="443"/>
			<point x="65" y="418"/>
			<point x="96" y="418" type="curve" smooth="yes"/>
			<point x="304" y="418" type="line"/>
			<point x="42" y="114" type="line" smooth="yes"/>
			<point x="32" y="102"/>
			<point x="25" y="86"/>
			<point x="25" y="69" type="curve" smooth="yes"/>
			<point x="25" y="31"/>
			<point x="56" y="0"/>
			<point x="94" y="0" type="curve" smooth="yes"/>
			<point x="450" y="0" type="line" smooth="yes"/>
			<point x="481" y="0"/>
			<point x="506" y="25"/>
			<point x="506" y="56" type="curve" smooth="yes"/>
			<point x="506" y="87"/>
		</contour>
	</outline>
</glyph>
<glyph name="bar" format="2">
	<advance width="312"/>
	<unicode hex="007C"/>
	<note>
		bar
	</note>
	<outline>
		<contour>
			<point x="214" y="-183"/>
			<point x="214" y="-151" type="curve" smooth="yes"/>
			<point x="214" y="751" type="line" smooth="yes"/>
			<point x="214" y="783"/>
			<point x="188" y="809"/>
			<point x="156" y="809" type="curve" smooth="yes"/>
			<point x="124" y="809"/>
			<point x="98" y="783"/>
			<point x="98" y="751" type="curve" smooth="yes"/>
			<point x="98" y="-151" type="line" smooth="yes"/>
			<point x="98" y="-183"/>
			<point x="124" y="-209"/>
			<point x="156" y="-209" type="curve" smooth="yes"/>
			<point x="188" y="-209"/>
		</contour>
	</outline>
</glyph>
<glyph name="braceright" format="2">
	<advance width="430"/>
	<unicode hex="007D"/>
	<note>
		braceright
	</note>
	<outline>
		<contour>
			<point x="308" y="398"/>
			<point x="284" y="404" type="curve" smooth="yes"/>
			<point x="243" y="414"/>
			<point x="235" y="435"/>
			<point x="235" y="455" type="curve" smooth="yes"/>
			<point x="235" y="478"/>
			<point x="238" y="505"/>
			<point x="244" y="545" type="curve" smooth="yes"/>
			<point x="252" y="597"/>
			<point x="256" y="630"/>
			<point x="256" y="664" type="curve" smooth="yes"/>
			<point x="256" y="743"/>
			<point x="221" y="780"/>
			<point x="121" y="780" type="curve" smooth="yes"/>
			<point x="109" y="780" type="line" smooth="yes"/>
			<point x="83" y="780"/>
			<point x="61" y="759"/>
			<point x="61" y="732" type="curve" smooth="yes"/>
			<point x="61" y="722"/>
			<point x="64" y="712"/>
			<point x="69" y="703" type="curve" smooth="yes"/>
			<point x="81" y="685"/>
			<point x="127" y="707"/>
			<point x="151" y="669" type="curve" smooth="yes"/>
			<point x="155" y="663"/>
			<point x="156" y="655"/>
			<point x="156" y="644" type="curve" smooth="yes"/>
			<point x="156" y="630"/>
			<point x="154" y="609"/>
			<point x="146" y="555" type="curve" smooth="yes"/>
			<point x="139" y="510"/>
			<point x="135" y="468"/>
			<point x="135" y="452" type="curve" smooth="yes"/>
			<point x="135" y="397"/>
			<point x="162" y="361"/>
			<point x="220" y="347" type="curve"/>
			<point x="162" y="335"/>
			<point x="135" y="303"/>
			<point x="135" y="248" type="curve" smooth="yes"/>
			<point x="135" y="232"/>
			<point x="139" y="190"/>
			<point x="146" y="145" type="curve" smooth="yes"/>
			<point x="154" y="91"/>
			<point x="156" y="70"/>
			<point x="156" y="56" type="curve" smooth="yes"/>
			<point x="156" y="36"/>
			<point x="151" y="26"/>
			<point x="137" y="21" type="curve" smooth="yes"/>
			<point x="106" y="9"/>
			<point x="60" y="5"/>
			<point x="58" y="-30" type="curve" smooth="yes"/>
			<point x="58" y="-30"/>
			<point x="58" y="-31"/>
			<point x="58" y="-32" type="curve" smooth="yes"/>
			<point x="58" y="-60"/>
			<point x="81" y="-80"/>
			<point x="109" y="-80" type="curve" smooth="yes"/>
			<point x="121" y="-80" type="line" smooth="yes"/>
			<point x="221" y="-80"/>
			<point x="256" y="-43"/>
			<point x="256" y="36" type="curve" smooth="yes"/>
			<point x="256" y="70"/>
			<point x="252" y="103"/>
			<point x="244" y="155" type="curve" smooth="yes"/>
			<point x="238" y="195"/>
			<point x="235" y="222"/>
			<point x="235" y="245" type="curve" smooth="yes"/>
			<point x="235" y="265"/>
			<point x="243" y="286"/>
			<point x="284" y="296" type="curve" smooth="yes"/>
			<point x="308" y="302"/>
			<point x="326" y="324"/>
			<point x="326" y="350" type="curve" smooth="yes"/>
			<point x="326" y="376"/>
		</contour>
	</outline>
</glyph>
<glyph name="sterling" format="2">
	<advance width="662"/>
	<unicode hex="00A3"/>
	<note>
		sterling
	</note>
	<outline>
		<contour>
			<point x="577" y="140"/>
			<point x="539" y="140" type="curve" smooth="yes"/>
			<point x="268" y="140" type="line"/>
			<point x="317" y="164"/>
			<point x="344" y="206"/>
			<point x="344" y="251" type="curve" smooth="yes"/>
			<point x="344" y="265"/>
			<point x="343" y="276"/>
			<point x="341" y="289" type="curve"/>
			<point x="470" y="289" type="line" smooth="yes"/>
			<point x="494" y="289"/>
			<point x="514" y="309"/>
			<point x="514" y="333" type="curve" smooth="yes"/>
			<point x="514" y="357"/>
			<point x="494" y="377"/>
			<point x="470" y="377" type="curve" smooth="yes"/>
			<point x="311" y="377" type="line"/>
			<point x="288" y="434"/>
			<point x="282" y="462"/>
			<point x="282" y="500" type="curve" smooth="yes"/>
			<point x="282" y="541"/>
			<point x="307" y="572"/>
			<point x="344" y="572" type="curve" smooth="yes"/>
			<point x="373" y="572"/>
			<point x="392" y="557"/>
			<point x="403" y="532" type="curve" smooth="yes"/>
			<point x="416" y="502"/>
			<point x="445" y="482"/>
			<point x="479" y="482" type="curve" smooth="yes"/>
			<point x="525" y="482"/>
			<point x="562" y="520"/>
			<point x="562" y="565" type="curve" smooth="yes"/>
			<point x="562" y="584"/>
			<point x="558" y="603"/>
			<point x="548" y="617" type="curve" smooth="yes"/>
			<point x="509" y="669"/>
			<point x="443" y="704"/>
			<point x="344" y="704" type="curve" smooth="yes"/>
			<point x="195" y="704"/>
			<point x="94" y="624"/>
			<point x="94" y="488" type="curve" smooth="yes"/>
			<point x="94" y="444"/>
			<point x="101" y="415"/>
			<point x="116" y="377" type="curve"/>
			<point x="106" y="377" type="line" smooth="yes"/>
			<point x="82" y="377"/>
			<point x="62" y="357"/>
			<point x="62" y="333" type="curve" smooth="yes"/>
			<point x="62" y="309"/>
			<point x="82" y="289"/>
			<point x="106" y="289" type="curve" smooth="yes"/>
			<point x="153" y="289" type="line"/>
			<point x="160" y="266"/>
			<point x="162" y="247"/>
			<point x="162" y="230" type="curve" smooth="yes"/>
			<point x="162" y="188"/>
			<point x="146" y="154"/>
			<point x="97" y="135" type="curve" smooth="yes"/>
			<point x="71" y="125"/>
			<point x="52" y="100"/>
			<point x="52" y="70" type="curve" smooth="yes"/>
			<point x="52" y="31"/>
			<point x="85" y="0"/>
			<point x="123" y="0" type="curve" smooth="yes"/>
			<point x="539" y="0" type="line" smooth="yes"/>
			<point x="577" y="0"/>
			<point x="609" y="31"/>
			<point x="609" y="70" type="curve" smooth="yes"/>
			<point x="609" y="109"/>
		</contour>
	</outline>
</glyph>
<glyph name="currency" format="2">
	<advance width="662"/>
	<unicode hex="00A4"/>
	<note>
		currency
	</note>
	<outline>
		<contour>
			<point x="511" y="301" type="curve" smooth="yes"/>
			<point x="511" y="336"/>
			<point x="501" y="369"/>
			<point x="484" y="396" type="curve"/>
			<point x="514" y="426" type="line" smooth="yes"/>
			<point x="522" y="434"/>
			<point x="526" y="443"/>
			<point x="526" y="454" type="curve" smooth="yes"/>
			<point x="526" y="477"/>
			<point x="508" y="495"/>
			<point x="485" y="495" type="curve" smooth="yes"/>
			<point x="474" y="495"/>
			<point x="464" y="490"/>
			<point x="457" y="483" type="curve" smooth="yes"/>
			<point x="427" y="453" type="line"/>
			<point x="400" y="471"/>
			<point x="367" y="481"/>
			<point x="331" y="481" type="curve" smooth="yes"/>
			<point x="295" y="481"/>
			<point x="262" y="471"/>
			<point x="235" y="453" type="curve"/>
			<point x="205" y="483" type="line" smooth="yes"/>
			<point x="198" y="490"/>
			<point x="188" y="495"/>
			<point x="177" y="495" type="curve" smooth="yes"/>
			<point x="154" y="495"/>
			<point x="136" y="477"/>
			<point x="136" y="454" type="curve" smooth="yes"/>
			<point x="136" y="443"/>
			<point x="140" y="434"/>
			<point x="148" y="426" type="curve" smooth="yes"/>
			<point x="178" y="396" type="line"/>
			<point x="161" y="369"/>
			<point x="151" y="336"/>
			<point x="151" y="301" type="curve" smooth="yes"/>
			<point x="151" y="266"/>
			<point x="161" y="233"/>
			<point x="178" y="206" type="curve"/>
			<point x="148" y="176" type="line" smooth="yes"/>
			<point x="141" y="169"/>
			<point x="136" y="159"/>
			<point x="136" y="148" type="curve" smooth="yes"/>
			<point x="136" y="125"/>
			<point x="154" y="107"/>
			<point x="177" y="107" type="curve" smooth="yes"/>
			<point x="188" y="107"/>
			<point x="197" y="111"/>
			<point x="205" y="119" type="curve" smooth="yes"/>
			<point x="235" y="149" type="line"/>
			<point x="262" y="131"/>
			<point x="295" y="121"/>
			<point x="331" y="121" type="curve" smooth="yes"/>
			<point x="367" y="121"/>
			<point x="400" y="131"/>
			<point x="427" y="149" type="curve"/>
			<point x="457" y="119" type="line" smooth="yes"/>
			<point x="464" y="112"/>
			<point x="474" y="107"/>
			<point x="485" y="107" type="curve" smooth="yes"/>
			<point x="508" y="107"/>
			<point x="526" y="125"/>
			<point x="526" y="148" type="curve" smooth="yes"/>
			<point x="526" y="159"/>
			<point x="521" y="169"/>
			<point x="514" y="176" type="curve" smooth="yes"/>
			<point x="484" y="206" type="line"/>
			<point x="501" y="233"/>
			<point x="511" y="266"/>
		</contour>
		<contour>
			<point x="331" y="215" type="curve" smooth="yes"/>
			<point x="285" y="215"/>
			<point x="255" y="249"/>
			<point x="255" y="301" type="curve" smooth="yes"/>
			<point x="255" y="353"/>
			<point x="285" y="387"/>
			<point x="331" y="387" type="curve" smooth="yes"/>
			<point x="377" y="387"/>
			<point x="407" y="353"/>
			<point x="407" y="301" type="curve" smooth="yes"/>
			<point x="407" y="249"/>
			<point x="377" y="215"/>
		</contour>
	</outline>
</glyph>
<glyph name="dieresis" format="2">
	<advance width="300"/>
	<unicode hex="00A8"/>
	<note>
		dieresis
	</note>
	<outline>
		<contour>
			<point x="0" y="569"/>
			<point x="40" y="569" type="curve" smooth="yes"/>
			<point x="62" y="569" type="line" smooth="yes"/>
			<point x="101" y="569"/>
			<point x="134" y="601"/>
			<point x="134" y="641" type="curve" smooth="yes"/>
			<point x="134" y="651"/>
			<point x="132" y="661"/>
			<point x="128" y="669" type="curve" smooth="yes"/>
			<point x="114" y="701"/>
			<point x="85" y="725"/>
			<point x="50" y="725" type="curve" smooth="yes"/>
			<point x="38" y="725"/>
			<point x="27" y="722"/>
			<point x="17" y="717" type="curve" smooth="yes"/>
			<point x="-12" y="703"/>
			<point x="-34" y="675"/>
			<point x="-34" y="643" type="curve" smooth="yes"/>
			<point x="-34" y="602"/>
		</contour>
		<contour>
			<point x="326" y="594"/>
			<point x="326" y="635" type="curve" smooth="yes"/>
			<point x="326" y="648" type="line" smooth="yes"/>
			<point x="326" y="690"/>
			<point x="292" y="725"/>
			<point x="249" y="725" type="curve" smooth="yes"/>
			<point x="235" y="725"/>
			<point x="223" y="721"/>
			<point x="211" y="714" type="curve" smooth="yes"/>
			<point x="186" y="700"/>
			<point x="167" y="674"/>
			<point x="167" y="644" type="curve" smooth="yes"/>
			<point x="167" y="634"/>
			<point x="169" y="624"/>
			<point x="173" y="616" type="curve" smooth="yes"/>
			<point x="187" y="584"/>
			<point x="216" y="560"/>
			<point x="251" y="560" type="curve" smooth="yes"/>
			<point x="292" y="560"/>
		</contour>
	</outline>
</glyph>
<glyph name="copyright" format="2">
	<advance width="860"/>
	<unicode hex="00A9"/>
	<note>
		copyright
	</note>
	<outline>
		<contour>
			<point x="430" y="759" type="curve" smooth="yes"/>
			<point x="188" y="759"/>
			<point x="16" y="592"/>
			<point x="16" y="355" type="curve" smooth="yes"/>
			<point x="16" y="118"/>
			<point x="188" y="-49"/>
			<point x="430" y="-49" type="curve" smooth="yes"/>
			<point x="672" y="-49"/>
			<point x="844" y="118"/>
			<point x="844" y="355" type="curve" smooth="yes"/>
			<point x="844" y="592"/>
			<point x="672" y="759"/>
		</contour>
		<contour>
			<point x="430" y="663" type="curve" smooth="yes"/>
			<point x="609" y="663"/>
			<point x="736" y="535"/>
			<point x="736" y="355" type="curve" smooth="yes"/>
			<point x="736" y="176"/>
			<point x="609" y="49"/>
			<point x="430" y="49" type="curve" smooth="yes"/>
			<point x="251" y="49"/>
			<point x="124" y="176"/>
			<point x="124" y="355" type="curve" smooth="yes"/>
			<point x="124" y="535"/>
			<point x="251" y="663"/>
		</contour>
		<contour>
			<point x="439" y="582" type="curve" smooth="yes"/>
			<point x="300" y="582"/>
			<point x="209" y="491"/>
			<point x="209" y="355" type="curve" smooth="yes"/>
			<point x="209" y="211"/>
			<point x="300" y="126"/>
			<point x="432" y="126" type="curve" smooth="yes"/>
			<point x="522" y="126"/>
			<point x="583" y="161"/>
			<point x="618" y="223" type="curve" smooth="yes"/>
			<point x="623" y="233"/>
			<point x="627" y="245"/>
			<point x="627" y="257" type="curve" smooth="yes"/>
			<point x="627" y="294"/>
			<point x="596" y="325"/>
			<point x="559" y="325" type="curve" smooth="yes"/>
			<point x="528" y="325"/>
			<point x="503" y="303"/>
			<point x="495" y="276" type="curve" smooth="yes"/>
			<point x="484" y="241"/>
			<point x="461" y="228"/>
			<point x="437" y="228" type="curve" smooth="yes"/>
			<point x="390" y="228"/>
			<point x="363" y="266"/>
			<point x="363" y="356" type="curve" smooth="yes"/>
			<point x="363" y="434"/>
			<point x="381" y="480"/>
			<point x="433" y="480" type="curve" smooth="yes"/>
			<point x="464" y="480"/>
			<point x="484" y="464"/>
			<point x="495" y="432" type="curve" smooth="yes"/>
			<point x="504" y="405"/>
			<point x="530" y="384"/>
			<point x="560" y="384" type="curve" smooth="yes"/>
			<point x="598" y="384"/>
			<point x="629" y="415"/>
			<point x="629" y="453" type="curve" smooth="yes"/>
			<point x="629" y="465"/>
			<point x="627" y="477"/>
			<point x="622" y="487" type="curve" smooth="yes"/>
			<point x="588" y="547"/>
			<point x="527" y="582"/>
		</contour>
	</outline>
</glyph>
<glyph name="guillemotleft" format="2">
	<advance width="697"/>
	<unicode hex="00AB"/>
	<note>
		guillemotleft
	</note>
	<outline>
		<contour>
			<point x="276" y="248" type="line"/>
			<point x="317" y="298" type="line" smooth="yes"/>
			<point x="369" y="360"/>
			<point x="382" y="414"/>
			<point x="347" y="414" type="curve" smooth="yes"/>
			<point x="260" y="414"/>
			<point x="188" y="343"/>
			<point x="188" y="255" type="curve" smooth="yes"/>
			<point x="188" y="217"/>
			<point x="202" y="182"/>
			<point x="225" y="154" type="curve" smooth="yes"/>
			<point x="277" y="91" type="line" smooth="yes"/>
			<point x="286" y="80"/>
			<point x="299" y="73"/>
			<point x="315" y="73" type="curve" smooth="yes"/>
			<point x="342" y="73"/>
			<point x="365" y="95"/>
			<point x="365" y="123" type="curve" smooth="yes"/>
			<point x="365" y="135"/>
			<point x="360" y="146"/>
			<point x="353" y="154" type="curve" smooth="yes"/>
		</contour>
		<contour>
			<point x="516" y="248" type="line"/>
			<point x="557" y="298" type="line" smooth="yes"/>
			<point x="609" y="360"/>
			<point x="622" y="414"/>
			<point x="587" y="414" type="curve" smooth="yes"/>
			<point x="500" y="414"/>
			<point x="428" y="343"/>
			<point x="428" y="255" type="curve" smooth="yes"/>
			<point x="428" y="217"/>
			<point x="442" y="182"/>
			<point x="465" y="154" type="curve" smooth="yes"/>
			<point x="517" y="91" type="line" smooth="yes"/>
			<point x="526" y="80"/>
			<point x="539" y="73"/>
			<point x="555" y="73" type="curve" smooth="yes"/>
			<point x="582" y="73"/>
			<point x="605" y="95"/>
			<point x="605" y="123" type="curve" smooth="yes"/>
			<point x="605" y="135"/>
			<point x="600" y="146"/>
			<point x="593" y="154" type="curve" smooth="yes"/>
		</contour>
	</outline>
</glyph>
<glyph name="registered" format="2">
	<advance width="486"/>
	<unicode hex="00AE"/>
	<note>
		registered
	</note>
	<outline>
		<contour>
			<point x="243" y="764" type="curve" smooth="yes"/>
			<point x="119" y="764"/>
			<point x="33" y="677"/>
			<point x="33" y="554" type="curve" smooth="yes"/>
			<point x="33" y="431"/>
			<point x="119" y="344"/>
			<point x="243" y="344" type="curve" smooth="yes"/>
			<point x="367" y="344"/>
			<point x="453" y="431"/>
			<point x="453" y="554" type="curve" smooth="yes"/>
			<point x="453" y="677"/>
			<point x="367" y="764"/>
		</contour>
		<contour>
			<point x="243" y="400" type="curve" smooth="yes"/>
			<point x="155" y="400"/>
			<point x="93" y="464"/>
			<point x="93" y="554" type="curve" smooth="yes"/>
			<point x="93" y="644"/>
			<point x="155" y="708"/>
			<point x="243" y="708" type="curve" smooth="yes"/>
			<point x="331" y="708"/>
			<point x="393" y="644"/>
			<point x="393" y="554" type="curve" smooth="yes"/>
			<point x="393" y="464"/>
			<point x="331" y="400"/>
		</contour>
		<contour>
			<point x="297" y="553" type="curve"/>
			<point x="319" y="560"/>
			<point x="336" y="577"/>
			<point x="336" y="605" type="curve" smooth="yes"/>
			<point x="336" y="637"/>
			<point x="315" y="661"/>
			<point x="266" y="666" type="curve" smooth="yes"/>
			<point x="261" y="667"/>
			<point x="257" y="667"/>
			<point x="253" y="667" type="curve" smooth="yes"/>
			<point x="243" y="667"/>
			<point x="220" y="670"/>
			<point x="188" y="642" type="curve" smooth="yes"/>
			<point x="165" y="622"/>
			<point x="151" y="593"/>
			<point x="151" y="560" type="curve" smooth="yes"/>
			<point x="151" y="537"/>
			<point x="158" y="514"/>
			<point x="170" y="495" type="curve" smooth="yes"/>
			<point x="187" y="470"/>
			<point x="222" y="492"/>
			<point x="222" y="523" type="curve"/>
			<point x="235" y="523" type="line" smooth="yes"/>
			<point x="253" y="523"/>
			<point x="261" y="513"/>
			<point x="264" y="494" type="curve" smooth="yes"/>
			<point x="265" y="487"/>
			<point x="266" y="480"/>
			<point x="267" y="473" type="curve" smooth="yes"/>
			<point x="269" y="460"/>
			<point x="283" y="453"/>
			<point x="305" y="453" type="curve" smooth="yes"/>
			<point x="325" y="453"/>
			<point x="325" y="507"/>
			<point x="325" y="507" type="curve" smooth="yes"/>
			<point x="323" y="529"/>
			<point x="316" y="547"/>
		</contour>
		<contour>
			<point x="251" y="570" type="curve" smooth="yes"/>
			<point x="244" y="569"/>
			<point x="239" y="569"/>
			<point x="231" y="569" type="curve" smooth="yes"/>
			<point x="222" y="569" type="line"/>
			<point x="222" y="622" type="line"/>
			<point x="232" y="622" type="line" smooth="yes"/>
			<point x="240" y="622"/>
			<point x="244" y="622"/>
			<point x="251" y="621" type="curve" smooth="yes"/>
			<point x="263" y="619"/>
			<point x="271" y="609"/>
			<point x="271" y="595" type="curve" smooth="yes"/>
			<point x="271" y="584"/>
			<point x="264" y="572"/>
		</contour>
	</outline>
</glyph>
<glyph name="acute" format="2">
	<advance width="300"/>
	<unicode hex="00B4"/>
	<note>
		acute
	</note>
	<outline>
		<contour>
			<point x="167" y="562"/>
			<point x="168" y="563" type="curve" smooth="yes"/>
			<point x="242" y="635"/>
			<point x="277" y="710"/>
			<point x="226" y="705" type="curve" smooth="yes"/>
			<point x="224" y="705"/>
			<point x="222" y="704"/>
			<point x="220" y="704" type="curve" smooth="yes"/>
			<point x="173" y="693"/>
			<point x="134" y="658"/>
			<point x="128" y="611" type="curve" smooth="yes"/>
			<point x="127" y="607"/>
			<point x="127" y="604"/>
			<point x="127" y="601" type="curve" smooth="yes"/>
			<point x="127" y="580"/>
			<point x="145" y="562"/>
			<point x="167" y="562" type="curve"/>
			<point x="167" y="562"/>
		</contour>
	</outline>
</glyph>
<glyph name="periodcentered" format="2">
	<advance width="280"/>
	<unicode hex="00B7"/>
	<note>
		periodcentered
	</note>
	<outline>
		<contour>
			<point x="63" y="221"/>
			<point x="103" y="203" type="curve" smooth="yes"/>
			<point x="116" y="197"/>
			<point x="129" y="195"/>
			<point x="143" y="195" type="curve" smooth="yes"/>
			<point x="197" y="195"/>
			<point x="242" y="239"/>
			<point x="242" y="293" type="curve" smooth="yes"/>
			<point x="242" y="315" type="line" smooth="yes"/>
			<point x="242" y="369"/>
			<point x="198" y="414"/>
			<point x="143" y="414" type="curve" smooth="yes"/>
			<point x="129" y="414"/>
			<point x="116" y="411"/>
			<point x="103" y="405" type="curve" smooth="yes"/>
			<point x="63" y="387"/>
			<point x="33" y="349"/>
			<point x="33" y="304" type="curve" smooth="yes"/>
			<point x="33" y="259"/>
		</contour>
	</outline>
</glyph>
<glyph name="cedilla" format="2">
	<advance width="300"/>
	<unicode hex="00B8"/>
	<note>
		cedilla
	</note>
	<outline>
		<contour>
			<point x="169" y="-42" type="curve"/>
			<point x="184" y="-12"/>
			<point x="166" y="9"/>
			<point x="126" y="9" type="curve" smooth="yes"/>
			<point x="100" y="9"/>
			<point x="78" y="-13"/>
			<point x="78" y="-39" type="curve" smooth="yes"/>
			<point x="78" y="-63"/>
			<point x="96" y="-83"/>
			<point x="119" y="-87" type="curve" smooth="yes"/>
			<point x="147" y="-92"/>
			<point x="156" y="-101"/>
			<point x="156" y="-114" type="curve" smooth="yes"/>
			<point x="156" y="-132"/>
			<point x="139" y="-141"/>
			<point x="96" y="-141" type="curve" smooth="yes"/>
			<point x="89" y="-141"/>
			<point x="79" y="-141"/>
			<point x="67" y="-139" type="curve" smooth="yes"/>
			<point x="48" y="-137"/>
			<point x="38" y="-147"/>
			<point x="38" y="-169" type="curve" smooth="yes"/>
			<point x="38" y="-192"/>
			<point x="95" y="-210"/>
			<point x="95" y="-210" type="curve" smooth="yes"/>
			<point x="187" y="-210"/>
			<point x="264" y="-188"/>
			<point x="264" y="-119" type="curve" smooth="yes"/>
			<point x="264" y="-74"/>
			<point x="232" y="-49"/>
		</contour>
	</outline>
</glyph>
<glyph name="questiondown" format="2">
	<advance width="559"/>
	<unicode hex="00BF"/>
	<note>
		questiondown
	</note>
	<outline>
		<contour>
			<point x="293" y="-170" type="curve" smooth="yes"/>
			<point x="401" y="-170"/>
			<point x="483" y="-131"/>
			<point x="525" y="-59" type="curve" smooth="yes"/>
			<point x="532" y="-46"/>
			<point x="537" y="-31"/>
			<point x="537" y="-15" type="curve" smooth="yes"/>
			<point x="537" y="33"/>
			<point x="498" y="72"/>
			<point x="450" y="72" type="curve" smooth="yes"/>
			<point x="412" y="72"/>
			<point x="381" y="47"/>
			<point x="370" y="12" type="curve" smooth="yes"/>
			<point x="359" y="-23"/>
			<point x="337" y="-38"/>
			<point x="306" y="-38" type="curve" smooth="yes"/>
			<point x="258" y="-38"/>
			<point x="236" y="-12"/>
			<point x="236" y="38" type="curve" smooth="yes"/>
			<point x="236" y="73"/>
			<point x="256" y="104"/>
			<point x="310" y="161" type="curve" smooth="yes"/>
			<point x="332" y="184"/>
			<point x="348" y="205"/>
			<point x="359" y="232" type="curve" smooth="yes"/>
			<point x="362" y="241"/>
			<point x="364" y="250"/>
			<point x="364" y="260" type="curve" smooth="yes"/>
			<point x="364" y="301"/>
			<point x="330" y="335"/>
			<point x="289" y="335" type="curve" smooth="yes"/>
			<point x="256" y="335"/>
			<point x="229" y="314"/>
			<point x="219" y="285" type="curve" smooth="yes"/>
			<point x="208" y="255"/>
			<point x="189" y="234"/>
			<point x="154" y="206" type="curve" smooth="yes"/>
			<point x="82" y="148"/>
			<point x="48" y="103"/>
			<point x="48" y="23" type="curve" smooth="yes"/>
			<point x="48" y="-100"/>
			<point x="139" y="-170"/>
		</contour>
		<contour>
			<point x="251" y="374"/>
			<point x="295" y="361" type="curve" smooth="yes"/>
			<point x="300" y="360"/>
			<point x="307" y="359"/>
			<point x="313" y="359" type="curve" smooth="yes"/>
			<point x="350" y="359"/>
			<point x="379" y="389"/>
			<point x="379" y="425" type="curve" smooth="yes"/>
			<point x="379" y="489" type="line" smooth="yes"/>
			<point x="379" y="525"/>
			<point x="350" y="555"/>
			<point x="313" y="555" type="curve" smooth="yes"/>
			<point x="307" y="555"/>
			<point x="300" y="554"/>
			<point x="295" y="553" type="curve" smooth="yes"/>
			<point x="251" y="540"/>
			<point x="217" y="502"/>
			<point x="217" y="457" type="curve" smooth="yes"/>
			<point x="217" y="412"/>
		</contour>
	</outline>
</glyph>
<glyph name="Acircumflex" format="2">
	<advance width="707"/>
	<unicode hex="00C2"/>
	<note>
		Acircumflex
	</note>
	<outline>
		<contour>
			<point x="331" y="737"/>
			<point x="338" y="754" type="curve" smooth="yes"/>
			<point x="362" y="811" type="line"/>
			<point x="379" y="773" type="line" smooth="yes"/>
			<point x="391" y="747"/>
			<point x="400" y="735"/>
			<point x="409" y="735" type="curve" smooth="yes"/>
			<point x="443" y="735"/>
			<point x="472" y="763"/>
			<point x="472" y="797" type="curve" smooth="yes"/>
			<point x="472" y="832"/>
			<point x="443" y="860"/>
			<point x="409" y="860" type="curve" smooth="yes"/>
			<point x="323" y="860" type="line" smooth="yes"/>
			<point x="279" y="860"/>
			<point x="247" y="822"/>
			<point x="250" y="784" type="curve"/>
			<point x="251" y="780"/>
			<point x="250" y="776"/>
			<point x="250" y="772" type="curve" smooth="yes"/>
			<point x="250" y="746"/>
			<point x="271" y="726"/>
			<point x="296" y="726" type="curve" smooth="yes"/>
			<point x="315" y="726"/>
		</contour>
		<contour>
			<point x="253" y="179" type="line"/>
			<point x="468" y="179" type="line"/>
			<point x="508" y="54" type="line" smooth="yes"/>
			<point x="520" y="18"/>
			<point x="555" y="-9"/>
			<point x="595" y="-9" type="curve" smooth="yes"/>
			<point x="646" y="-9"/>
			<point x="687" y="32"/>
			<point x="687" y="82" type="curve" smooth="yes"/>
			<point x="687" y="93"/>
			<point x="684" y="103"/>
			<point x="681" y="113" type="curve" smooth="yes"/>
			<point x="500" y="614" type="line" smooth="yes"/>
			<point x="481" y="665"/>
			<point x="447" y="690"/>
			<point x="392" y="690" type="curve" smooth="yes"/>
			<point x="334" y="690" type="line" smooth="yes"/>
			<point x="279" y="690"/>
			<point x="245" y="665"/>
			<point x="226" y="614" type="curve" smooth="yes"/>
			<point x="44" y="110" type="line" smooth="yes"/>
			<point x="41" y="101"/>
			<point x="38" y="91"/>
			<point x="38" y="80" type="curve" smooth="yes"/>
			<point x="38" y="31"/>
			<point x="78" y="-9"/>
			<point x="127" y="-9" type="curve" smooth="yes"/>
			<point x="167" y="-9"/>
			<point x="201" y="18"/>
			<point x="212" y="53" type="curve" smooth="yes"/>
		</contour>
		<contour>
			<point x="297" y="319" type="line"/>
			<point x="361" y="531" type="line"/>
			<point x="425" y="319" type="line"/>
		</contour>
	</outline>
</glyph>
<glyph name="Aring" format="2">
	<advance width="707"/>
	<unicode hex="00C5"/>
	<note>
		Aring
	</note>
	<outline>
		<contour>
			<point x="363" y="722" type="curve" smooth="yes"/>
			<point x="433" y="722"/>
			<point x="482" y="765"/>
			<point x="482" y="827" type="curve" smooth="yes"/>
			<point x="482" y="889"/>
			<point x="433" y="932"/>
			<point x="363" y="932" type="curve" smooth="yes"/>
			<point x="293" y="932"/>
			<point x="244" y="889"/>
			<point x="244" y="827" type="curve" smooth="yes"/>
			<point x="244" y="765"/>
			<point x="293" y="722"/>
		</contour>
		<contour>
			<point x="363" y="866" type="curve" smooth="yes"/>
			<point x="384" y="866"/>
			<point x="399" y="850"/>
			<point x="399" y="827" type="curve" smooth="yes"/>
			<point x="399" y="804"/>
			<point x="384" y="788"/>
			<point x="363" y="788" type="curve" smooth="yes"/>
			<point x="342" y="788"/>
			<point x="327" y="804"/>
			<point x="327" y="827" type="curve" smooth="yes"/>
			<point x="327" y="850"/>
			<point x="342" y="866"/>
		</contour>
		<contour>
			<point x="253" y="179" type="line"/>
			<point x="468" y="179" type="line"/>
			<point x="508" y="54" type="line" smooth="yes"/>
			<point x="520" y="18"/>
			<point x="555" y="-9"/>
			<point x="595" y="-9" type="curve" smooth="yes"/>
			<point x="646" y="-9"/>
			<point x="687" y="32"/>
			<point x="687" y="82" type="curve" smooth="yes"/>
			<point x="687" y="93"/>
			<point x="684" y="103"/>
			<point x="681" y="113" type="curve" smooth="yes"/>
			<point x="500" y="614" type="line" smooth="yes"/>
			<point x="481" y="665"/>
			<point x="447" y="690"/>
			<point x="392" y="690" type="curve" smooth="yes"/>
			<point x="334" y="690" type="line" smooth="yes"/>
			<point x="279" y="690"/>
			<point x="245" y="665"/>
			<point x="226" y="614" type="curve" smooth="yes"/>
			<point x="44" y="110" type="line" smooth="yes"/>
			<point x="41" y="101"/>
			<point x="38" y="91"/>
			<point x="38" y="80" type="curve" smooth="yes"/>
			<point x="38" y="31"/>
			<point x="78" y="-9"/>
			<point x="127" y="-9" type="curve" smooth="yes"/>
			<point x="167" y="-9"/>
			<point x="201" y="18"/>
			<point x="212" y="53" type="curve" smooth="yes"/>
		</contour>
		<contour>
			<point x="297" y="319" type="line"/>
			<point x="361" y="531" type="line"/>
			<point x="425" y="319" type="line"/>
		</contour>
	</outline>
</glyph>
<glyph name="Ccedilla" format="2">
	<advance width="734"/>
	<unicode hex="00C7"/>
	<note>
		Ccedilla
	</note>
	<outline>
		<contour>
			<point x="581" y="285"/>
			<point x="571" y="279" type="curve" smooth="yes"/>
			<point x="531" y="256"/>
			<point x="526" y="218"/>
			<point x="502" y="177" type="curve" smooth="yes"/>
			<point x="479" y="139"/>
			<point x="443" y="118"/>
			<point x="394" y="118" type="curve" smooth="yes"/>
			<point x="314" y="118"/>
			<point x="242" y="177"/>
			<point x="242" y="351" type="curve" smooth="yes"/>
			<point x="242" y="500"/>
			<point x="307" y="572"/>
			<point x="393" y="572" type="curve" smooth="yes"/>
			<point x="443" y="572"/>
			<point x="480" y="556"/>
			<point x="503" y="522" type="curve" smooth="yes"/>
			<point x="529" y="482"/>
			<point x="535" y="443"/>
			<point x="579" y="431" type="curve" smooth="yes"/>
			<point x="588" y="429"/>
			<point x="597" y="428"/>
			<point x="606" y="428" type="curve" smooth="yes"/>
			<point x="623" y="428"/>
			<point x="643" y="430"/>
			<point x="661" y="435" type="curve" smooth="yes"/>
			<point x="698" y="446"/>
			<point x="709" y="486"/>
			<point x="690" y="536" type="curve" smooth="yes"/>
			<point x="652" y="635"/>
			<point x="555" y="704"/>
			<point x="395" y="704" type="curve" smooth="yes"/>
			<point x="208" y="704"/>
			<point x="54" y="580"/>
			<point x="54" y="340" type="curve" smooth="yes"/>
			<point x="54" y="133"/>
			<point x="170" y="15"/>
			<point x="325" y="-9" type="curve"/>
			<point x="306" y="-49" type="line" smooth="yes"/>
			<point x="294" y="-73"/>
			<point x="372" y="-46"/>
			<point x="384" y="-110" type="curve" smooth="yes"/>
			<point x="384" y="-111"/>
			<point x="384" y="-113"/>
			<point x="384" y="-114" type="curve" smooth="yes"/>
			<point x="384" y="-132"/>
			<point x="367" y="-141"/>
			<point x="324" y="-141" type="curve" smooth="yes"/>
			<point x="317" y="-141"/>
			<point x="307" y="-141"/>
			<point x="295" y="-139" type="curve" smooth="yes"/>
			<point x="276" y="-137"/>
			<point x="266" y="-147"/>
			<point x="266" y="-169" type="curve" smooth="yes"/>
			<point x="266" y="-192"/>
			<point x="323" y="-210"/>
			<point x="323" y="-210" type="curve" smooth="yes"/>
			<point x="415" y="-210"/>
			<point x="492" y="-188"/>
			<point x="492" y="-119" type="curve" smooth="yes"/>
			<point x="492" y="-74"/>
			<point x="460" y="-49"/>
			<point x="397" y="-42" type="curve"/>
			<point x="411" y="-13" type="line"/>
			<point x="547" y="-7"/>
			<point x="652" y="54"/>
			<point x="690" y="168" type="curve" smooth="yes"/>
			<point x="706" y="216"/>
			<point x="696" y="260"/>
			<point x="650" y="279" type="curve" smooth="yes"/>
			<point x="636" y="285"/>
			<point x="621" y="288"/>
			<point x="604" y="288" type="curve" smooth="yes"/>
			<point x="591" y="288"/>
		</contour>
	</outline>
</glyph>
<glyph name="Egrave" format="2">
	<advance width="639"/>
	<unicode hex="00C8"/>
	<note>
		Egrave
	</note>
	<outline>
		<contour>
			<point x="274" y="740"/>
			<point x="304" y="729" type="curve" smooth="yes"/>
			<point x="308" y="727"/>
			<point x="314" y="726"/>
			<point x="320" y="726" type="curve" smooth="yes"/>
			<point x="344" y="726"/>
			<point x="365" y="746"/>
			<point x="365" y="771" type="curve" smooth="yes"/>
			<point x="365" y="780"/>
			<point x="361" y="790"/>
			<point x="356" y="797" type="curve" smooth="yes"/>
			<point x="325" y="839"/>
			<point x="259" y="863"/>
			<point x="251" y="807" type="curve" smooth="yes"/>
			<point x="250" y="803"/>
			<point x="250" y="800"/>
			<point x="250" y="797" type="curve" smooth="yes"/>
			<point x="250" y="766"/>
		</contour>
		<contour>
			<point x="586" y="140"/>
			<point x="548" y="140" type="curve" smooth="yes"/>
			<point x="260" y="140" type="line"/>
			<point x="260" y="276" type="line"/>
			<point x="518" y="276" type="line" smooth="yes"/>
			<point x="556" y="276"/>
			<point x="588" y="307"/>
			<point x="588" y="346" type="curve" smooth="yes"/>
			<point x="588" y="385"/>
			<point x="556" y="416"/>
			<point x="518" y="416" type="curve" smooth="yes"/>
			<point x="260" y="416" type="line"/>
			<point x="260" y="550" type="line"/>
			<point x="538" y="550" type="line" smooth="yes"/>
			<point x="576" y="550"/>
			<point x="608" y="581"/>
			<point x="608" y="620" type="curve" smooth="yes"/>
			<point x="608" y="659"/>
			<point x="576" y="690"/>
			<point x="538" y="690" type="curve" smooth="yes"/>
			<point x="175" y="690" type="line" smooth="yes"/>
			<point x="114" y="690"/>
			<point x="80" y="656"/>
			<point x="80" y="595" type="curve" smooth="yes"/>
			<point x="80" y="95" type="line" smooth="yes"/>
			<point x="80" y="34"/>
			<point x="114" y="0"/>
			<point x="175" y="0" type="curve" smooth="yes"/>
			<point x="548" y="0" type="line" smooth="yes"/>
			<point x="586" y="0"/>
			<point x="618" y="31"/>
			<point x="618" y="70" type="curve" smooth="yes"/>
			<point x="618" y="109"/>
		</contour>
	</outline>
</glyph>
<glyph name="Igrave" format="2">
	<advance width="314"/>
	<unicode hex="00CC"/>
	<note>
		Igrave
	</note>
	<outline>
		<contour>
			<point x="200" y="765"/>
			<point x="199" y="766" type="curve" smooth="yes"/>
			<point x="136" y="842"/>
			<point x="60" y="852"/>
			<point x="59" y="822" type="curve" smooth="yes"/>
			<point x="59" y="821"/>
			<point x="59" y="821"/>
			<point x="59" y="820" type="curve" smooth="yes"/>
			<point x="59" y="804"/>
			<point x="66" y="790"/>
			<point x="77" y="781" type="curve" smooth="yes"/>
			<point x="135" y="735" type="line" smooth="yes"/>
			<point x="142" y="729"/>
			<point x="151" y="726"/>
			<point x="160" y="726" type="curve" smooth="yes"/>
			<point x="182" y="726"/>
			<point x="200" y="744"/>
			<point x="200" y="765" type="curve"/>
			<point x="200" y="765"/>
		</contour>
		<contour>
			<point x="260" y="32"/>
			<point x="260" y="81" type="curve" smooth="yes"/>
			<point x="260" y="609" type="line" smooth="yes"/>
			<point x="260" y="658"/>
			<point x="220" y="699"/>
			<point x="170" y="699" type="curve" smooth="yes"/>
			<point x="120" y="699"/>
			<point x="80" y="658"/>
			<point x="80" y="609" type="curve" smooth="yes"/>
			<point x="80" y="81" type="line" smooth="yes"/>
			<point x="80" y="32"/>
			<point x="120" y="-9"/>
			<point x="170" y="-9" type="curve" smooth="yes"/>
			<point x="220" y="-9"/>
		</contour>
	</outline>
</glyph>
<glyph name="Icircumflex" format="2">
	<advance width="314"/>
	<unicode hex="00CE"/>
	<note>
		Icircumflex
	</note>
	<outline>
		<contour>
			<point x="138" y="737"/>
			<point x="145" y="754" type="curve" smooth="yes"/>
			<point x="169" y="811" type="line"/>
			<point x="186" y="773" type="line" smooth="yes"/>
			<point x="198" y="747"/>
			<point x="207" y="735"/>
			<point x="216" y="735" type="curve" smooth="yes"/>
			<point x="250" y="735"/>
			<point x="279" y="763"/>
			<point x="279" y="797" type="curve" smooth="yes"/>
			<point x="279" y="832"/>
			<point x="250" y="860"/>
			<point x="216" y="860" type="curve" smooth="yes"/>
			<point x="130" y="860" type="line" smooth="yes"/>
			<point x="86" y="860"/>
			<point x="54" y="822"/>
			<point x="57" y="784" type="curve"/>
			<point x="58" y="780"/>
			<point x="57" y="776"/>
			<point x="57" y="772" type="curve" smooth="yes"/>
			<point x="57" y="746"/>
			<point x="78" y="726"/>
			<point x="103" y="726" type="curve" smooth="yes"/>
			<point x="122" y="726"/>
		</contour>
		<contour>
			<point x="80" y="658"/>
			<point x="80" y="609" type="curve" smooth="yes"/>
			<point x="80" y="81" type="line" smooth="yes"/>
			<point x="80" y="32"/>
			<point x="120" y="-9"/>
			<point x="170" y="-9" type="curve" smooth="yes"/>
			<point x="220" y="-9"/>
			<point x="260" y="32"/>
			<point x="260" y="81" type="curve" smooth="yes"/>
			<point x="260" y="609" type="line" smooth="yes"/>
			<point x="260" y="658"/>
			<point x="220" y="699"/>
			<point x="170" y="699" type="curve" smooth="yes"/>
			<point x="120" y="699"/>
		</contour>
	</outline>
</glyph>
<glyph name="Eth" format="2">
	<advance width="759"/>
	<unicode hex="00D0"/>
	<note>
		Eth
	</note>
	<outline>
		<contour>
			<point x="439" y="686" type="curve" smooth="yes"/>
			<point x="404" y="690"/>
			<point x="388" y="690"/>
			<point x="351" y="690" type="curve" smooth="yes"/>
			<point x="185" y="690" type="line" smooth="yes"/>
			<point x="124" y="690"/>
			<point x="90" y="656"/>
			<point x="90" y="595" type="curve" smooth="yes"/>
			<point x="90" y="389" type="line"/>
			<point x="70" y="389" type="line" smooth="yes"/>
			<point x="44" y="389"/>
			<point x="22" y="368"/>
			<point x="22" y="341" type="curve" smooth="yes"/>
			<point x="22" y="314"/>
			<point x="44" y="293"/>
			<point x="70" y="293" type="curve" smooth="yes"/>
			<point x="90" y="293" type="line"/>
			<point x="90" y="95" type="line" smooth="yes"/>
			<point x="90" y="34"/>
			<point x="124" y="0"/>
			<point x="185" y="0" type="curve" smooth="yes"/>
			<point x="351" y="0" type="line" smooth="yes"/>
			<point x="388" y="0"/>
			<point x="404" y="0"/>
			<point x="439" y="4" type="curve" smooth="yes"/>
			<point x="599" y="22"/>
			<point x="731" y="138"/>
			<point x="731" y="354" type="curve" smooth="yes"/>
			<point x="731" y="570"/>
			<point x="599" y="668"/>
		</contour>
		<contour>
			<point x="391" y="142" type="curve" smooth="yes"/>
			<point x="368" y="140"/>
			<point x="352" y="140"/>
			<point x="326" y="140" type="curve" smooth="yes"/>
			<point x="270" y="140" type="line"/>
			<point x="270" y="293" type="line"/>
			<point x="333" y="293" type="line" smooth="yes"/>
			<point x="359" y="293"/>
			<point x="381" y="314"/>
			<point x="381" y="341" type="curve" smooth="yes"/>
			<point x="381" y="368"/>
			<point x="359" y="389"/>
			<point x="333" y="389" type="curve" smooth="yes"/>
			<point x="270" y="389" type="line"/>
			<point x="270" y="550" type="line"/>
			<point x="326" y="550" type="line" smooth="yes"/>
			<point x="352" y="550"/>
			<point x="368" y="550"/>
			<point x="391" y="548" type="curve" smooth="yes"/>
			<point x="481" y="540"/>
			<point x="543" y="474"/>
			<point x="543" y="351" type="curve" smooth="yes"/>
			<point x="543" y="228"/>
			<point x="481" y="150"/>
		</contour>
	</outline>
</glyph>
<glyph name="Ntilde" format="2">
	<advance width="794"/>
	<unicode hex="00D1"/>
	<note>
		Ntilde
	</note>
	<outline>
		<contour>
			<point x="331" y="876" type="curve" smooth="yes"/>
			<point x="282" y="876"/>
			<point x="254" y="850"/>
			<point x="245" y="789" type="curve" smooth="yes"/>
			<point x="241" y="760"/>
			<point x="263" y="733"/>
			<point x="293" y="733" type="curve" smooth="yes"/>
			<point x="314" y="733"/>
			<point x="333" y="746"/>
			<point x="340" y="764" type="curve" smooth="yes"/>
			<point x="343" y="771"/>
			<point x="346" y="773"/>
			<point x="352" y="773" type="curve" smooth="yes"/>
			<point x="360" y="773"/>
			<point x="373" y="768"/>
			<point x="397" y="758" type="curve" smooth="yes"/>
			<point x="434" y="742"/>
			<point x="450" y="739"/>
			<point x="479" y="739" type="curve" smooth="yes"/>
			<point x="528" y="739"/>
			<point x="556" y="765"/>
			<point x="565" y="826" type="curve" smooth="yes"/>
			<point x="569" y="855"/>
			<point x="547" y="882"/>
			<point x="517" y="882" type="curve" smooth="yes"/>
			<point x="496" y="882"/>
			<point x="477" y="869"/>
			<point x="470" y="851" type="curve" smooth="yes"/>
			<point x="467" y="844"/>
			<point x="464" y="842"/>
			<point x="458" y="842" type="curve" smooth="yes"/>
			<point x="450" y="842"/>
			<point x="437" y="846"/>
			<point x="413" y="857" type="curve" smooth="yes"/>
			<point x="377" y="873"/>
			<point x="360" y="876"/>
		</contour>
		<contour>
			<point x="740" y="57"/>
			<point x="740" y="136" type="curve" smooth="yes"/>
			<point x="740" y="609" type="line" smooth="yes"/>
			<point x="740" y="658"/>
			<point x="700" y="699"/>
			<point x="650" y="699" type="curve" smooth="yes"/>
			<point x="600" y="699"/>
			<point x="560" y="658"/>
			<point x="560" y="609" type="curve" smooth="yes"/>
			<point x="560" y="395" type="line" smooth="yes"/>
			<point x="560" y="355"/>
			<point x="561" y="284"/>
			<point x="566" y="214" type="curve"/>
			<point x="338" y="628" type="line" smooth="yes"/>
			<point x="315" y="670"/>
			<point x="270" y="699"/>
			<point x="218" y="699" type="curve" smooth="yes"/>
			<point x="142" y="699"/>
			<point x="80" y="637"/>
			<point x="80" y="561" type="curve" smooth="yes"/>
			<point x="80" y="81" type="line" smooth="yes"/>
			<point x="80" y="32"/>
			<point x="120" y="-9"/>
			<point x="170" y="-9" type="curve" smooth="yes"/>
			<point x="220" y="-9"/>
			<point x="260" y="32"/>
			<point x="260" y="81" type="curve" smooth="yes"/>
			<point x="260" y="285" type="line" smooth="yes"/>
			<point x="260" y="325"/>
			<point x="260" y="386"/>
			<point x="254" y="456" type="curve"/>
			<point x="469" y="66" type="line" smooth="yes"/>
			<point x="493" y="22"/>
			<point x="541" y="-9"/>
			<point x="595" y="-9" type="curve" smooth="yes"/>
			<point x="675" y="-9"/>
		</contour>
	</outline>
</glyph>
<glyph name="Ograve" format="2">
	<advance width="788"/>
	<unicode hex="00D2"/>
	<note>
		Ograve
	</note>
	<outline>
		<contour>
			<point x="341" y="740"/>
			<point x="371" y="729" type="curve" smooth="yes"/>
			<point x="375" y="727"/>
			<point x="381" y="726"/>
			<point x="387" y="726" type="curve" smooth="yes"/>
			<point x="411" y="726"/>
			<point x="432" y="746"/>
			<point x="432" y="771" type="curve" smooth="yes"/>
			<point x="432" y="780"/>
			<point x="428" y="790"/>
			<point x="423" y="797" type="curve" smooth="yes"/>
			<point x="392" y="839"/>
			<point x="326" y="863"/>
			<point x="318" y="807" type="curve" smooth="yes"/>
			<point x="317" y="803"/>
			<point x="317" y="800"/>
			<point x="317" y="797" type="curve" smooth="yes"/>
			<point x="317" y="766"/>
		</contour>
		<contour>
			<point x="407" y="704" type="curve" smooth="yes"/>
			<point x="192" y="704"/>
			<point x="54" y="567"/>
			<point x="54" y="345" type="curve" smooth="yes"/>
			<point x="54" y="124"/>
			<point x="192" y="-14"/>
			<point x="407" y="-14" type="curve" smooth="yes"/>
			<point x="622" y="-14"/>
			<point x="760" y="124"/>
			<point x="760" y="345" type="curve" smooth="yes"/>
			<point x="760" y="567"/>
			<point x="622" y="704"/>
		</contour>
		<contour>
			<point x="407" y="118" type="curve" smooth="yes"/>
			<point x="303" y="118"/>
			<point x="238" y="199"/>
			<point x="238" y="345" type="curve" smooth="yes"/>
			<point x="238" y="492"/>
			<point x="303" y="572"/>
			<point x="407" y="572" type="curve" smooth="yes"/>
			<point x="511" y="572"/>
			<point x="576" y="492"/>
			<point x="576" y="345" type="curve" smooth="yes"/>
			<point x="576" y="199"/>
			<point x="511" y="118"/>
		</contour>
	</outline>
</glyph>
<glyph name="Oacute" format="2">
	<advance width="788"/>
	<unicode hex="00D3"/>
	<note>
		Oacute
	</note>
	<outline>
		<contour>
			<point x="424" y="726"/>
			<point x="425" y="727" type="curve" smooth="yes"/>
			<point x="499" y="799"/>
			<point x="534" y="874"/>
			<point x="483" y="869" type="curve" smooth="yes"/>
			<point x="481" y="869"/>
			<point x="479" y="868"/>
			<point x="477" y="868" type="curve" smooth="yes"/>
			<point x="430" y="857"/>
			<point x="391" y="822"/>
			<point x="385" y="775" type="curve" smooth="yes"/>
			<point x="384" y="771"/>
			<point x="384" y="768"/>
			<point x="384" y="765" type="curve" smooth="yes"/>
			<point x="384" y="744"/>
			<point x="402" y="726"/>
			<point x="424" y="726" type="curve"/>
			<point x="424" y="726"/>
		</contour>
		<contour>
			<point x="407" y="704" type="curve" smooth="yes"/>
			<point x="192" y="704"/>
			<point x="54" y="567"/>
			<point x="54" y="345" type="curve" smooth="yes"/>
			<point x="54" y="124"/>
			<point x="192" y="-14"/>
			<point x="407" y="-14" type="curve" smooth="yes"/>
			<point x="622" y="-14"/>
			<point x="760" y="124"/>
			<point x="760" y="345" type="curve" smooth="yes"/>
			<point x="760" y="567"/>
			<point x="622" y="704"/>
		</contour>
		<contour>
			<point x="407" y="118" type="curve" smooth="yes"/>
			<point x="303" y="118"/>
			<point x="238" y="199"/>
			<point x="238" y="345" type="curve" smooth="yes"/>
			<point x="238" y="492"/>
			<point x="303" y="572"/>
			<point x="407" y="572" type="curve" smooth="yes"/>
			<point x="511" y="572"/>
			<point x="576" y="492"/>
			<point x="576" y="345" type="curve" smooth="yes"/>
			<point x="576" y="199"/>
			<point x="511" y="118"/>
		</contour>
	</outline>
</glyph>
<glyph name="Ocircumflex" format="2">
	<advance width="788"/>
	<unicode hex="00D4"/>
	<note>
		Ocircumflex
	</note>
	<outline>
		<contour>
			<point x="375" y="737"/>
			<point x="382" y="754" type="curve" smooth="yes"/>
			<point x="406" y="811" type="line"/>
			<point x="423" y="773" type="line" smooth="yes"/>
			<point x="435" y="747"/>
			<point x="444" y="735"/>
			<point x="453" y="735" type="curve" smooth="yes"/>
			<point x="487" y="735"/>
			<point x="516" y="763"/>
			<point x="516" y="797" type="curve" smooth="yes"/>
			<point x="516" y="832"/>
			<point x="487" y="860"/>
			<point x="453" y="860" type="curve" smooth="yes"/>
			<point x="367" y="860" type="line" smooth="yes"/>
			<point x="323" y="860"/>
			<point x="291" y="822"/>
			<point x="294" y="784" type="curve"/>
			<point x="295" y="780"/>
			<point x="294" y="776"/>
			<point x="294" y="772" type="curve" smooth="yes"/>
			<point x="294" y="746"/>
			<point x="315" y="726"/>
			<point x="340" y="726" type="curve" smooth="yes"/>
			<point x="359" y="726"/>
		</contour>
		<contour>
			<point x="407" y="704" type="curve" smooth="yes"/>
			<point x="192" y="704"/>
			<point x="54" y="567"/>
			<point x="54" y="345" type="curve" smooth="yes"/>
			<point x="54" y="124"/>
			<point x="192" y="-14"/>
			<point x="407" y="-14" type="curve" smooth="yes"/>
			<point x="622" y="-14"/>
			<point x="760" y="124"/>
			<point x="760" y="345" type="curve" smooth="yes"/>
			<point x="760" y="567"/>
			<point x="622" y="704"/>
		</contour>
		<contour>
			<point x="407" y="118" type="curve" smooth="yes"/>
			<point x="303" y="118"/>
			<point x="238" y="199"/>
			<point x="238" y="345" type="curve" smooth="yes"/>
			<point x="238" y="492"/>
			<point x="303" y="572"/>
			<point x="407" y="572" type="curve" smooth="yes"/>
			<point x="511" y="572"/>
			<point x="576" y="492"/>
			<point x="576" y="345" type="curve" smooth="yes"/>
			<point x="576" y="199"/>
			<point x="511" y="118"/>
		</contour>
	</outline>
</glyph>
<glyph name="Otilde" format="2">
	<advance width="788"/>
	<unicode hex="00D5"/>
	<note>
		Otilde
	</note>
	<outline>
		<contour>
			<point x="354" y="773" type="curve" smooth="yes"/>
			<point x="362" y="773"/>
			<point x="375" y="768"/>
			<point x="399" y="758" type="curve" smooth="yes"/>
			<point x="436" y="742"/>
			<point x="452" y="739"/>
			<point x="481" y="739" type="curve" smooth="yes"/>
			<point x="530" y="739"/>
			<point x="558" y="765"/>
			<point x="567" y="826" type="curve" smooth="yes"/>
			<point x="571" y="855"/>
			<point x="549" y="882"/>
			<point x="519" y="882" type="curve" smooth="yes"/>
			<point x="498" y="882"/>
			<point x="479" y="869"/>
			<point x="472" y="851" type="curve" smooth="yes"/>
			<point x="469" y="844"/>
			<point x="466" y="842"/>
			<point x="460" y="842" type="curve" smooth="yes"/>
			<point x="452" y="842"/>
			<point x="439" y="846"/>
			<point x="415" y="857" type="curve" smooth="yes"/>
			<point x="379" y="873"/>
			<point x="362" y="876"/>
			<point x="333" y="876" type="curve" smooth="yes"/>
			<point x="284" y="876"/>
			<point x="256" y="850"/>
			<point x="247" y="789" type="curve" smooth="yes"/>
			<point x="243" y="760"/>
			<point x="265" y="733"/>
			<point x="295" y="733" type="curve" smooth="yes"/>
			<point x="316" y="733"/>
			<point x="335" y="746"/>
			<point x="342" y="764" type="curve" smooth="yes"/>
			<point x="345" y="771"/>
			<point x="348" y="773"/>
		</contour>
		<contour>
			<point x="407" y="704" type="curve" smooth="yes"/>
			<point x="192" y="704"/>
			<point x="54" y="567"/>
			<point x="54" y="345" type="curve" smooth="yes"/>
			<point x="54" y="124"/>
			<point x="192" y="-14"/>
			<point x="407" y="-14" type="curve" smooth="yes"/>
			<point x="622" y="-14"/>
			<point x="760" y="124"/>
			<point x="760" y="345" type="curve" smooth="yes"/>
			<point x="760" y="567"/>
			<point x="622" y="704"/>
		</contour>
		<contour>
			<point x="407" y="118" type="curve" smooth="yes"/>
			<point x="303" y="118"/>
			<point x="238" y="199"/>
			<point x="238" y="345" type="curve" smooth="yes"/>
			<point x="238" y="492"/>
			<point x="303" y="572"/>
			<point x="407" y="572" type="curve" smooth="yes"/>
			<point x="511" y="572"/>
			<point x="576" y="492"/>
			<point x="576" y="345" type="curve" smooth="yes"/>
			<point x="576" y="199"/>
			<point x="511" y="118"/>
		</contour>
	</outline>
</glyph>
<glyph name="germandbls" format="2">
	<advance width="666"/>
	<unicode hex="00DF"/>
	<note>
		germandbls
	</note>
	<outline>
		<contour>
			<point x="335" y="754" type="curve" smooth="yes"/>
			<point x="166" y="754"/>
			<point x="65" y="671"/>
			<point x="56" y="534" type="curve" smooth="yes"/>
			<point x="55" y="516"/>
			<point x="54" y="490"/>
			<point x="54" y="430" type="curve" smooth="yes"/>
			<point x="54" y="81" type="line" smooth="yes"/>
			<point x="54" y="32"/>
			<point x="94" y="-9"/>
			<point x="144" y="-9" type="curve" smooth="yes"/>
			<point x="194" y="-9"/>
			<point x="234" y="32"/>
			<point x="234" y="81" type="curve" smooth="yes"/>
			<point x="234" y="438" type="line" smooth="yes"/>
			<point x="234" y="499"/>
			<point x="235" y="518"/>
			<point x="236" y="532" type="curve" smooth="yes"/>
			<point x="240" y="588"/>
			<point x="270" y="622"/>
			<point x="329" y="622" type="curve" smooth="yes"/>
			<point x="386" y="622"/>
			<point x="413" y="599"/>
			<point x="413" y="558" type="curve" smooth="yes"/>
			<point x="413" y="542"/>
			<point x="410" y="527"/>
			<point x="400" y="514" type="curve"/>
			<point x="353" y="484"/>
			<point x="332" y="448"/>
			<point x="332" y="398" type="curve" smooth="yes"/>
			<point x="332" y="341"/>
			<point x="356" y="311"/>
			<point x="408" y="257" type="curve" smooth="yes"/>
			<point x="438" y="226"/>
			<point x="452" y="202"/>
			<point x="452" y="175" type="curve" smooth="yes"/>
			<point x="452" y="145"/>
			<point x="432" y="128"/>
			<point x="396" y="128" type="curve" smooth="yes"/>
			<point x="387" y="128"/>
			<point x="377" y="128"/>
			<point x="365" y="129" type="curve" smooth="yes"/>
			<point x="330" y="132"/>
			<point x="293" y="106"/>
			<point x="293" y="64" type="curve" smooth="yes"/>
			<point x="293" y="29"/>
			<point x="320" y="0"/>
			<point x="354" y="-2" type="curve" smooth="yes"/>
			<point x="376" y="-3"/>
			<point x="402" y="-4"/>
			<point x="440" y="-4" type="curve" smooth="yes"/>
			<point x="543" y="-4"/>
			<point x="640" y="46"/>
			<point x="640" y="152" type="curve" smooth="yes"/>
			<point x="640" y="228"/>
			<point x="620" y="257"/>
			<point x="568" y="312" type="curve" smooth="yes"/>
			<point x="535" y="347"/>
			<point x="520" y="371"/>
			<point x="520" y="398" type="curve" smooth="yes"/>
			<point x="520" y="416"/>
			<point x="525" y="431"/>
			<point x="535" y="444" type="curve" smooth="yes"/>
			<point x="559" y="474"/>
			<point x="591" y="488"/>
			<point x="599" y="531" type="curve" smooth="yes"/>
			<point x="600" y="540"/>
			<point x="601" y="550"/>
			<point x="601" y="560" type="curve" smooth="yes"/>
			<point x="601" y="675"/>
			<point x="504" y="754"/>
		</contour>
	</outline>
</glyph>
<glyph name="atilde" format="2">
	<advance width="587"/>
	<unicode hex="00E3"/>
	<note>
		atilde
	</note>
	<outline>
		<contour>
			<point x="240" y="605" type="curve" smooth="yes"/>
			<point x="248" y="605"/>
			<point x="261" y="600"/>
			<point x="285" y="590" type="curve" smooth="yes"/>
			<point x="322" y="574"/>
			<point x="338" y="571"/>
			<point x="367" y="571" type="curve" smooth="yes"/>
			<point x="416" y="571"/>
			<point x="444" y="597"/>
			<point x="453" y="658" type="curve" smooth="yes"/>
			<point x="457" y="687"/>
			<point x="435" y="714"/>
			<point x="405" y="714" type="curve" smooth="yes"/>
			<point x="384" y="714"/>
			<point x="365" y="701"/>
			<point x="358" y="683" type="curve" smooth="yes"/>
			<point x="355" y="676"/>
			<point x="352" y="674"/>
			<point x="346" y="674" type="curve" smooth="yes"/>
			<point x="338" y="674"/>
			<point x="325" y="678"/>
			<point x="301" y="689" type="curve" smooth="yes"/>
			<point x="265" y="705"/>
			<point x="248" y="708"/>
			<point x="219" y="708" type="curve" smooth="yes"/>
			<point x="170" y="708"/>
			<point x="142" y="682"/>
			<point x="133" y="621" type="curve" smooth="yes"/>
			<point x="129" y="592"/>
			<point x="151" y="565"/>
			<point x="181" y="565" type="curve" smooth="yes"/>
			<point x="202" y="565"/>
			<point x="221" y="578"/>
			<point x="228" y="596" type="curve" smooth="yes"/>
			<point x="231" y="603"/>
			<point x="234" y="605"/>
		</contour>
		<contour>
			<point x="355" y="78" type="curve"/>
			<point x="357" y="67" type="line" smooth="yes"/>
			<point x="363" y="25"/>
			<point x="400" y="-9"/>
			<point x="445" y="-9" type="curve" smooth="yes"/>
			<point x="499" y="-9"/>
			<point x="537" y="38"/>
			<point x="534" y="85" type="curve" smooth="yes"/>
			<point x="533" y="103"/>
			<point x="533" y="119"/>
			<point x="533" y="135" type="curve" smooth="yes"/>
			<point x="533" y="285" type="line" smooth="yes"/>
			<point x="533" y="318"/>
			<point x="532" y="349"/>
			<point x="530" y="376" type="curve" smooth="yes"/>
			<point x="522" y="473"/>
			<point x="464" y="548"/>
			<point x="295" y="548" type="curve" smooth="yes"/>
			<point x="215" y="548"/>
			<point x="143" y="523"/>
			<point x="97" y="474" type="curve" smooth="yes"/>
			<point x="84" y="459"/>
			<point x="76" y="440"/>
			<point x="76" y="419" type="curve" smooth="yes"/>
			<point x="76" y="374"/>
			<point x="112" y="337"/>
			<point x="157" y="337" type="curve" smooth="yes"/>
			<point x="190" y="337"/>
			<point x="215" y="360"/>
			<point x="227" y="388" type="curve" smooth="yes"/>
			<point x="238" y="414"/>
			<point x="258" y="426"/>
			<point x="287" y="426" type="curve" smooth="yes"/>
			<point x="326" y="426"/>
			<point x="348" y="402"/>
			<point x="351" y="375" type="curve" smooth="yes"/>
			<point x="353" y="358"/>
			<point x="353" y="347"/>
			<point x="353" y="336" type="curve" smooth="yes"/>
			<point x="353" y="328" type="line"/>
			<point x="319" y="328" type="line" smooth="yes"/>
			<point x="138" y="328"/>
			<point x="30" y="258"/>
			<point x="30" y="144" type="curve" smooth="yes"/>
			<point x="30" y="41"/>
			<point x="113" y="-14"/>
			<point x="201" y="-14" type="curve" smooth="yes"/>
			<point x="226" y="-14"/>
			<point x="250" y="-11"/>
			<point x="272" y="-5" type="curve" smooth="yes"/>
			<point x="318" y="8"/>
			<point x="339" y="38"/>
		</contour>
		<contour>
			<point x="275" y="108" type="curve" smooth="yes"/>
			<point x="239" y="108"/>
			<point x="214" y="126"/>
			<point x="214" y="158" type="curve" smooth="yes"/>
			<point x="214" y="211"/>
			<point x="272" y="232"/>
			<point x="353" y="226" type="curve"/>
			<point x="353" y="191" type="line" smooth="yes"/>
			<point x="353" y="135"/>
			<point x="311" y="108"/>
		</contour>
	</outline>
</glyph>
<glyph name="ae" format="2">
	<advance width="974"/>
	<unicode hex="00E6"/>
	<note>
		ae
	</note>
	<outline>
		<contour>
			<point x="950" y="274" type="curve" smooth="yes"/>
			<point x="950" y="412"/>
			<point x="860" y="548"/>
			<point x="692" y="548" type="curve" smooth="yes"/>
			<point x="605" y="548"/>
			<point x="530" y="517"/>
			<point x="486" y="455" type="curve"/>
			<point x="456" y="514"/>
			<point x="392" y="548"/>
			<point x="295" y="548" type="curve" smooth="yes"/>
			<point x="215" y="548"/>
			<point x="144" y="523"/>
			<point x="99" y="475" type="curve" smooth="yes"/>
			<point x="85" y="461"/>
			<point x="76" y="441"/>
			<point x="76" y="419" type="curve" smooth="yes"/>
			<point x="76" y="373"/>
			<point x="113" y="337"/>
			<point x="158" y="337" type="curve" smooth="yes"/>
			<point x="191" y="337"/>
			<point x="215" y="358"/>
			<point x="228" y="385" type="curve" smooth="yes"/>
			<point x="242" y="412"/>
			<point x="267" y="426"/>
			<point x="297" y="426" type="curve" smooth="yes"/>
			<point x="351" y="426"/>
			<point x="377" y="397"/>
			<point x="377" y="338" type="curve" smooth="yes"/>
			<point x="377" y="332" type="line"/>
			<point x="319" y="332" type="line" smooth="yes"/>
			<point x="148" y="332"/>
			<point x="30" y="271"/>
			<point x="30" y="149" type="curve" smooth="yes"/>
			<point x="30" y="41"/>
			<point x="113" y="-14"/>
			<point x="241" y="-14" type="curve" smooth="yes"/>
			<point x="270" y="-14"/>
			<point x="300" y="-10"/>
			<point x="328" y="-2" type="curve" smooth="yes"/>
			<point x="370" y="11"/>
			<point x="394" y="35"/>
			<point x="422" y="68" type="curve" smooth="yes"/>
			<point x="449" y="100" type="line"/>
			<point x="496" y="23"/>
			<point x="574" y="-14"/>
			<point x="672" y="-14" type="curve" smooth="yes"/>
			<point x="753" y="-14"/>
			<point x="820" y="10"/>
			<point x="869" y="55" type="curve" smooth="yes"/>
			<point x="883" y="69"/>
			<point x="893" y="89"/>
			<point x="893" y="111" type="curve" smooth="yes"/>
			<point x="893" y="153"/>
			<point x="859" y="188"/>
			<point x="816" y="188" type="curve" smooth="yes"/>
			<point x="788" y="188"/>
			<point x="764" y="171"/>
			<point x="751" y="147" type="curve" smooth="yes"/>
			<point x="737" y="121"/>
			<point x="711" y="108"/>
			<point x="674" y="108" type="curve" smooth="yes"/>
			<point x="623" y="108"/>
			<point x="584" y="133"/>
			<point x="575" y="222" type="curve"/>
			<point x="855" y="222" type="line" smooth="yes"/>
			<point x="915" y="222"/>
			<point x="950" y="274"/>
		</contour>
		<contour>
			<point x="762" y="332" type="curve"/>
			<point x="581" y="332" type="line"/>
			<point x="594" y="397"/>
			<point x="627" y="426"/>
			<point x="673" y="426" type="curve" smooth="yes"/>
			<point x="722" y="426"/>
			<point x="753" y="394"/>
		</contour>
		<contour>
			<point x="378" y="222" type="curve"/>
			<point x="378" y="214" type="line" smooth="yes"/>
			<point x="378" y="146"/>
			<point x="341" y="108"/>
			<point x="286" y="108" type="curve" smooth="yes"/>
			<point x="239" y="108"/>
			<point x="214" y="126"/>
			<point x="214" y="163" type="curve" smooth="yes"/>
			<point x="214" y="210"/>
			<point x="264" y="228"/>
		</contour>
	</outline>
</glyph>
<glyph name="egrave" format="2">
	<advance width="601"/>
	<unicode hex="00E8"/>
	<note>
		egrave
	</note>
	<outline>
		<contour>
			<point x="244" y="576"/>
			<point x="274" y="565" type="curve" smooth="yes"/>
			<point x="278" y="563"/>
			<point x="284" y="562"/>
			<point x="290" y="562" type="curve" smooth="yes"/>
			<point x="314" y="562"/>
			<point x="335" y="582"/>
			<point x="335" y="607" type="curve" smooth="yes"/>
			<point x="335" y="616"/>
			<point x="331" y="626"/>
			<point x="326" y="633" type="curve" smooth="yes"/>
			<point x="295" y="675"/>
			<point x="229" y="699"/>
			<point x="221" y="643" type="curve" smooth="yes"/>
			<point x="220" y="639"/>
			<point x="220" y="636"/>
			<point x="220" y="633" type="curve" smooth="yes"/>
			<point x="220" y="602"/>
		</contour>
		<contour>
			<point x="577" y="274" type="curve" smooth="yes"/>
			<point x="577" y="412"/>
			<point x="487" y="548"/>
			<point x="309" y="548" type="curve" smooth="yes"/>
			<point x="131" y="548"/>
			<point x="24" y="421"/>
			<point x="24" y="265" type="curve" smooth="yes"/>
			<point x="24" y="77"/>
			<point x="146" y="-14"/>
			<point x="299" y="-14" type="curve" smooth="yes"/>
			<point x="380" y="-14"/>
			<point x="447" y="10"/>
			<point x="496" y="55" type="curve" smooth="yes"/>
			<point x="510" y="69"/>
			<point x="520" y="89"/>
			<point x="520" y="111" type="curve" smooth="yes"/>
			<point x="520" y="153"/>
			<point x="486" y="188"/>
			<point x="443" y="188" type="curve" smooth="yes"/>
			<point x="415" y="188"/>
			<point x="391" y="171"/>
			<point x="378" y="147" type="curve" smooth="yes"/>
			<point x="364" y="121"/>
			<point x="338" y="108"/>
			<point x="301" y="108" type="curve" smooth="yes"/>
			<point x="250" y="108"/>
			<point x="211" y="133"/>
			<point x="202" y="222" type="curve"/>
			<point x="482" y="222" type="line" smooth="yes"/>
			<point x="542" y="222"/>
			<point x="577" y="274"/>
		</contour>
		<contour>
			<point x="300" y="426" type="curve" smooth="yes"/>
			<point x="348" y="426"/>
			<point x="379" y="395"/>
			<point x="389" y="332" type="curve"/>
			<point x="208" y="332" type="line"/>
			<point x="220" y="398"/>
			<point x="253" y="426"/>
		</contour>
	</outline>
</glyph>
<glyph name="eacute" format="2">
	<advance width="601"/>
	<unicode hex="00E9"/>
	<note>
		eacute
	</note>
	<outline>
		<contour>
			<point x="319" y="562"/>
			<point x="320" y="563" type="curve" smooth="yes"/>
			<point x="394" y="635"/>
			<point x="429" y="710"/>
			<point x="378" y="705" type="curve" smooth="yes"/>
			<point x="376" y="705"/>
			<point x="374" y="704"/>
			<point x="372" y="704" type="curve" smooth="yes"/>
			<point x="325" y="693"/>
			<point x="286" y="658"/>
			<point x="280" y="611" type="curve" smooth="yes"/>
			<point x="279" y="607"/>
			<point x="279" y="604"/>
			<point x="279" y="601" type="curve" smooth="yes"/>
			<point x="279" y="580"/>
			<point x="297" y="562"/>
			<point x="319" y="562" type="curve"/>
			<point x="319" y="562"/>
		</contour>
		<contour>
			<point x="577" y="274" type="curve" smooth="yes"/>
			<point x="577" y="412"/>
			<point x="487" y="548"/>
			<point x="309" y="548" type="curve" smooth="yes"/>
			<point x="131" y="548"/>
			<point x="24" y="421"/>
			<point x="24" y="265" type="curve" smooth="yes"/>
			<point x="24" y="77"/>
			<point x="146" y="-14"/>
			<point x="299" y="-14" type="curve" smooth="yes"/>
			<point x="380" y="-14"/>
			<point x="447" y="10"/>
			<point x="496" y="55" type="curve" smooth="yes"/>
			<point x="510" y="69"/>
			<point x="520" y="89"/>
			<point x="520" y="111" type="curve" smooth="yes"/>
			<point x="520" y="153"/>
			<point x="486" y="188"/>
			<point x="443" y="188" type="curve" smooth="yes"/>
			<point x="415" y="188"/>
			<point x="391" y="171"/>
			<point x="378" y="147" type="curve" smooth="yes"/>
			<point x="364" y="121"/>
			<point x="338" y="108"/>
			<point x="301" y="108" type="curve" smooth="yes"/>
			<point x="250" y="108"/>
			<point x="211" y="133"/>
			<point x="202" y="222" type="curve"/>
			<point x="482" y="222" type="line" smooth="yes"/>
			<point x="542" y="222"/>
			<point x="577" y="274"/>
		</contour>
		<contour>
			<point x="300" y="426" type="curve" smooth="yes"/>
			<point x="348" y="426"/>
			<point x="379" y="395"/>
			<point x="389" y="332" type="curve"/>
			<point x="208" y="332" type="line"/>
			<point x="220" y="398"/>
			<point x="253" y="426"/>
		</contour>
	</outline>
</glyph>
<glyph name="iacute" format="2">
	<advance width="288"/>
	<unicode hex="00ED"/>
	<note>
		iacute
	</note>
	<outline>
		<contour>
			<point x="161" y="562"/>
			<point x="162" y="563" type="curve" smooth="yes"/>
			<point x="236" y="635"/>
			<point x="271" y="710"/>
			<point x="220" y="705" type="curve" smooth="yes"/>
			<point x="218" y="705"/>
			<point x="216" y="704"/>
			<point x="214" y="704" type="curve" smooth="yes"/>
			<point x="167" y="693"/>
			<point x="128" y="658"/>
			<point x="122" y="611" type="curve" smooth="yes"/>
			<point x="121" y="607"/>
			<point x="121" y="604"/>
			<point x="121" y="601" type="curve" smooth="yes"/>
			<point x="121" y="580"/>
			<point x="139" y="562"/>
			<point x="161" y="562" type="curve"/>
			<point x="161" y="562"/>
		</contour>
		<contour>
			<point x="234" y="32"/>
			<point x="234" y="81" type="curve" smooth="yes"/>
			<point x="234" y="453" type="line" smooth="yes"/>
			<point x="234" y="502"/>
			<point x="194" y="543"/>
			<point x="144" y="543" type="curve" smooth="yes"/>
			<point x="94" y="543"/>
			<point x="54" y="502"/>
			<point x="54" y="453" type="curve" smooth="yes"/>
			<point x="54" y="81" type="line" smooth="yes"/>
			<point x="54" y="32"/>
			<point x="94" y="-9"/>
			<point x="144" y="-9" type="curve" smooth="yes"/>
			<point x="194" y="-9"/>
		</contour>
	</outline>
</glyph>
<glyph name="icircumflex" format="2">
	<advance width="288"/>
	<unicode hex="00EE"/>
	<note>
		icircumflex
	</note>
	<outline>
		<contour>
			<point x="112" y="573"/>
			<point x="119" y="590" type="curve" smooth="yes"/>
			<point x="143" y="647" type="line"/>
			<point x="160" y="609" type="line" smooth="yes"/>
			<point x="172" y="583"/>
			<point x="181" y="571"/>
			<point x="190" y="571" type="curve" smooth="yes"/>
			<point x="224" y="571"/>
			<point x="253" y="599"/>
			<point x="253" y="633" type="curve" smooth="yes"/>
			<point x="253" y="668"/>
			<point x="224" y="696"/>
			<point x="190" y="696" type="curve" smooth="yes"/>
			<point x="104" y="696" type="line" smooth="yes"/>
			<point x="60" y="696"/>
			<point x="28" y="658"/>
			<point x="31" y="620" type="curve"/>
			<point x="32" y="616"/>
			<point x="31" y="612"/>
			<point x="31" y="608" type="curve" smooth="yes"/>
			<point x="31" y="582"/>
			<point x="52" y="562"/>
			<point x="77" y="562" type="curve" smooth="yes"/>
			<point x="96" y="562"/>
		</contour>
		<contour>
			<point x="54" y="502"/>
			<point x="54" y="453" type="curve" smooth="yes"/>
			<point x="54" y="81" type="line" smooth="yes"/>
			<point x="54" y="32"/>
			<point x="94" y="-9"/>
			<point x="144" y="-9" type="curve" smooth="yes"/>
			<point x="194" y="-9"/>
			<point x="234" y="32"/>
			<point x="234" y="81" type="curve" smooth="yes"/>
			<point x="234" y="453" type="line" smooth="yes"/>
			<point x="234" y="502"/>
			<point x="194" y="543"/>
			<point x="144" y="543" type="curve" smooth="yes"/>
			<point x="94" y="543"/>
		</contour>
	</outline>
</glyph>
<glyph name="idieresis" format="2">
	<advance width="288"/>
	<unicode hex="00EF"/>
	<note>
		idieresis
	</note>
	<outline>
		<contour>
			<point x="234" y="32"/>
			<point x="234" y="81" type="curve" smooth="yes"/>
			<point x="234" y="453" type="line" smooth="yes"/>
			<point x="234" y="502"/>
			<point x="194" y="543"/>
			<point x="144" y="543" type="curve" smooth="yes"/>
			<point x="94" y="543"/>
			<point x="54" y="502"/>
			<point x="54" y="453" type="curve" smooth="yes"/>
			<point x="54" y="81" type="line" smooth="yes"/>
			<point x="54" y="32"/>
			<point x="94" y="-9"/>
			<point x="144" y="-9" type="curve" smooth="yes"/>
			<point x="194" y="-9"/>
		</contour>
		<contour>
			<point x="-4" y="569"/>
			<point x="36" y="569" type="curve" smooth="yes"/>
			<point x="58" y="569" type="line" smooth="yes"/>
			<point x="97" y="569"/>
			<point x="130" y="601"/>
			<point x="130" y="641" type="curve" smooth="yes"/>
			<point x="130" y="651"/>
			<point x="128" y="661"/>
			<point x="124" y="669" type="curve" smooth="yes"/>
			<point x="110" y="701"/>
			<point x="81" y="725"/>
			<point x="46" y="725" type="curve" smooth="yes"/>
			<point x="34" y="725"/>
			<point x="23" y="722"/>
			<point x="13" y="717" type="curve" smooth="yes"/>
			<point x="-16" y="703"/>
			<point x="-38" y="675"/>
			<point x="-38" y="643" type="curve" smooth="yes"/>
			<point x="-38" y="602"/>
		</contour>
		<contour>
			<point x="197" y="569"/>
			<point x="237" y="569" type="curve" smooth="yes"/>
			<point x="259" y="569" type="line" smooth="yes"/>
			<point x="298" y="569"/>
			<point x="331" y="601"/>
			<point x="331" y="641" type="curve" smooth="yes"/>
			<point x="331" y="651"/>
			<point x="329" y="661"/>
			<point x="325" y="669" type="curve" smooth="yes"/>
			<point x="311" y="701"/>
			<point x="282" y="725"/>
			<point x="247" y="725" type="curve" smooth="yes"/>
			<point x="235" y="725"/>
			<point x="224" y="722"/>
			<point x="214" y="717" type="curve" smooth="yes"/>
			<point x="185" y="703"/>
			<point x="163" y="675"/>
			<point x="163" y="643" type="curve" smooth="yes"/>
			<point x="163" y="602"/>
		</contour>
	</outline>
</glyph>
<glyph name="ograve" format="2">
	<advance width="622"/>
	<unicode hex="00F2"/>
	<note>
		ograve
	</note>
	<outline>
		<contour>
			<point x="253" y="576"/>
			<point x="283" y="565" type="curve" smooth="yes"/>
			<point x="287" y="563"/>
			<point x="293" y="562"/>
			<point x="299" y="562" type="curve" smooth="yes"/>
			<point x="323" y="562"/>
			<point x="344" y="582"/>
			<point x="344" y="607" type="curve" smooth="yes"/>
			<point x="344" y="616"/>
			<point x="340" y="626"/>
			<point x="335" y="633" type="curve" smooth="yes"/>
			<point x="304" y="675"/>
			<point x="238" y="699"/>
			<point x="230" y="643" type="curve" smooth="yes"/>
			<point x="229" y="639"/>
			<point x="229" y="636"/>
			<point x="229" y="633" type="curve" smooth="yes"/>
			<point x="229" y="602"/>
		</contour>
		<contour>
			<point x="311" y="548" type="curve" smooth="yes"/>
			<point x="136" y="548"/>
			<point x="24" y="439"/>
			<point x="24" y="267" type="curve" smooth="yes"/>
			<point x="24" y="96"/>
			<point x="136" y="-14"/>
			<point x="311" y="-14" type="curve" smooth="yes"/>
			<point x="486" y="-14"/>
			<point x="598" y="96"/>
			<point x="598" y="267" type="curve" smooth="yes"/>
			<point x="598" y="439"/>
			<point x="486" y="548"/>
		</contour>
		<contour>
			<point x="311" y="108" type="curve" smooth="yes"/>
			<point x="247" y="108"/>
			<point x="208" y="161"/>
			<point x="208" y="267" type="curve" smooth="yes"/>
			<point x="208" y="374"/>
			<point x="247" y="426"/>
			<point x="311" y="426" type="curve" smooth="yes"/>
			<point x="375" y="426"/>
			<point x="414" y="374"/>
			<point x="414" y="267" type="curve" smooth="yes"/>
			<point x="414" y="161"/>
			<point x="375" y="108"/>
		</contour>
	</outline>
</glyph>
<glyph name="otilde" format="2">
	<advance width="622"/>
	<unicode hex="00F5"/>
	<note>
		otilde
	</note>
	<outline>
		<contour>
			<point x="258" y="605" type="curve" smooth="yes"/>
			<point x="266" y="605"/>
			<point x="279" y="600"/>
			<point x="303" y="590" type="curve" smooth="yes"/>
			<point x="340" y="574"/>
			<point x="356" y="571"/>
			<point x="385" y="571" type="curve" smooth="yes"/>
			<point x="434" y="571"/>
			<point x="462" y="597"/>
			<point x="471" y="658" type="curve" smooth="yes"/>
			<point x="475" y="687"/>
			<point x="453" y="714"/>
			<point x="423" y="714" type="curve" smooth="yes"/>
			<point x="402" y="714"/>
			<point x="383" y="701"/>
			<point x="376" y="683" type="curve" smooth="yes"/>
			<point x="373" y="676"/>
			<point x="370" y="674"/>
			<point x="364" y="674" type="curve" smooth="yes"/>
			<point x="356" y="674"/>
			<point x="343" y="678"/>
			<point x="319" y="689" type="curve" smooth="yes"/>
			<point x="283" y="705"/>
			<point x="266" y="708"/>
			<point x="237" y="708" type="curve" smooth="yes"/>
			<point x="188" y="708"/>
			<point x="160" y="682"/>
			<point x="151" y="621" type="curve" smooth="yes"/>
			<point x="147" y="592"/>
			<point x="169" y="565"/>
			<point x="199" y="565" type="curve" smooth="yes"/>
			<point x="220" y="565"/>
			<point x="239" y="578"/>
			<point x="246" y="596" type="curve" smooth="yes"/>
			<point x="249" y="603"/>
			<point x="252" y="605"/>
		</contour>
		<contour>
			<point x="311" y="548" type="curve" smooth="yes"/>
			<point x="136" y="548"/>
			<point x="24" y="439"/>
			<point x="24" y="267" type="curve" smooth="yes"/>
			<point x="24" y="96"/>
			<point x="136" y="-14"/>
			<point x="311" y="-14" type="curve" smooth="yes"/>
			<point x="486" y="-14"/>
			<point x="598" y="96"/>
			<point x="598" y="267" type="curve" smooth="yes"/>
			<point x="598" y="439"/>
			<point x="486" y="548"/>
		</contour>
		<contour>
			<point x="311" y="108" type="curve" smooth="yes"/>
			<point x="247" y="108"/>
			<point x="208" y="161"/>
			<point x="208" y="267" type="curve" smooth="yes"/>
			<point x="208" y="374"/>
			<point x="247" y="426"/>
			<point x="311" y="426" type="curve" smooth="yes"/>
			<point x="375" y="426"/>
			<point x="414" y="374"/>
			<point x="414" y="267" type="curve" smooth="yes"/>
			<point x="414" y="161"/>
			<point x="375" y="108"/>
		</contour>
	</outline>
</glyph>
<glyph name="oslash" format="2">
	<advance width="638"/>
	<unicode hex="00F8"/>
	<note>
		oslash
	</note>
	<outline>
		<contour>
			<point x="556" y="433" type="curve"/>
			<point x="589" y="466" type="line" smooth="yes"/>
			<point x="598" y="475"/>
			<point x="604" y="488"/>
			<point x="604" y="501" type="curve" smooth="yes"/>
			<point x="604" y="529"/>
			<point x="581" y="552"/>
			<point x="553" y="552" type="curve" smooth="yes"/>
			<point x="540" y="552"/>
			<point x="527" y="546"/>
			<point x="518" y="537" type="curve" smooth="yes"/>
			<point x="484" y="503" type="line"/>
			<point x="439" y="532"/>
			<point x="381" y="548"/>
			<point x="315" y="548" type="curve" smooth="yes"/>
			<point x="140" y="548"/>
			<point x="28" y="439"/>
			<point x="28" y="267" type="curve" smooth="yes"/>
			<point x="28" y="200"/>
			<point x="45" y="142"/>
			<point x="77" y="96" type="curve"/>
			<point x="49" y="68" type="line" smooth="yes"/>
			<point x="40" y="59"/>
			<point x="34" y="46"/>
			<point x="34" y="33" type="curve" smooth="yes"/>
			<point x="34" y="5"/>
			<point x="57" y="-18"/>
			<point x="85" y="-18" type="curve" smooth="yes"/>
			<point x="98" y="-18"/>
			<point x="111" y="-12"/>
			<point x="120" y="-3" type="curve" smooth="yes"/>
			<point x="151" y="28" type="line"/>
			<point x="195" y="1"/>
			<point x="251" y="-14"/>
			<point x="315" y="-14" type="curve" smooth="yes"/>
			<point x="490" y="-14"/>
			<point x="602" y="96"/>
			<point x="602" y="267" type="curve" smooth="yes"/>
			<point x="602" y="332"/>
			<point x="586" y="389"/>
		</contour>
		<contour>
			<point x="212" y="267" type="curve" smooth="yes"/>
			<point x="212" y="374"/>
			<point x="251" y="426"/>
			<point x="315" y="426" type="curve" smooth="yes"/>
			<point x="341" y="426"/>
			<point x="363" y="417"/>
			<point x="380" y="399" type="curve"/>
			<point x="214" y="233" type="line"/>
			<point x="213" y="243"/>
			<point x="212" y="255"/>
		</contour>
		<contour>
			<point x="418" y="267" type="curve" smooth="yes"/>
			<point x="418" y="161"/>
			<point x="379" y="108"/>
			<point x="315" y="108" type="curve" smooth="yes"/>
			<point x="291" y="108"/>
			<point x="270" y="116"/>
			<point x="254" y="131" type="curve"/>
			<point x="417" y="294" type="line"/>
			<point x="418" y="285"/>
			<point x="418" y="276"/>
		</contour>
	</outline>
</glyph>
<glyph name="uacute" format="2">
	<advance width="640"/>
	<unicode hex="00FA"/>
	<note>
		uacute
	</note>
	<outline>
		<contour>
			<point x="332" y="562"/>
			<point x="333" y="563" type="curve" smooth="yes"/>
			<point x="407" y="635"/>
			<point x="442" y="710"/>
			<point x="391" y="705" type="curve" smooth="yes"/>
			<point x="389" y="705"/>
			<point x="387" y="704"/>
			<point x="385" y="704" type="curve" smooth="yes"/>
			<point x="338" y="693"/>
			<point x="299" y="658"/>
			<point x="293" y="611" type="curve" smooth="yes"/>
			<point x="292" y="607"/>
			<point x="292" y="604"/>
			<point x="292" y="601" type="curve" smooth="yes"/>
			<point x="292" y="580"/>
			<point x="310" y="562"/>
			<point x="332" y="562" type="curve"/>
			<point x="332" y="562"/>
		</contour>
		<contour>
			<point x="586" y="81" type="curve" smooth="yes"/>
			<point x="586" y="453" type="line" smooth="yes"/>
			<point x="586" y="502"/>
			<point x="546" y="543"/>
			<point x="496" y="543" type="curve" smooth="yes"/>
			<point x="446" y="543"/>
			<point x="406" y="502"/>
			<point x="406" y="453" type="curve" smooth="yes"/>
			<point x="406" y="232" type="line" smooth="yes"/>
			<point x="406" y="161"/>
			<point x="372" y="108"/>
			<point x="315" y="108" type="curve" smooth="yes"/>
			<point x="258" y="108"/>
			<point x="234" y="138"/>
			<point x="228" y="189" type="curve" smooth="yes"/>
			<point x="225" y="216"/>
			<point x="224" y="245"/>
			<point x="224" y="262" type="curve" smooth="yes"/>
			<point x="224" y="453" type="line" smooth="yes"/>
			<point x="224" y="502"/>
			<point x="184" y="543"/>
			<point x="134" y="543" type="curve" smooth="yes"/>
			<point x="84" y="543"/>
			<point x="44" y="502"/>
			<point x="44" y="453" type="curve" smooth="yes"/>
			<point x="44" y="222" type="line" smooth="yes"/>
			<point x="44" y="179"/>
			<point x="45" y="148"/>
			<point x="49" y="121" type="curve" smooth="yes"/>
			<point x="61" y="48"/>
			<point x="128" y="-14"/>
			<point x="238" y="-14" type="curve" smooth="yes"/>
			<point x="270" y="-14"/>
			<point x="297" y="-9"/>
			<point x="323" y="-2" type="curve" smooth="yes"/>
			<point x="362" y="9"/>
			<point x="397" y="40"/>
			<point x="406" y="81" type="curve"/>
			<point x="406" y="32"/>
			<point x="446" y="-9"/>
			<point x="496" y="-9" type="curve" smooth="yes"/>
			<point x="546" y="-9"/>
			<point x="586" y="32"/>
		</contour>
	</outline>
</glyph>
<glyph name="cacute" format="2">
	<advance width="587"/>
	<unicode hex="0107"/>
	<note>
		cacute
	</note>
	<outline>
		<contour>
			<point x="310" y="562"/>
			<point x="311" y="563" type="curve" smooth="yes"/>
			<point x="385" y="635"/>
			<point x="420" y="710"/>
			<point x="369" y="705" type="curve" smooth="yes"/>
			<point x="367" y="705"/>
			<point x="365" y="704"/>
			<point x="363" y="704" type="curve" smooth="yes"/>
			<point x="316" y="693"/>
			<point x="277" y="658"/>
			<point x="271" y="611" type="curve" smooth="yes"/>
			<point x="270" y="607"/>
			<point x="270" y="604"/>
			<point x="270" y="601" type="curve" smooth="yes"/>
			<point x="270" y="580"/>
			<point x="288" y="562"/>
			<point x="310" y="562" type="curve"/>
			<point x="310" y="562"/>
		</contour>
		<contour>
			<point x="305" y="548" type="curve" smooth="yes"/>
			<point x="148" y="548"/>
			<point x="24" y="445"/>
			<point x="24" y="261" type="curve" smooth="yes"/>
			<point x="24" y="85"/>
			<point x="140" y="-14"/>
			<point x="293" y="-14" type="curve" smooth="yes"/>
			<point x="385" y="-14"/>
			<point x="462" y="15"/>
			<point x="511" y="74" type="curve" smooth="yes"/>
			<point x="523" y="89"/>
			<point x="530" y="107"/>
			<point x="530" y="127" type="curve" smooth="yes"/>
			<point x="530" y="172"/>
			<point x="493" y="209"/>
			<point x="448" y="209" type="curve" smooth="yes"/>
			<point x="414" y="209"/>
			<point x="388" y="187"/>
			<point x="375" y="159" type="curve" smooth="yes"/>
			<point x="359" y="124"/>
			<point x="333" y="108"/>
			<point x="303" y="108" type="curve" smooth="yes"/>
			<point x="242" y="108"/>
			<point x="208" y="158"/>
			<point x="208" y="272" type="curve" smooth="yes"/>
			<point x="208" y="375"/>
			<point x="241" y="426"/>
			<point x="301" y="426" type="curve" smooth="yes"/>
			<point x="334" y="426"/>
			<point x="362" y="412"/>
			<point x="378" y="372" type="curve" smooth="yes"/>
			<point x="389" y="342"/>
			<point x="419" y="320"/>
			<point x="453" y="320" type="curve" smooth="yes"/>
			<point x="497" y="320"/>
			<point x="533" y="356"/>
			<point x="533" y="401" type="curve" smooth="yes"/>
			<point x="533" y="418"/>
			<point x="530" y="436"/>
			<point x="521" y="449" type="curve" smooth="yes"/>
			<point x="478" y="510"/>
			<point x="403" y="548"/>
		</contour>
	</outline>
</glyph>
<glyph name="Dcaron" format="2">
	<advance width="749"/>
	<unicode hex="010E"/>
	<note>
		Dcaron
	</note>
	<outline>
		<contour>
			<point x="306" y="735"/>
			<point x="340" y="735" type="curve" smooth="yes"/>
			<point x="426" y="735" type="line" smooth="yes"/>
			<point x="470" y="735"/>
			<point x="502" y="773"/>
			<point x="499" y="811" type="curve"/>
			<point x="498" y="815"/>
			<point x="499" y="819"/>
			<point x="499" y="823" type="curve" smooth="yes"/>
			<point x="499" y="849"/>
			<point x="478" y="869"/>
			<point x="453" y="869" type="curve" smooth="yes"/>
			<point x="434" y="869"/>
			<point x="418" y="858"/>
			<point x="411" y="841" type="curve" smooth="yes"/>
			<point x="387" y="784" type="line"/>
			<point x="370" y="822" type="line" smooth="yes"/>
			<point x="358" y="848"/>
			<point x="349" y="860"/>
			<point x="340" y="860" type="curve" smooth="yes"/>
			<point x="306" y="860"/>
			<point x="277" y="832"/>
			<point x="277" y="798" type="curve" smooth="yes"/>
			<point x="277" y="763"/>
		</contour>
		<contour>
			<point x="429" y="686" type="curve" smooth="yes"/>
			<point x="394" y="690"/>
			<point x="378" y="690"/>
			<point x="341" y="690" type="curve" smooth="yes"/>
			<point x="175" y="690" type="line" smooth="yes"/>
			<point x="114" y="690"/>
			<point x="80" y="656"/>
			<point x="80" y="595" type="curve" smooth="yes"/>
			<point x="80" y="95" type="line" smooth="yes"/>
			<point x="80" y="34"/>
			<point x="114" y="0"/>
			<point x="175" y="0" type="curve" smooth="yes"/>
			<point x="341" y="0" type="line" smooth="yes"/>
			<point x="378" y="0"/>
			<point x="394" y="0"/>
			<point x="429" y="4" type="curve" smooth="yes"/>
			<point x="589" y="22"/>
			<point x="721" y="138"/>
			<point x="721" y="354" type="curve" smooth="yes"/>
			<point x="721" y="570"/>
			<point x="589" y="668"/>
		</contour>
		<contour>
			<point x="381" y="142" type="curve" smooth="yes"/>
			<point x="358" y="140"/>
			<point x="342" y="140"/>
			<point x="316" y="140" type="curve" smooth="yes"/>
			<point x="260" y="140" type="line"/>
			<point x="260" y="550" type="line"/>
			<point x="316" y="550" type="line" smooth="yes"/>
			<point x="342" y="550"/>
			<point x="358" y="550"/>
			<point x="381" y="548" type="curve" smooth="yes"/>
			<point x="471" y="540"/>
			<point x="533" y="474"/>
			<point x="533" y="351" type="curve" smooth="yes"/>
			<point x="533" y="228"/>
			<point x="471" y="150"/>
		</contour>
	</outline>
</glyph>
<glyph name="edotaccent" format="2">
	<advance width="601"/>
	<unicode hex="0117"/>
	<note>
		edotaccent
	</note>
	<outline>
		<contour>
			<point x="302" y="575" type="curve" smooth="yes"/>
			<point x="358" y="575"/>
			<point x="395" y="609"/>
			<point x="395" y="663" type="curve" smooth="yes"/>
			<point x="395" y="717"/>
			<point x="358" y="751"/>
			<point x="302" y="751" type="curve" smooth="yes"/>
			<point x="246" y="751"/>
			<point x="209" y="717"/>
			<point x="209" y="663" type="curve" smooth="yes"/>
			<point x="209" y="609"/>
			<point x="246" y="575"/>
		</contour>
		<contour>
			<point x="577" y="274" type="curve" smooth="yes"/>
			<point x="577" y="412"/>
			<point x="487" y="548"/>
			<point x="309" y="548" type="curve" smooth="yes"/>
			<point x="131" y="548"/>
			<point x="24" y="421"/>
			<point x="24" y="265" type="curve" smooth="yes"/>
			<point x="24" y="77"/>
			<point x="146" y="-14"/>
			<point x="299" y="-14" type="curve" smooth="yes"/>
			<point x="380" y="-14"/>
			<point x="447" y="10"/>
			<point x="496" y="55" type="curve" smooth="yes"/>
			<point x="510" y="69"/>
			<point x="520" y="89"/>
			<point x="520" y="111" type="curve" smooth="yes"/>
			<point x="520" y="153"/>
			<point x="486" y="188"/>
			<point x="443" y="188" type="curve" smooth="yes"/>
			<point x="415" y="188"/>
			<point x="391" y="171"/>
			<point x="378" y="147" type="curve" smooth="yes"/>
			<point x="364" y="121"/>
			<point x="338" y="108"/>
			<point x="301" y="108" type="curve" smooth="yes"/>
			<point x="250" y="108"/>
			<point x="211" y="133"/>
			<point x="202" y="222" type="curve"/>
			<point x="482" y="222" type="line" smooth="yes"/>
			<point x="542" y="222"/>
			<point x="577" y="274"/>
		</contour>
		<contour>
			<point x="300" y="426" type="curve" smooth="yes"/>
			<point x="348" y="426"/>
			<point x="379" y="395"/>
			<point x="389" y="332" type="curve"/>
			<point x="208" y="332" type="line"/>
			<point x="220" y="398"/>
			<point x="253" y="426"/>
		</contour>
	</outline>
</glyph>
<glyph name="Eogonek" format="2">
	<advance width="639"/>
	<unicode hex="0118"/>
	<note>
		Eogonek
	</note>
	<outline>
		<contour>
			<point x="559" y="0" type="curve"/>
			<point x="593" y="5"/>
			<point x="619" y="35"/>
			<point x="619" y="70" type="curve" smooth="yes"/>
			<point x="619" y="109"/>
			<point x="587" y="141"/>
			<point x="548" y="141" type="curve" smooth="yes"/>
			<point x="509" y="141"/>
			<point x="477" y="109"/>
			<point x="477" y="70" type="curve" smooth="yes"/>
			<point x="477" y="24"/>
			<point x="507" y="134"/>
			<point x="548" y="140" type="curve"/>
			<point x="260" y="140" type="line"/>
			<point x="260" y="276" type="line"/>
			<point x="518" y="276" type="line" smooth="yes"/>
			<point x="556" y="276"/>
			<point x="588" y="307"/>
			<point x="588" y="346" type="curve" smooth="yes"/>
			<point x="588" y="385"/>
			<point x="556" y="416"/>
			<point x="518" y="416" type="curve" smooth="yes"/>
			<point x="260" y="416" type="line"/>
			<point x="260" y="550" type="line"/>
			<point x="538" y="550" type="line" smooth="yes"/>
			<point x="576" y="550"/>
			<point x="608" y="581"/>
			<point x="608" y="620" type="curve" smooth="yes"/>
			<point x="608" y="659"/>
			<point x="576" y="690"/>
			<point x="538" y="690" type="curve" smooth="yes"/>
			<point x="175" y="690" type="line" smooth="yes"/>
			<point x="114" y="690"/>
			<point x="80" y="656"/>
			<point x="80" y="595" type="curve" smooth="yes"/>
			<point x="80" y="95" type="line" smooth="yes"/>
			<point x="80" y="34"/>
			<point x="114" y="0"/>
			<point x="175" y="0" type="curve" smooth="yes"/>
			<point x="428" y="0" type="line"/>
			<point x="386" y="-27"/>
			<point x="350" y="-81"/>
			<point x="350" y="-137" type="curve" smooth="yes"/>
			<point x="350" y="-201"/>
			<point x="398" y="-223"/>
			<point x="464" y="-223" type="curve" smooth="yes"/>
			<point x="519" y="-223"/>
			<point x="558" y="-207"/>
			<point x="593" y="-184" type="curve" smooth="yes"/>
			<point x="603" y="-177"/>
			<point x="608" y="-167"/>
			<point x="608" y="-155" type="curve" smooth="yes"/>
			<point x="608" y="-133"/>
			<point x="586" y="-116"/>
			<point x="565" y="-120" type="curve" smooth="yes"/>
			<point x="562" y="-121"/>
			<point x="558" y="-121"/>
			<point x="555" y="-121" type="curve" smooth="yes"/>
			<point x="535" y="-121"/>
			<point x="514" y="-108"/>
			<point x="514" y="-70" type="curve" smooth="yes"/>
			<point x="514" y="-32"/>
			<point x="534" y="0"/>
		</contour>
	</outline>
</glyph>
<glyph name="eogonek" format="2">
	<advance width="601"/>
	<unicode hex="0119"/>
	<note>
		eogonek
	</note>
	<outline>
		<contour>
			<point x="577" y="274" type="curve" smooth="yes"/>
			<point x="577" y="412"/>
			<point x="487" y="548"/>
			<point x="309" y="548" type="curve" smooth="yes"/>
			<point x="131" y="548"/>
			<point x="24" y="421"/>
			<point x="24" y="265" type="curve" smooth="yes"/>
			<point x="24" y="96"/>
			<point x="123" y="5"/>
			<point x="254" y="-11" type="curve"/>
			<point x="219" y="-40"/>
			<point x="191" y="-88"/>
			<point x="191" y="-137" type="curve" smooth="yes"/>
			<point x="191" y="-201"/>
			<point x="239" y="-223"/>
			<point x="305" y="-223" type="curve" smooth="yes"/>
			<point x="360" y="-223"/>
			<point x="399" y="-207"/>
			<point x="434" y="-184" type="curve" smooth="yes"/>
			<point x="444" y="-177"/>
			<point x="449" y="-167"/>
			<point x="449" y="-155" type="curve" smooth="yes"/>
			<point x="449" y="-133"/>
			<point x="427" y="-116"/>
			<point x="406" y="-120" type="curve" smooth="yes"/>
			<point x="403" y="-121"/>
			<point x="399" y="-121"/>
			<point x="396" y="-121" type="curve" smooth="yes"/>
			<point x="376" y="-121"/>
			<point x="355" y="-108"/>
			<point x="355" y="-70" type="curve" smooth="yes"/>
			<point x="355" y="-40"/>
			<point x="368" y="-14"/>
			<point x="385" y="-4" type="curve"/>
			<point x="390" y="-3"/>
			<point x="395" y="-1"/>
			<point x="399" y="0" type="curve" smooth="yes"/>
			<point x="437" y="12"/>
			<point x="469" y="30"/>
			<point x="496" y="55" type="curve" smooth="yes"/>
			<point x="511" y="69"/>
			<point x="520" y="89"/>
			<point x="520" y="111" type="curve" smooth="yes"/>
			<point x="520" y="153"/>
			<point x="486" y="188"/>
			<point x="443" y="188" type="curve" smooth="yes"/>
			<point x="415" y="188"/>
			<point x="391" y="171"/>
			<point x="378" y="147" type="curve" smooth="yes"/>
			<point x="364" y="121"/>
			<point x="338" y="108"/>
			<point x="301" y="108" type="curve" smooth="yes"/>
			<point x="250" y="108"/>
			<point x="211" y="133"/>
			<point x="202" y="222" type="curve"/>
			<point x="482" y="222" type="line" smooth="yes"/>
			<point x="542" y="222"/>
			<point x="577" y="274"/>
		</contour>
		<contour>
			<point x="300" y="426" type="curve" smooth="yes"/>
			<point x="348" y="426"/>
			<point x="379" y="395"/>
			<point x="389" y="332" type="curve"/>
			<point x="208" y="332" type="line"/>
			<point x="220" y="398"/>
			<point x="253" y="426"/>
		</contour>
	</outline>
</glyph>
<glyph name="uni0123" format="2">
	<advance width="661"/>
	<unicode hex="0123"/>
	<note>
		gcommaaccent
	</note>
	<outline>
		<contour>
			<point x="371" y="569"/>
			<point x="384" y="597" type="curve" smooth="yes"/>
			<point x="428" y="691" type="line" smooth="yes"/>
			<point x="431" y="696"/>
			<point x="433" y="703"/>
			<point x="433" y="710" type="curve" smooth="yes"/>
			<point x="433" y="735"/>
			<point x="412" y="755"/>
			<point x="388" y="755" type="curve" smooth="yes"/>
			<point x="371" y="755"/>
			<point x="357" y="746"/>
			<point x="349" y="733" type="curve" smooth="yes"/>
			<point x="304" y="657" type="line" smooth="yes"/>
			<point x="273" y="604"/>
			<point x="323" y="543"/>
			<point x="323" y="543" type="curve" smooth="yes"/>
			<point x="356" y="543"/>
		</contour>
		<contour>
			<point x="615" y="136" type="curve" smooth="yes"/>
			<point x="615" y="453" type="line" smooth="yes"/>
			<point x="615" y="502"/>
			<point x="575" y="543"/>
			<point x="525" y="543" type="curve" smooth="yes"/>
			<point x="479" y="543"/>
			<point x="441" y="509"/>
			<point x="435" y="465" type="curve"/>
			<point x="418" y="494" type="line" smooth="yes"/>
			<point x="406" y="514"/>
			<point x="385" y="533"/>
			<point x="339" y="542" type="curve" smooth="yes"/>
			<point x="319" y="546"/>
			<point x="297" y="548"/>
			<point x="277" y="548" type="curve" smooth="yes"/>
			<point x="140" y="548"/>
			<point x="24" y="453"/>
			<point x="24" y="263" type="curve" smooth="yes"/>
			<point x="24" y="105"/>
			<point x="124" y="6"/>
			<point x="269" y="6" type="curve" smooth="yes"/>
			<point x="296" y="6"/>
			<point x="319" y="9"/>
			<point x="340" y="14" type="curve" smooth="yes"/>
			<point x="383" y="25"/>
			<point x="404" y="53"/>
			<point x="429" y="89" type="curve" smooth="yes"/>
			<point x="435" y="98" type="line"/>
			<point x="435" y="83" type="line" smooth="yes"/>
			<point x="435" y="54"/>
			<point x="434" y="29"/>
			<point x="433" y="13" type="curve" smooth="yes"/>
			<point x="428" y="-59"/>
			<point x="379" y="-88"/>
			<point x="312" y="-88" type="curve" smooth="yes"/>
			<point x="287" y="-88"/>
			<point x="264" y="-84"/>
			<point x="247" y="-76" type="curve" smooth="yes"/>
			<point x="208" y="-57"/>
			<point x="204" y="-14"/>
			<point x="162" y="-1" type="curve" smooth="yes"/>
			<point x="152" y="2"/>
			<point x="142" y="4"/>
			<point x="131" y="4" type="curve" smooth="yes"/>
			<point x="114" y="4"/>
			<point x="96" y="2"/>
			<point x="79" y="-4" type="curve" smooth="yes"/>
			<point x="45" y="-16"/>
			<point x="34" y="-56"/>
			<point x="57" y="-104" type="curve" smooth="yes"/>
			<point x="95" y="-180"/>
			<point x="181" y="-220"/>
			<point x="307" y="-220" type="curve" smooth="yes"/>
			<point x="488" y="-220"/>
			<point x="608" y="-142"/>
			<point x="614" y="33" type="curve" smooth="yes"/>
			<point x="615" y="62"/>
			<point x="615" y="103"/>
		</contour>
		<contour>
			<point x="321" y="128" type="curve" smooth="yes"/>
			<point x="258" y="128"/>
			<point x="208" y="176"/>
			<point x="208" y="276" type="curve" smooth="yes"/>
			<point x="208" y="385"/>
			<point x="256" y="426"/>
			<point x="326" y="426" type="curve" smooth="yes"/>
			<point x="380" y="426"/>
			<point x="435" y="390"/>
			<point x="435" y="283" type="curve" smooth="yes"/>
			<point x="435" y="280" type="line" smooth="yes"/>
			<point x="435" y="168"/>
			<point x="387" y="128"/>
		</contour>
	</outline>
</glyph>
<glyph name="IJ" format="2">
	<advance width="952"/>
	<unicode hex="0132"/>
	<note>
		IJ
	</note>
	<outline>
		<contour>
			<point x="260" y="32"/>
			<point x="260" y="81" type="curve" smooth="yes"/>
			<point x="260" y="609" type="line" smooth="yes"/>
			<point x="260" y="658"/>
			<point x="220" y="699"/>
			<point x="170" y="699" type="curve" smooth="yes"/>
			<point x="120" y="699"/>
			<point x="80" y="658"/>
			<point x="80" y="609" type="curve" smooth="yes"/>
			<point x="80" y="81" type="line" smooth="yes"/>
			<point x="80" y="32"/>
			<point x="120" y="-9"/>
			<point x="170" y="-9" type="curve" smooth="yes"/>
			<point x="220" y="-9"/>
		</contour>
		<contour>
			<point x="900" y="299" type="curve" smooth="yes"/>
			<point x="900" y="609" type="line" smooth="yes"/>
			<point x="900" y="658"/>
			<point x="860" y="699"/>
			<point x="810" y="699" type="curve" smooth="yes"/>
			<point x="760" y="699"/>
			<point x="720" y="658"/>
			<point x="720" y="609" type="curve" smooth="yes"/>
			<point x="720" y="271" type="line" smooth="yes"/>
			<point x="720" y="250"/>
			<point x="720" y="228"/>
			<point x="718" y="205" type="curve" smooth="yes"/>
			<point x="713" y="150"/>
			<point x="687" y="118"/>
			<point x="637" y="118" type="curve" smooth="yes"/>
			<point x="601" y="118"/>
			<point x="572" y="131"/>
			<point x="556" y="172" type="curve" smooth="yes"/>
			<point x="539" y="216"/>
			<point x="539" y="255"/>
			<point x="499" y="275" type="curve" smooth="yes"/>
			<point x="486" y="281"/>
			<point x="471" y="284"/>
			<point x="456" y="284" type="curve" smooth="yes"/>
			<point x="437" y="284"/>
			<point x="419" y="279"/>
			<point x="403" y="271" type="curve" smooth="yes"/>
			<point x="368" y="252"/>
			<point x="361" y="215"/>
			<point x="371" y="168" type="curve" smooth="yes"/>
			<point x="395" y="56"/>
			<point x="474" y="-14"/>
			<point x="632" y="-14" type="curve" smooth="yes"/>
			<point x="811" y="-14"/>
			<point x="890" y="73"/>
			<point x="897" y="194" type="curve" smooth="yes"/>
			<point x="900" y="245"/>
			<point x="900" y="267"/>
		</contour>
	</outline>
</glyph>
<glyph name="uni0136" format="2">
	<advance width="743"/>
	<unicode hex="0136"/>
	<note>
		Kcommaaccent
	</note>
	<outline>
		<contour>
			<point x="624" y="133" type="curve" smooth="yes"/>
			<point x="440" y="365" type="line"/>
			<point x="631" y="574" type="line" smooth="yes"/>
			<point x="687" y="635"/>
			<point x="669" y="690"/>
			<point x="593" y="690" type="curve" smooth="yes"/>
			<point x="544" y="690"/>
			<point x="509" y="675"/>
			<point x="477" y="637" type="curve" smooth="yes"/>
			<point x="260" y="385" type="line"/>
			<point x="260" y="609" type="line" smooth="yes"/>
			<point x="260" y="658"/>
			<point x="220" y="699"/>
			<point x="170" y="699" type="curve" smooth="yes"/>
			<point x="120" y="699"/>
			<point x="80" y="658"/>
			<point x="80" y="609" type="curve" smooth="yes"/>
			<point x="80" y="81" type="line" smooth="yes"/>
			<point x="80" y="32"/>
			<point x="120" y="-9"/>
			<point x="170" y="-9" type="curve" smooth="yes"/>
			<point x="220" y="-9"/>
			<point x="260" y="32"/>
			<point x="260" y="81" type="curve" smooth="yes"/>
			<point x="260" y="212" type="line"/>
			<point x="309" y="266" type="line"/>
			<point x="484" y="27" type="line" smooth="yes"/>
			<point x="500" y="6"/>
			<point x="526" y="-9"/>
			<point x="555" y="-9" type="curve" smooth="yes"/>
			<point x="603" y="-9"/>
			<point x="643" y="30"/>
			<point x="643" y="79" type="curve" smooth="yes"/>
			<point x="643" y="99"/>
			<point x="636" y="118"/>
		</contour>
		<contour>
			<point x="324" y="-39"/>
			<point x="311" y="-67" type="curve" smooth="yes"/>
			<point x="267" y="-161" type="line" smooth="yes"/>
			<point x="264" y="-166"/>
			<point x="262" y="-173"/>
			<point x="262" y="-180" type="curve" smooth="yes"/>
			<point x="262" y="-205"/>
			<point x="283" y="-225"/>
			<point x="307" y="-225" type="curve" smooth="yes"/>
			<point x="324" y="-225"/>
			<point x="338" y="-216"/>
			<point x="346" y="-203" type="curve" smooth="yes"/>
			<point x="391" y="-127" type="line" smooth="yes"/>
			<point x="422" y="-74"/>
			<point x="372" y="-13"/>
			<point x="372" y="-13" type="curve" smooth="yes"/>
			<point x="339" y="-13"/>
		</contour>
	</outline>
</glyph>
<glyph name="lacute" format="2">
	<advance width="305"/>
	<unicode hex="013A"/>
	<note>
		lacute
	</note>
	<outline>
		<contour>
			<point x="150" y="770"/>
			<point x="151" y="771" type="curve" smooth="yes"/>
			<point x="225" y="843"/>
			<point x="260" y="918"/>
			<point x="209" y="913" type="curve" smooth="yes"/>
			<point x="207" y="913"/>
			<point x="205" y="912"/>
			<point x="203" y="912" type="curve" smooth="yes"/>
			<point x="156" y="901"/>
			<point x="117" y="866"/>
			<point x="111" y="819" type="curve" smooth="yes"/>
			<point x="110" y="815"/>
			<point x="110" y="812"/>
			<point x="110" y="809" type="curve" smooth="yes"/>
			<point x="110" y="788"/>
			<point x="128" y="770"/>
			<point x="150" y="770" type="curve"/>
			<point x="150" y="770"/>
		</contour>
		<contour>
			<point x="230" y="192" type="curve" smooth="yes"/>
			<point x="230" y="654" type="line" smooth="yes"/>
			<point x="230" y="703"/>
			<point x="190" y="744"/>
			<point x="140" y="744" type="curve" smooth="yes"/>
			<point x="90" y="744"/>
			<point x="50" y="703"/>
			<point x="50" y="654" type="curve" smooth="yes"/>
			<point x="50" y="189" type="line" smooth="yes"/>
			<point x="50" y="149"/>
			<point x="50" y="122"/>
			<point x="52" y="94" type="curve" smooth="yes"/>
			<point x="56" y="23"/>
			<point x="103" y="-10"/>
			<point x="186" y="-10" type="curve" smooth="yes"/>
			<point x="205" y="-10"/>
			<point x="221" y="-10"/>
			<point x="238" y="-9" type="curve" smooth="yes"/>
			<point x="272" y="-7"/>
			<point x="300" y="21"/>
			<point x="300" y="56" type="curve" smooth="yes"/>
			<point x="300" y="86"/>
			<point x="279" y="112"/>
			<point x="252" y="119" type="curve" smooth="yes"/>
			<point x="238" y="123"/>
			<point x="234" y="131"/>
			<point x="232" y="143" type="curve" smooth="yes"/>
			<point x="230" y="156"/>
			<point x="230" y="167"/>
		</contour>
	</outline>
</glyph>
<glyph name="Lcaron" format="2">
	<advance width="628"/>
	<unicode hex="013D"/>
	<note>
		Lcaron
	</note>
	<outline>
		<contour>
			<point x="584" y="152"/>
			<point x="542" y="152" type="curve" smooth="yes"/>
			<point x="260" y="152" type="line"/>
			<point x="260" y="609" type="line" smooth="yes"/>
			<point x="260" y="658"/>
			<point x="220" y="699"/>
			<point x="170" y="699" type="curve" smooth="yes"/>
			<point x="120" y="699"/>
			<point x="80" y="658"/>
			<point x="80" y="609" type="curve" smooth="yes"/>
			<point x="80" y="95" type="line" smooth="yes"/>
			<point x="80" y="34"/>
			<point x="114" y="0"/>
			<point x="175" y="0" type="curve" smooth="yes"/>
			<point x="542" y="0" type="line" smooth="yes"/>
			<point x="584" y="0"/>
			<point x="618" y="34"/>
			<point x="618" y="76" type="curve" smooth="yes"/>
			<point x="618" y="118"/>
		</contour>
	</outline>
</glyph>
<glyph name="lcaron" format="2">
	<advance width="305"/>
	<unicode hex="013E"/>
	<note>
		lcaron
	</note>
	<outline>
		<contour>
			<point x="230" y="192" type="curve" smooth="yes"/>
			<point x="230" y="654" type="line" smooth="yes"/>
			<point x="230" y="703"/>
			<point x="190" y="744"/>
			<point x="140" y="744" type="curve" smooth="yes"/>
			<point x="90" y="744"/>
			<point x="50" y="703"/>
			<point x="50" y="654" type="curve" smooth="yes"/>
			<point x="50" y="189" type="line" smooth="yes"/>
			<point x="50" y="149"/>
			<point x="50" y="122"/>
			<point x="52" y="94" type="curve" smooth="yes"/>
			<point x="56" y="23"/>
			<point x="103" y="-10"/>
			<point x="186" y="-10" type="curve" smooth="yes"/>
			<point x="205" y="-10"/>
			<point x="221" y="-10"/>
			<point x="238" y="-9" type="curve" smooth="yes"/>
			<point x="272" y="-7"/>
			<point x="300" y="21"/>
			<point x="300" y="56" type="curve" smooth="yes"/>
			<point x="300" y="86"/>
			<point x="279" y="112"/>
			<point x="252" y="119" type="curve" smooth="yes"/>
			<point x="238" y="123"/>
			<point x="234" y="131"/>
			<point x="232" y="143" type="curve" smooth="yes"/>
			<point x="230" y="156"/>
			<point x="230" y="167"/>
		</contour>
	</outline>
</glyph>
<glyph name="ldot" format="2">
	<advance width="480"/>
	<unicode hex="0140"/>
	<note>
		ldot
	</note>
	<outline>
		<contour>
			<point x="230" y="192" type="curve" smooth="yes"/>
			<point x="230" y="654" type="line" smooth="yes"/>
			<point x="230" y="703"/>
			<point x="190" y="744"/>
			<point x="140" y="744" type="curve" smooth="yes"/>
			<point x="90" y="744"/>
			<point x="50" y="703"/>
			<point x="50" y="654" type="curve" smooth="yes"/>
			<point x="50" y="189" type="line" smooth="yes"/>
			<point x="50" y="149"/>
			<point x="50" y="122"/>
			<point x="52" y="94" type="curve" smooth="yes"/>
			<point x="56" y="23"/>
			<point x="103" y="-10"/>
			<point x="186" y="-10" type="curve" smooth="yes"/>
			<point x="205" y="-10"/>
			<point x="221" y="-10"/>
			<point x="238" y="-9" type="curve" smooth="yes"/>
			<point x="272" y="-7"/>
			<point x="300" y="21"/>
			<point x="300" y="56" type="curve" smooth="yes"/>
			<point x="300" y="86"/>
			<point x="279" y="112"/>
			<point x="252" y="119" type="curve" smooth="yes"/>
			<point x="238" y="123"/>
			<point x="234" y="131"/>
			<point x="232" y="143" type="curve" smooth="yes"/>
			<point x="230" y="156"/>
			<point x="230" y="167"/>
		</contour>
		<contour>
			<point x="380" y="488" type="curve" smooth="yes"/>
			<point x="326" y="488"/>
			<point x="287" y="452"/>
			<point x="287" y="400" type="curve" smooth="yes"/>
			<point x="287" y="348"/>
			<point x="326" y="312"/>
			<point x="380" y="312" type="curve" smooth="yes"/>
			<point x="434" y="312"/>
			<point x="473" y="348"/>
			<point x="473" y="400" type="curve" smooth="yes"/>
			<point x="473" y="452"/>
			<point x="434" y="488"/>
		</contour>
	</outline>
</glyph>
<glyph name="Lslash" format="2">
	<advance width="668"/>
	<unicode hex="0141"/>
	<note>
		Lslash
	</note>
	<outline>
		<contour>
			<point x="624" y="152"/>
			<point x="582" y="152" type="curve" smooth="yes"/>
			<point x="300" y="152" type="line"/>
			<point x="300" y="380" type="line"/>
			<point x="368" y="416" type="line" smooth="yes"/>
			<point x="384" y="425"/>
			<point x="395" y="441"/>
			<point x="395" y="460" type="curve" smooth="yes"/>
			<point x="395" y="488"/>
			<point x="373" y="510"/>
			<point x="345" y="510" type="curve" smooth="yes"/>
			<point x="337" y="510"/>
			<point x="329" y="507"/>
			<point x="322" y="504" type="curve" smooth="yes"/>
			<point x="300" y="493" type="line"/>
			<point x="300" y="609" type="line" smooth="yes"/>
			<point x="300" y="658"/>
			<point x="260" y="699"/>
			<point x="210" y="699" type="curve" smooth="yes"/>
			<point x="160" y="699"/>
			<point x="120" y="658"/>
			<point x="120" y="609" type="curve" smooth="yes"/>
			<point x="120" y="398" type="line"/>
			<point x="43" y="357" type="line" smooth="yes"/>
			<point x="27" y="348"/>
			<point x="17" y="332"/>
			<point x="17" y="313" type="curve" smooth="yes"/>
			<point x="17" y="286"/>
			<point x="39" y="263"/>
			<point x="67" y="263" type="curve" smooth="yes"/>
			<point x="75" y="263"/>
			<point x="83" y="265"/>
			<point x="90" y="269" type="curve" smooth="yes"/>
			<point x="120" y="285" type="line"/>
			<point x="120" y="95" type="line" smooth="yes"/>
			<point x="120" y="34"/>
			<point x="154" y="0"/>
			<point x="215" y="0" type="curve" smooth="yes"/>
			<point x="582" y="0" type="line" smooth="yes"/>
			<point x="624" y="0"/>
			<point x="658" y="34"/>
			<point x="658" y="76" type="curve" smooth="yes"/>
			<point x="658" y="118"/>
		</contour>
	</outline>
</glyph>
<glyph name="Nacute" format="2">
	<advance width="794"/>
	<unicode hex="0143"/>
	<note>
		Nacute
	</note>
	<outline>
		<contour>
			<point x="422" y="726"/>
			<point x="423" y="727" type="curve" smooth="yes"/>
			<point x="497" y="799"/>
			<point x="532" y="874"/>
			<point x="481" y="869" type="curve" smooth="yes"/>
			<point x="479" y="869"/>
			<point x="477" y="868"/>
			<point x="475" y="868" type="curve" smooth="yes"/>
			<point x="428" y="857"/>
			<point x="389" y="822"/>
			<point x="383" y="775" type="curve" smooth="yes"/>
			<point x="382" y="771"/>
			<point x="382" y="768"/>
			<point x="382" y="765" type="curve" smooth="yes"/>
			<point x="382" y="744"/>
			<point x="400" y="726"/>
			<point x="422" y="726" type="curve"/>
			<point x="422" y="726"/>
		</contour>
		<contour>
			<point x="740" y="57"/>
			<point x="740" y="136" type="curve" smooth="yes"/>
			<point x="740" y="609" type="line" smooth="yes"/>
			<point x="740" y="658"/>
			<point x="700" y="699"/>
			<point x="650" y="699" type="curve" smooth="yes"/>
			<point x="600" y="699"/>
			<point x="560" y="658"/>
			<point x="560" y="609" type="curve" smooth="yes"/>
			<point x="560" y="395" type="line" smooth="yes"/>
			<point x="560" y="355"/>
			<point x="561" y="284"/>
			<point x="566" y="214" type="curve"/>
			<point x="338" y="628" type="line" smooth="yes"/>
			<point x="315" y="670"/>
			<point x="270" y="699"/>
			<point x="218" y="699" type="curve" smooth="yes"/>
			<point x="142" y="699"/>
			<point x="80" y="637"/>
			<point x="80" y="561" type="curve" smooth="yes"/>
			<point x="80" y="81" type="line" smooth="yes"/>
			<point x="80" y="32"/>
			<point x="120" y="-9"/>
			<point x="170" y="-9" type="curve" smooth="yes"/>
			<point x="220" y="-9"/>
			<point x="260" y="32"/>
			<point x="260" y="81" type="curve" smooth="yes"/>
			<point x="260" y="285" type="line" smooth="yes"/>
			<point x="260" y="325"/>
			<point x="260" y="386"/>
			<point x="254" y="456" type="curve"/>
			<point x="469" y="66" type="line" smooth="yes"/>
			<point x="493" y="22"/>
			<point x="541" y="-9"/>
			<point x="595" y="-9" type="curve" smooth="yes"/>
			<point x="675" y="-9"/>
		</contour>
	</outline>
</glyph>
<glyph name="nacute" format="2">
	<advance width="644"/>
	<unicode hex="0144"/>
	<note>
		nacute
	</note>
	<outline>
		<contour>
			<point x="338" y="562"/>
			<point x="339" y="563" type="curve" smooth="yes"/>
			<point x="413" y="635"/>
			<point x="448" y="710"/>
			<point x="397" y="705" type="curve" smooth="yes"/>
			<point x="395" y="705"/>
			<point x="393" y="704"/>
			<point x="391" y="704" type="curve" smooth="yes"/>
			<point x="344" y="693"/>
			<point x="305" y="658"/>
			<point x="299" y="611" type="curve" smooth="yes"/>
			<point x="298" y="607"/>
			<point x="298" y="604"/>
			<point x="298" y="601" type="curve" smooth="yes"/>
			<point x="298" y="580"/>
			<point x="316" y="562"/>
			<point x="338" y="562" type="curve"/>
			<point x="338" y="562"/>
		</contour>
		<contour>
			<point x="591" y="403" type="curve" smooth="yes"/>
			<point x="577" y="496"/>
			<point x="512" y="548"/>
			<point x="402" y="548" type="curve" smooth="yes"/>
			<point x="368" y="548"/>
			<point x="339" y="543"/>
			<point x="311" y="534" type="curve" smooth="yes"/>
			<point x="273" y="523"/>
			<point x="242" y="493"/>
			<point x="234" y="453" type="curve"/>
			<point x="234" y="502"/>
			<point x="194" y="543"/>
			<point x="144" y="543" type="curve" smooth="yes"/>
			<point x="94" y="543"/>
			<point x="54" y="502"/>
			<point x="54" y="453" type="curve" smooth="yes"/>
			<point x="54" y="81" type="line" smooth="yes"/>
			<point x="54" y="32"/>
			<point x="94" y="-9"/>
			<point x="144" y="-9" type="curve" smooth="yes"/>
			<point x="194" y="-9"/>
			<point x="234" y="32"/>
			<point x="234" y="81" type="curve" smooth="yes"/>
			<point x="234" y="252" type="line" smooth="yes"/>
			<point x="234" y="373"/>
			<point x="273" y="426"/>
			<point x="328" y="426" type="curve" smooth="yes"/>
			<point x="382" y="426"/>
			<point x="410" y="396"/>
			<point x="414" y="345" type="curve" smooth="yes"/>
			<point x="416" y="318"/>
			<point x="416" y="289"/>
			<point x="416" y="272" type="curve" smooth="yes"/>
			<point x="416" y="81" type="line" smooth="yes"/>
			<point x="416" y="32"/>
			<point x="456" y="-9"/>
			<point x="506" y="-9" type="curve" smooth="yes"/>
			<point x="556" y="-9"/>
			<point x="596" y="32"/>
			<point x="596" y="81" type="curve" smooth="yes"/>
			<point x="596" y="302" type="line" smooth="yes"/>
			<point x="596" y="345"/>
			<point x="595" y="376"/>
		</contour>
	</outline>
</glyph>
<glyph name="uni0145" format="2">
	<advance width="794"/>
	<unicode hex="0145"/>
	<note>
		Ncommaaccent
	</note>
	<outline>
		<contour>
			<point x="740" y="57"/>
			<point x="740" y="136" type="curve" smooth="yes"/>
			<point x="740" y="609" type="line" smooth="yes"/>
			<point x="740" y="658"/>
			<point x="700" y="699"/>
			<point x="650" y="699" type="curve" smooth="yes"/>
			<point x="600" y="699"/>
			<point x="560" y="658"/>
			<point x="560" y="609" type="curve" smooth="yes"/>
			<point x="560" y="395" type="line" smooth="yes"/>
			<point x="560" y="355"/>
			<point x="561" y="284"/>
			<point x="566" y="214" type="curve"/>
			<point x="338" y="628" type="line" smooth="yes"/>
			<point x="315" y="670"/>
			<point x="270" y="699"/>
			<point x="218" y="699" type="curve" smooth="yes"/>
			<point x="142" y="699"/>
			<point x="80" y="637"/>
			<point x="80" y="561" type="curve" smooth="yes"/>
			<point x="80" y="81" type="line" smooth="yes"/>
			<point x="80" y="32"/>
			<point x="120" y="-9"/>
			<point x="170" y="-9" type="curve" smooth="yes"/>
			<point x="220" y="-9"/>
			<point x="260" y="32"/>
			<point x="260" y="81" type="curve" smooth="yes"/>
			<point x="260" y="285" type="line" smooth="yes"/>
			<point x="260" y="325"/>
			<point x="260" y="386"/>
			<point x="254" y="456" type="curve"/>
			<point x="469" y="66" type="line" smooth="yes"/>
			<point x="493" y="22"/>
			<point x="541" y="-9"/>
			<point x="595" y="-9" type="curve" smooth="yes"/>
			<point x="675" y="-9"/>
		</contour>
		<contour>
			<point x="386" y="-203" type="curve" smooth="yes"/>
			<point x="479" y="-47" type="line"/>
			<point x="479" y="-41"/>
			<point x="465" y="-37"/>
			<point x="439" y="-37" type="curve" smooth="yes"/>
			<point x="363" y="-37"/>
			<point x="301" y="-100"/>
			<point x="302" y="-170" type="curve" smooth="yes"/>
			<point x="302" y="-180" type="line" smooth="yes"/>
			<point x="302" y="-205"/>
			<point x="323" y="-225"/>
			<point x="347" y="-225" type="curve" smooth="yes"/>
			<point x="364" y="-225"/>
			<point x="378" y="-216"/>
		</contour>
	</outline>
</glyph>
<glyph name="uni0146" format="2">
	<advance width="644"/>
	<unicode hex="0146"/>
	<note>
		ncommaaccent
	</note>
	<outline>
		<contour>
			<point x="591" y="403" type="curve" smooth="yes"/>
			<point x="577" y="496"/>
			<point x="512" y="548"/>
			<point x="402" y="548" type="curve" smooth="yes"/>
			<point x="368" y="548"/>
			<point x="339" y="543"/>
			<point x="311" y="534" type="curve" smooth="yes"/>
			<point x="273" y="523"/>
			<point x="242" y="493"/>
			<point x="234" y="453" type="curve"/>
			<point x="234" y="502"/>
			<point x="194" y="543"/>
			<point x="144" y="543" type="curve" smooth="yes"/>
			<point x="94" y="543"/>
			<point x="54" y="502"/>
			<point x="54" y="453" type="curve" smooth="yes"/>
			<point x="54" y="81" type="line" smooth="yes"/>
			<point x="54" y="32"/>
			<point x="94" y="-9"/>
			<point x="144" y="-9" type="curve" smooth="yes"/>
			<point x="194" y="-9"/>
			<point x="234" y="32"/>
			<point x="234" y="81" type="curve" smooth="yes"/>
			<point x="234" y="252" type="line" smooth="yes"/>
			<point x="234" y="373"/>
			<point x="273" y="426"/>
			<point x="328" y="426" type="curve" smooth="yes"/>
			<point x="382" y="426"/>
			<point x="410" y="396"/>
			<point x="414" y="345" type="curve" smooth="yes"/>
			<point x="416" y="318"/>
			<point x="416" y="289"/>
			<point x="416" y="272" type="curve" smooth="yes"/>
			<point x="416" y="81" type="line" smooth="yes"/>
			<point x="416" y="32"/>
			<point x="456" y="-9"/>
			<point x="506" y="-9" type="curve" smooth="yes"/>
			<point x="556" y="-9"/>
			<point x="596" y="32"/>
			<point x="596" y="81" type="curve" smooth="yes"/>
			<point x="596" y="302" type="line" smooth="yes"/>
			<point x="596" y="345"/>
			<point x="595" y="376"/>
		</contour>
		<contour>
			<point x="280" y="-39"/>
			<point x="267" y="-67" type="curve" smooth="yes"/>
			<point x="223" y="-161" type="line" smooth="yes"/>
			<point x="220" y="-166"/>
			<point x="218" y="-173"/>
			<point x="218" y="-180" type="curve" smooth="yes"/>
			<point x="218" y="-205"/>
			<point x="239" y="-225"/>
			<point x="263" y="-225" type="curve" smooth="yes"/>
			<point x="280" y="-225"/>
			<point x="294" y="-216"/>
			<point x="302" y="-203" type="curve" smooth="yes"/>
			<point x="347" y="-127" type="line" smooth="yes"/>
			<point x="378" y="-74"/>
			<point x="328" y="-13"/>
			<point x="328" y="-13" type="curve" smooth="yes"/>
			<point x="295" y="-13"/>
		</contour>
	</outline>
</glyph>
<glyph name="Eng" format="2">
	<advance width="794"/>
	<unicode hex="014A"/>
	<note>
		Eng
	</note>
	<outline>
		<contour>
			<point x="740" y="-57" type="curve" smooth="yes"/>
			<point x="740" y="609" type="line" smooth="yes"/>
			<point x="740" y="658"/>
			<point x="700" y="699"/>
			<point x="650" y="699" type="curve" smooth="yes"/>
			<point x="600" y="699"/>
			<point x="560" y="658"/>
			<point x="560" y="609" type="curve" smooth="yes"/>
			<point x="560" y="435" type="line" smooth="yes"/>
			<point x="560" y="395"/>
			<point x="561" y="324"/>
			<point x="566" y="254" type="curve"/>
			<point x="339" y="631" type="line" smooth="yes"/>
			<point x="315" y="672"/>
			<point x="270" y="699"/>
			<point x="220" y="699" type="curve" smooth="yes"/>
			<point x="143" y="699"/>
			<point x="80" y="636"/>
			<point x="80" y="559" type="curve" smooth="yes"/>
			<point x="80" y="81" type="line" smooth="yes"/>
			<point x="80" y="32"/>
			<point x="120" y="-9"/>
			<point x="170" y="-9" type="curve" smooth="yes"/>
			<point x="220" y="-9"/>
			<point x="260" y="32"/>
			<point x="260" y="81" type="curve" smooth="yes"/>
			<point x="260" y="285" type="line" smooth="yes"/>
			<point x="260" y="325"/>
			<point x="260" y="386"/>
			<point x="254" y="456" type="curve"/>
			<point x="560" y="-20" type="line"/>
			<point x="560" y="-33" type="line" smooth="yes"/>
			<point x="560" y="-56"/>
			<point x="553" y="-73"/>
			<point x="524" y="-82" type="curve" smooth="yes"/>
			<point x="496" y="-92"/>
			<point x="475" y="-119"/>
			<point x="475" y="-150" type="curve" smooth="yes"/>
			<point x="475" y="-195"/>
			<point x="514" y="-223"/>
			<point x="552" y="-220" type="curve" smooth="yes"/>
			<point x="680" y="-211"/>
			<point x="731" y="-173"/>
			<point x="739" y="-98" type="curve" smooth="yes"/>
			<point x="740" y="-84"/>
			<point x="740" y="-75"/>
		</contour>
	</outline>
</glyph>
<glyph name="eng" format="2">
	<advance width="644"/>
	<unicode hex="014B"/>
	<note>
		eng
	</note>
	<outline>
		<contour>
			<point x="591" y="403" type="curve" smooth="yes"/>
			<point x="577" y="496"/>
			<point x="512" y="548"/>
			<point x="402" y="548" type="curve" smooth="yes"/>
			<point x="368" y="548"/>
			<point x="339" y="543"/>
			<point x="311" y="534" type="curve" smooth="yes"/>
			<point x="273" y="523"/>
			<point x="242" y="493"/>
			<point x="234" y="453" type="curve"/>
			<point x="234" y="502"/>
			<point x="194" y="543"/>
			<point x="144" y="543" type="curve" smooth="yes"/>
			<point x="94" y="543"/>
			<point x="54" y="502"/>
			<point x="54" y="453" type="curve" smooth="yes"/>
			<point x="54" y="81" type="line" smooth="yes"/>
			<point x="54" y="32"/>
			<point x="94" y="-9"/>
			<point x="144" y="-9" type="curve" smooth="yes"/>
			<point x="194" y="-9"/>
			<point x="234" y="32"/>
			<point x="234" y="81" type="curve" smooth="yes"/>
			<point x="234" y="252" type="line" smooth="yes"/>
			<point x="234" y="373"/>
			<point x="273" y="426"/>
			<point x="328" y="426" type="curve" smooth="yes"/>
			<point x="382" y="426"/>
			<point x="410" y="396"/>
			<point x="414" y="345" type="curve" smooth="yes"/>
			<point x="416" y="318"/>
			<point x="416" y="289"/>
			<point x="416" y="272" type="curve" smooth="yes"/>
			<point x="416" y="-3" type="line" smooth="yes"/>
			<point x="416" y="-13"/>
			<point x="416" y="-26"/>
			<point x="415" y="-35" type="curve" smooth="yes"/>
			<point x="413" y="-56"/>
			<point x="402" y="-68"/>
			<point x="382" y="-73" type="curve" smooth="yes"/>
			<point x="353" y="-81"/>
			<point x="331" y="-108"/>
			<point x="331" y="-140" type="curve" smooth="yes"/>
			<point x="331" y="-183"/>
			<point x="369" y="-211"/>
			<point x="405" y="-208" type="curve" smooth="yes"/>
			<point x="549" y="-197"/>
			<point x="587" y="-151"/>
			<point x="595" y="-75" type="curve" smooth="yes"/>
			<point x="596" y="-61"/>
			<point x="596" y="-52"/>
			<point x="596" y="-34" type="curve" smooth="yes"/>
			<point x="596" y="302" type="line" smooth="yes"/>
			<point x="596" y="345"/>
			<point x="595" y="376"/>
		</contour>
	</outline>
</glyph>
<glyph name="omacron" format="2">
	<advance width="622"/>
	<unicode hex="014D"/>
	<note>
		omacron
	</note>
	<outline>
		<contour>
			<point x="200" y="586" type="curve" smooth="yes"/>
			<point x="422" y="586" type="line" smooth="yes"/>
			<point x="448" y="586"/>
			<point x="470" y="607"/>
			<point x="470" y="634" type="curve" smooth="yes"/>
			<point x="470" y="661"/>
			<point x="448" y="682"/>
			<point x="422" y="682" type="curve" smooth="yes"/>
			<point x="200" y="682" type="line" smooth="yes"/>
			<point x="174" y="682"/>
			<point x="152" y="661"/>
			<point x="152" y="634" type="curve" smooth="yes"/>
			<point x="152" y="607"/>
			<point x="174" y="586"/>
		</contour>
		<contour>
			<point x="311" y="548" type="curve" smooth="yes"/>
			<point x="136" y="548"/>
			<point x="24" y="439"/>
			<point x="24" y="267" type="curve" smooth="yes"/>
			<point x="24" y="96"/>
			<point x="136" y="-14"/>
			<point x="311" y="-14" type="curve" smooth="yes"/>
			<point x="486" y="-14"/>
			<point x="598" y="96"/>
			<point x="598" y="267" type="curve" smooth="yes"/>
			<point x="598" y="439"/>
			<point x="486" y="548"/>
		</contour>
		<contour>
			<point x="311" y="108" type="curve" smooth="yes"/>
			<point x="247" y="108"/>
			<point x="208" y="161"/>
			<point x="208" y="267" type="curve" smooth="yes"/>
			<point x="208" y="374"/>
			<point x="247" y="426"/>
			<point x="311" y="426" type="curve" smooth="yes"/>
			<point x="375" y="426"/>
			<point x="414" y="374"/>
			<point x="414" y="267" type="curve" smooth="yes"/>
			<point x="414" y="161"/>
			<point x="375" y="108"/>
		</contour>
	</outline>
</glyph>
<glyph name="ohungarumlaut" format="2">
	<advance width="622"/>
	<unicode hex="0151"/>
	<note>
		ohungarumlaut
	</note>
	<outline>
		<contour>
			<point x="210" y="562"/>
			<point x="211" y="563" type="curve" smooth="yes"/>
			<point x="285" y="635"/>
			<point x="320" y="710"/>
			<point x="269" y="705" type="curve" smooth="yes"/>
			<point x="267" y="705"/>
			<point x="265" y="704"/>
			<point x="263" y="704" type="curve" smooth="yes"/>
			<point x="216" y="693"/>
			<point x="177" y="658"/>
			<point x="171" y="611" type="curve" smooth="yes"/>
			<point x="170" y="607"/>
			<point x="170" y="604"/>
			<point x="170" y="601" type="curve" smooth="yes"/>
			<point x="170" y="580"/>
			<point x="188" y="562"/>
			<point x="210" y="562" type="curve"/>
			<point x="210" y="562"/>
		</contour>
		<contour>
			<point x="379" y="634"/>
			<point x="379" y="577"/>
			<point x="492" y="625"/>
			<point x="500" y="639"/>
			<point x="500" y="655" type="curve" smooth="yes"/>
			<point x="500" y="683"/>
			<point x="478" y="705"/>
			<point x="450" y="705" type="curve" smooth="yes"/>
			<point x="443" y="705"/>
			<point x="436" y="704"/>
			<point x="431" y="702" type="curve" smooth="yes"/>
			<point x="402" y="690"/>
			<point x="379" y="664"/>
			<point x="379" y="634" type="curve" smooth="yes"/>
			<point x="379" y="634"/>
		</contour>
		<contour>
			<point x="311" y="548" type="curve" smooth="yes"/>
			<point x="136" y="548"/>
			<point x="24" y="439"/>
			<point x="24" y="267" type="curve" smooth="yes"/>
			<point x="24" y="96"/>
			<point x="136" y="-14"/>
			<point x="311" y="-14" type="curve" smooth="yes"/>
			<point x="486" y="-14"/>
			<point x="598" y="96"/>
			<point x="598" y="267" type="curve" smooth="yes"/>
			<point x="598" y="439"/>
			<point x="486" y="548"/>
		</contour>
		<contour>
			<point x="311" y="108" type="curve" smooth="yes"/>
			<point x="247" y="108"/>
			<point x="208" y="161"/>
			<point x="208" y="267" type="curve" smooth="yes"/>
			<point x="208" y="374"/>
			<point x="247" y="426"/>
			<point x="311" y="426" type="curve" smooth="yes"/>
			<point x="375" y="426"/>
			<point x="414" y="374"/>
			<point x="414" y="267" type="curve" smooth="yes"/>
			<point x="414" y="161"/>
			<point x="375" y="108"/>
		</contour>
	</outline>
</glyph>
<glyph name="tcaron" format="2">
	<advance width="395"/>
	<unicode hex="0165"/>
	<note>
		tcaron
	</note>
	<outline>
		<contour>
			<point x="491" y="730" type="curve" smooth="yes"/>
			<point x="491" y="733"/>
			<point x="477" y="735"/>
			<point x="451" y="735" type="curve" smooth="yes"/>
			<point x="375" y="735"/>
			<point x="313" y="672"/>
			<point x="314" y="602" type="curve" smooth="yes"/>
			<point x="314" y="592" type="line" smooth="yes"/>
			<point x="314" y="567"/>
			<point x="335" y="547"/>
			<point x="359" y="547" type="curve" smooth="yes"/>
			<point x="376" y="547"/>
			<point x="390" y="556"/>
			<point x="398" y="569" type="curve" smooth="yes"/>
			<point x="459" y="671" type="line" smooth="yes"/>
			<point x="482" y="710"/>
			<point x="491" y="727"/>
		</contour>
		<contour>
			<point x="341" y="530" type="curve" smooth="yes"/>
			<point x="270" y="530" type="line"/>
			<point x="270" y="587" type="line" smooth="yes"/>
			<point x="270" y="636"/>
			<point x="230" y="677"/>
			<point x="180" y="677" type="curve" smooth="yes"/>
			<point x="130" y="677"/>
			<point x="90" y="636"/>
			<point x="90" y="587" type="curve" smooth="yes"/>
			<point x="90" y="530" type="line"/>
			<point x="52" y="530" type="line" smooth="yes"/>
			<point x="21" y="530"/>
			<point x="-4" y="505"/>
			<point x="-4" y="474" type="curve" smooth="yes"/>
			<point x="-4" y="443"/>
			<point x="21" y="418"/>
			<point x="52" y="418" type="curve" smooth="yes"/>
			<point x="90" y="418" type="line"/>
			<point x="90" y="195" type="line" smooth="yes"/>
			<point x="90" y="165"/>
			<point x="90" y="140"/>
			<point x="92" y="109" type="curve" smooth="yes"/>
			<point x="98" y="27"/>
			<point x="138" y="-14"/>
			<point x="271" y="-14" type="curve" smooth="yes"/>
			<point x="292" y="-14"/>
			<point x="311" y="-13"/>
			<point x="332" y="-11" type="curve" smooth="yes"/>
			<point x="362" y="-8"/>
			<point x="386" y="17"/>
			<point x="386" y="48" type="curve" smooth="yes"/>
			<point x="386" y="79"/>
			<point x="361" y="105"/>
			<point x="331" y="107" type="curve" smooth="yes"/>
			<point x="285" y="111"/>
			<point x="274" y="128"/>
			<point x="271" y="169" type="curve" smooth="yes"/>
			<point x="270" y="183"/>
			<point x="270" y="203"/>
			<point x="270" y="221" type="curve" smooth="yes"/>
			<point x="270" y="418" type="line"/>
			<point x="341" y="418" type="line" smooth="yes"/>
			<point x="372" y="418"/>
			<point x="397" y="443"/>
			<point x="397" y="474" type="curve" smooth="yes"/>
			<point x="397" y="505"/>
			<point x="372" y="530"/>
		</contour>
	</outline>
</glyph>
<glyph name="Tbar" format="2">
	<advance width="632"/>
	<unicode hex="0166"/>
	<note>
		Tbar
	</note>
	<outline>
		<contour>
			<point x="418" y="389" type="line"/>
			<point x="418" y="550" type="line"/>
			<point x="581" y="550" type="line" smooth="yes"/>
			<point x="619" y="550"/>
			<point x="651" y="581"/>
			<point x="651" y="620" type="curve" smooth="yes"/>
			<point x="651" y="659"/>
			<point x="619" y="690"/>
			<point x="581" y="690" type="curve" smooth="yes"/>
			<point x="75" y="690" type="line" smooth="yes"/>
			<point x="37" y="690"/>
			<point x="5" y="659"/>
			<point x="5" y="620" type="curve" smooth="yes"/>
			<point x="5" y="581"/>
			<point x="37" y="550"/>
			<point x="75" y="550" type="curve" smooth="yes"/>
			<point x="238" y="550" type="line"/>
			<point x="238" y="389" type="line"/>
			<point x="187" y="389" type="line" smooth="yes"/>
			<point x="161" y="389"/>
			<point x="139" y="368"/>
			<point x="139" y="341" type="curve" smooth="yes"/>
			<point x="139" y="314"/>
			<point x="161" y="293"/>
			<point x="187" y="293" type="curve" smooth="yes"/>
			<point x="238" y="293" type="line"/>
			<point x="238" y="81" type="line" smooth="yes"/>
			<point x="238" y="32"/>
			<point x="278" y="-9"/>
			<point x="328" y="-9" type="curve" smooth="yes"/>
			<point x="378" y="-9"/>
			<point x="418" y="32"/>
			<point x="418" y="81" type="curve" smooth="yes"/>
			<point x="418" y="293" type="line"/>
			<point x="469" y="293" type="line" smooth="yes"/>
			<point x="495" y="293"/>
			<point x="517" y="314"/>
			<point x="517" y="341" type="curve" smooth="yes"/>
			<point x="517" y="368"/>
			<point x="495" y="389"/>
			<point x="469" y="389" type="curve" smooth="yes"/>
		</contour>
	</outline>
</glyph>
<glyph name="umacron" format="2">
	<advance width="640"/>
	<unicode hex="016B"/>
	<note>
		umacron
	</note>
	<outline>
		<contour>
			<point x="204" y="586" type="curve" smooth="yes"/>
			<point x="426" y="586" type="line" smooth="yes"/>
			<point x="452" y="586"/>
			<point x="474" y="607"/>
			<point x="474" y="634" type="curve" smooth="yes"/>
			<point x="474" y="661"/>
			<point x="452" y="682"/>
			<point x="426" y="682" type="curve" smooth="yes"/>
			<point x="204" y="682" type="line" smooth="yes"/>
			<point x="178" y="682"/>
			<point x="156" y="661"/>
			<point x="156" y="634" type="curve" smooth="yes"/>
			<point x="156" y="607"/>
			<point x="178" y="586"/>
		</contour>
		<contour>
			<point x="586" y="81" type="curve" smooth="yes"/>
			<point x="586" y="453" type="line" smooth="yes"/>
			<point x="586" y="502"/>
			<point x="546" y="543"/>
			<point x="496" y="543" type="curve" smooth="yes"/>
			<point x="446" y="543"/>
			<point x="406" y="502"/>
			<point x="406" y="453" type="curve" smooth="yes"/>
			<point x="406" y="232" type="line" smooth="yes"/>
			<point x="406" y="161"/>
			<point x="372" y="108"/>
			<point x="315" y="108" type="curve" smooth="yes"/>
			<point x="258" y="108"/>
			<point x="234" y="138"/>
			<point x="228" y="189" type="curve" smooth="yes"/>
			<point x="225" y="216"/>
			<point x="224" y="245"/>
			<point x="224" y="262" type="curve" smooth="yes"/>
			<point x="224" y="453" type="line" smooth="yes"/>
			<point x="224" y="502"/>
			<point x="184" y="543"/>
			<point x="134" y="543" type="curve" smooth="yes"/>
			<point x="84" y="543"/>
			<point x="44" y="502"/>
			<point x="44" y="453" type="curve" smooth="yes"/>
			<point x="44" y="222" type="line" smooth="yes"/>
			<point x="44" y="179"/>
			<point x="45" y="148"/>
			<point x="49" y="121" type="curve" smooth="yes"/>
			<point x="61" y="48"/>
			<point x="128" y="-14"/>
			<point x="238" y="-14" type="curve" smooth="yes"/>
			<point x="270" y="-14"/>
			<point x="297" y="-9"/>
			<point x="323" y="-2" type="curve" smooth="yes"/>
			<point x="362" y="9"/>
			<point x="397" y="40"/>
			<point x="406" y="81" type="curve"/>
			<point x="406" y="32"/>
			<point x="446" y="-9"/>
			<point x="496" y="-9" type="curve" smooth="yes"/>
			<point x="546" y="-9"/>
			<point x="586" y="32"/>
		</contour>
	</outline>
</glyph>
<glyph name="Uhungarumlaut" format="2">
	<advance width="718"/>
	<unicode hex="0170"/>
	<note>
		Uhungarumlaut
	</note>
	<outline>
		<contour>
			<point x="268" y="727"/>
			<point x="269" y="728" type="curve" smooth="yes"/>
			<point x="343" y="800"/>
			<point x="378" y="875"/>
			<point x="327" y="870" type="curve" smooth="yes"/>
			<point x="325" y="870"/>
			<point x="323" y="869"/>
			<point x="321" y="869" type="curve" smooth="yes"/>
			<point x="274" y="858"/>
			<point x="235" y="823"/>
			<point x="229" y="776" type="curve" smooth="yes"/>
			<point x="228" y="772"/>
			<point x="228" y="769"/>
			<point x="228" y="766" type="curve" smooth="yes"/>
			<point x="228" y="745"/>
			<point x="246" y="727"/>
			<point x="268" y="727" type="curve"/>
			<point x="268" y="727"/>
		</contour>
		<contour>
			<point x="469" y="727"/>
			<point x="470" y="728" type="curve" smooth="yes"/>
			<point x="544" y="800"/>
			<point x="579" y="875"/>
			<point x="528" y="870" type="curve" smooth="yes"/>
			<point x="526" y="870"/>
			<point x="524" y="869"/>
			<point x="522" y="869" type="curve" smooth="yes"/>
			<point x="475" y="858"/>
			<point x="436" y="823"/>
			<point x="430" y="776" type="curve" smooth="yes"/>
			<point x="429" y="772"/>
			<point x="429" y="769"/>
			<point x="429" y="766" type="curve" smooth="yes"/>
			<point x="429" y="745"/>
			<point x="447" y="727"/>
			<point x="469" y="727" type="curve"/>
			<point x="469" y="727"/>
		</contour>
		<contour>
			<point x="680" y="303" type="curve" smooth="yes"/>
			<point x="680" y="609" type="line" smooth="yes"/>
			<point x="680" y="658"/>
			<point x="640" y="699"/>
			<point x="590" y="699" type="curve" smooth="yes"/>
			<point x="540" y="699"/>
			<point x="500" y="658"/>
			<point x="500" y="609" type="curve" smooth="yes"/>
			<point x="500" y="270" type="line" smooth="yes"/>
			<point x="500" y="251"/>
			<point x="500" y="241"/>
			<point x="499" y="229" type="curve" smooth="yes"/>
			<point x="494" y="157"/>
			<point x="453" y="118"/>
			<point x="374" y="118" type="curve" smooth="yes"/>
			<point x="295" y="118"/>
			<point x="254" y="157"/>
			<point x="249" y="229" type="curve" smooth="yes"/>
			<point x="248" y="241"/>
			<point x="248" y="251"/>
			<point x="248" y="270" type="curve" smooth="yes"/>
			<point x="248" y="609" type="line" smooth="yes"/>
			<point x="248" y="658"/>
			<point x="208" y="699"/>
			<point x="158" y="699" type="curve" smooth="yes"/>
			<point x="108" y="699"/>
			<point x="68" y="658"/>
			<point x="68" y="609" type="curve" smooth="yes"/>
			<point x="68" y="303" type="line" smooth="yes"/>
			<point x="68" y="268"/>
			<point x="68" y="247"/>
			<point x="71" y="206" type="curve" smooth="yes"/>
			<point x="79" y="90"/>
			<point x="161" y="-14"/>
			<point x="374" y="-14" type="curve" smooth="yes"/>
			<point x="587" y="-14"/>
			<point x="669" y="90"/>
			<point x="677" y="206" type="curve" smooth="yes"/>
			<point x="680" y="247"/>
			<point x="680" y="268"/>
		</contour>
	</outline>
</glyph>
<glyph name="uhungarumlaut" format="2">
	<advance width="640"/>
	<unicode hex="0171"/>
	<note>
		uhungarumlaut
	</note>
	<outline>
		<contour>
			<point x="214" y="562"/>
			<point x="215" y="563" type="curve" smooth="yes"/>
			<point x="289" y="635"/>
			<point x="324" y="710"/>
			<point x="273" y="705" type="curve" smooth="yes"/>
			<point x="271" y="705"/>
			<point x="269" y="704"/>
			<point x="267" y="704" type="curve" smooth="yes"/>
			<point x="220" y="693"/>
			<point x="181" y="658"/>
			<point x="175" y="611" type="curve" smooth="yes"/>
			<point x="174" y="607"/>
			<point x="174" y="604"/>
			<point x="174" y="601" type="curve" smooth="yes"/>
			<point x="174" y="580"/>
			<point x="192" y="562"/>
			<point x="214" y="562" type="curve"/>
			<point x="214" y="562"/>
		</contour>
		<contour>
			<point x="383" y="634"/>
			<point x="383" y="577"/>
			<point x="496" y="625"/>
			<point x="504" y="639"/>
			<point x="504" y="655" type="curve" smooth="yes"/>
			<point x="504" y="683"/>
			<point x="482" y="705"/>
			<point x="454" y="705" type="curve" smooth="yes"/>
			<point x="447" y="705"/>
			<point x="440" y="704"/>
			<point x="435" y="702" type="curve" smooth="yes"/>
			<point x="406" y="690"/>
			<point x="383" y="664"/>
			<point x="383" y="634" type="curve" smooth="yes"/>
			<point x="383" y="634"/>
		</contour>
		<contour>
			<point x="586" y="81" type="curve" smooth="yes"/>
			<point x="586" y="453" type="line" smooth="yes"/>
			<point x="586" y="502"/>
			<point x="546" y="543"/>
			<point x="496" y="543" type="curve" smooth="yes"/>
			<point x="446" y="543"/>
			<point x="406" y="502"/>
			<point x="406" y="453" type="curve" smooth="yes"/>
			<point x="406" y="232" type="line" smooth="yes"/>
			<point x="406" y="161"/>
			<point x="372" y="108"/>
			<point x="315" y="108" type="curve" smooth="yes"/>
			<point x="258" y="108"/>
			<point x="234" y="138"/>
			<point x="228" y="189" type="curve" smooth="yes"/>
			<point x="225" y="216"/>
			<point x="224" y="245"/>
			<point x="224" y="262" type="curve" smooth="yes"/>
			<point x="224" y="453" type="line" smooth="yes"/>
			<point x="224" y="502"/>
			<point x="184" y="543"/>
			<point x="134" y="543" type="curve" smooth="yes"/>
			<point x="84" y="543"/>
			<point x="44" y="502"/>
			<point x="44" y="453" type="curve" smooth="yes"/>
			<point x="44" y="222" type="line" smooth="yes"/>
			<point x="44" y="179"/>
			<point x="45" y="148"/>
			<point x="49" y="121" type="curve" smooth="yes"/>
			<point x="61" y="48"/>
			<point x="128" y="-14"/>
			<point x="238" y="-14" type="curve" smooth="yes"/>
			<point x="270" y="-14"/>
			<point x="297" y="-9"/>
			<point x="323" y="-2" type="curve" smooth="yes"/>
			<point x="362" y="9"/>
			<point x="397" y="40"/>
			<point x="406" y="81" type="curve"/>
			<point x="406" y="32"/>
			<point x="446" y="-9"/>
			<point x="496" y="-9" type="curve" smooth="yes"/>
			<point x="546" y="-9"/>
			<point x="586" y="32"/>
		</contour>
	</outline>
</glyph>
<glyph name="uogonek" format="2">
	<advance width="640"/>
	<unicode hex="0173"/>
	<note>
		uogonek
	</note>
	<outline>
		<contour>
			<point x="529" y="0" type="curve" smooth="yes"/>
			<point x="566" y="0"/>
			<point x="586" y="34"/>
			<point x="586" y="95" type="curve" smooth="yes"/>
			<point x="586" y="453" type="line" smooth="yes"/>
			<point x="586" y="502"/>
			<point x="546" y="543"/>
			<point x="496" y="543" type="curve" smooth="yes"/>
			<point x="446" y="543"/>
			<point x="406" y="502"/>
			<point x="406" y="453" type="curve" smooth="yes"/>
			<point x="406" y="232" type="line" smooth="yes"/>
			<point x="406" y="161"/>
			<point x="372" y="108"/>
			<point x="315" y="108" type="curve" smooth="yes"/>
			<point x="258" y="108"/>
			<point x="234" y="138"/>
			<point x="228" y="189" type="curve" smooth="yes"/>
			<point x="225" y="216"/>
			<point x="224" y="245"/>
			<point x="224" y="262" type="curve" smooth="yes"/>
			<point x="224" y="453" type="line" smooth="yes"/>
			<point x="224" y="502"/>
			<point x="184" y="543"/>
			<point x="134" y="543" type="curve" smooth="yes"/>
			<point x="84" y="543"/>
			<point x="44" y="502"/>
			<point x="44" y="453" type="curve" smooth="yes"/>
			<point x="44" y="222" type="line" smooth="yes"/>
			<point x="44" y="179"/>
			<point x="45" y="148"/>
			<point x="49" y="121" type="curve" smooth="yes"/>
			<point x="61" y="48"/>
			<point x="128" y="-14"/>
			<point x="238" y="-14" type="curve" smooth="yes"/>
			<point x="261" y="-14"/>
			<point x="282" y="-12"/>
			<point x="301" y="-7" type="curve" smooth="yes"/>
			<point x="345" y="4"/>
			<point x="367" y="31"/>
			<point x="392" y="69" type="curve" smooth="yes"/>
			<point x="406" y="90" type="line"/>
			<point x="406" y="5" type="line"/>
			<point x="361" y="-20"/>
			<point x="320" y="-77"/>
			<point x="320" y="-137" type="curve" smooth="yes"/>
			<point x="320" y="-201"/>
			<point x="368" y="-223"/>
			<point x="434" y="-223" type="curve" smooth="yes"/>
			<point x="489" y="-223"/>
			<point x="528" y="-207"/>
			<point x="563" y="-184" type="curve" smooth="yes"/>
			<point x="573" y="-177"/>
			<point x="578" y="-167"/>
			<point x="578" y="-155" type="curve" smooth="yes"/>
			<point x="578" y="-133"/>
			<point x="556" y="-116"/>
			<point x="535" y="-120" type="curve" smooth="yes"/>
			<point x="532" y="-121"/>
			<point x="528" y="-121"/>
			<point x="525" y="-121" type="curve" smooth="yes"/>
			<point x="505" y="-121"/>
			<point x="484" y="-108"/>
			<point x="484" y="-70" type="curve" smooth="yes"/>
			<point x="484" y="-32"/>
			<point x="504" y="0"/>
		</contour>
	</outline>
</glyph>
<glyph name="Wcircumflex" format="2">
	<advance width="1016"/>
	<unicode hex="0174"/>
	<note>
		Wcircumflex
	</note>
	<outline>
		<contour>
			<point x="496" y="737"/>
			<point x="503" y="754" type="curve" smooth="yes"/>
			<point x="527" y="811" type="line"/>
			<point x="544" y="773" type="line" smooth="yes"/>
			<point x="556" y="747"/>
			<point x="565" y="735"/>
			<point x="574" y="735" type="curve" smooth="yes"/>
			<point x="608" y="735"/>
			<point x="637" y="763"/>
			<point x="637" y="797" type="curve" smooth="yes"/>
			<point x="637" y="832"/>
			<point x="608" y="860"/>
			<point x="574" y="860" type="curve" smooth="yes"/>
			<point x="488" y="860" type="line" smooth="yes"/>
			<point x="444" y="860"/>
			<point x="412" y="822"/>
			<point x="415" y="784" type="curve"/>
			<point x="416" y="780"/>
			<point x="415" y="776"/>
			<point x="415" y="772" type="curve" smooth="yes"/>
			<point x="415" y="746"/>
			<point x="436" y="726"/>
			<point x="461" y="726" type="curve" smooth="yes"/>
			<point x="480" y="726"/>
		</contour>
		<contour>
			<point x="874" y="82" type="curve" smooth="yes"/>
			<point x="1004" y="590" type="line" smooth="yes"/>
			<point x="1006" y="596"/>
			<point x="1006" y="605"/>
			<point x="1006" y="612" type="curve" smooth="yes"/>
			<point x="1006" y="660"/>
			<point x="967" y="699"/>
			<point x="919" y="699" type="curve" smooth="yes"/>
			<point x="877" y="699"/>
			<point x="841" y="667"/>
			<point x="834" y="627" type="curve" smooth="yes"/>
			<point x="745" y="138" type="line"/>
			<point x="672" y="593" type="line" smooth="yes"/>
			<point x="663" y="650"/>
			<point x="628" y="680"/>
			<point x="570" y="680" type="curve" smooth="yes"/>
			<point x="487" y="680" type="line" smooth="yes"/>
			<point x="429" y="680"/>
			<point x="395" y="652"/>
			<point x="385" y="594" type="curve" smooth="yes"/>
			<point x="309" y="140" type="line"/>
			<point x="228" y="623" type="line" smooth="yes"/>
			<point x="221" y="666"/>
			<point x="184" y="699"/>
			<point x="139" y="699" type="curve" smooth="yes"/>
			<point x="89" y="699"/>
			<point x="48" y="658"/>
			<point x="48" y="608" type="curve" smooth="yes"/>
			<point x="48" y="601"/>
			<point x="49" y="593"/>
			<point x="51" y="587" type="curve" smooth="yes"/>
			<point x="172" y="82" type="line" smooth="yes"/>
			<point x="185" y="26"/>
			<point x="220" y="0"/>
			<point x="277" y="0" type="curve" smooth="yes"/>
			<point x="346" y="0" type="line" smooth="yes"/>
			<point x="404" y="0"/>
			<point x="438" y="28"/>
			<point x="448" y="86" type="curve" smooth="yes"/>
			<point x="526" y="537" type="line"/>
			<point x="599" y="87" type="line" smooth="yes"/>
			<point x="608" y="30"/>
			<point x="643" y="0"/>
			<point x="701" y="0" type="curve" smooth="yes"/>
			<point x="769" y="0" type="line" smooth="yes"/>
			<point x="825" y="0"/>
			<point x="860" y="27"/>
		</contour>
	</outline>
</glyph>
<glyph name="Ycircumflex" format="2">
	<advance width="663"/>
	<unicode hex="0176"/>
	<note>
		Ycircumflex
	</note>
	<outline>
		<contour>
			<point x="315" y="737"/>
			<point x="322" y="754" type="curve" smooth="yes"/>
			<point x="346" y="811" type="line"/>
			<point x="363" y="773" type="line" smooth="yes"/>
			<point x="375" y="747"/>
			<point x="384" y="735"/>
			<point x="393" y="735" type="curve" smooth="yes"/>
			<point x="427" y="735"/>
			<point x="456" y="763"/>
			<point x="456" y="797" type="curve" smooth="yes"/>
			<point x="456" y="832"/>
			<point x="427" y="860"/>
			<point x="393" y="860" type="curve" smooth="yes"/>
			<point x="307" y="860" type="line" smooth="yes"/>
			<point x="263" y="860"/>
			<point x="231" y="822"/>
			<point x="234" y="784" type="curve"/>
			<point x="235" y="780"/>
			<point x="234" y="776"/>
			<point x="234" y="772" type="curve" smooth="yes"/>
			<point x="234" y="746"/>
			<point x="255" y="726"/>
			<point x="280" y="726" type="curve" smooth="yes"/>
			<point x="299" y="726"/>
		</contour>
		<contour>
			<point x="437" y="81" type="curve" smooth="yes"/>
			<point x="437" y="264" type="line"/>
			<point x="613" y="573" type="line" smooth="yes"/>
			<point x="620" y="586"/>
			<point x="624" y="600"/>
			<point x="624" y="615" type="curve" smooth="yes"/>
			<point x="624" y="661"/>
			<point x="587" y="699"/>
			<point x="540" y="699" type="curve" smooth="yes"/>
			<point x="507" y="699"/>
			<point x="477" y="679"/>
			<point x="464" y="651" type="curve" smooth="yes"/>
			<point x="352" y="417" type="line"/>
			<point x="235" y="651" type="line" smooth="yes"/>
			<point x="221" y="680"/>
			<point x="192" y="699"/>
			<point x="158" y="699" type="curve" smooth="yes"/>
			<point x="110" y="699"/>
			<point x="71" y="660"/>
			<point x="71" y="612" type="curve" smooth="yes"/>
			<point x="71" y="597"/>
			<point x="76" y="582"/>
			<point x="83" y="570" type="curve" smooth="yes"/>
			<point x="257" y="264" type="line"/>
			<point x="257" y="81" type="line" smooth="yes"/>
			<point x="257" y="32"/>
			<point x="297" y="-9"/>
			<point x="347" y="-9" type="curve" smooth="yes"/>
			<point x="397" y="-9"/>
			<point x="437" y="32"/>
		</contour>
	</outline>
</glyph>
